G04 Layer: BottomSolderMaskLayer*
G04 EasyEDA v6.4.19.4, 2021-06-11T02:13:33+02:00*
G04 afcd8683cfac40e295d78014fa455b8c,92d7176e1a3f4c55b0c7f3235df8e186,10*
G04 Gerber Generator version 0.2*
G04 Scale: 100 percent, Rotated: No, Reflected: No *
G04 Dimensions in millimeters *
G04 leading zeros omitted , absolute positions ,4 integer and 5 decimal *
%FSLAX45Y45*%
%MOMM*%

%ADD60C,1.3532*%
%ADD72C,1.7018*%

%LPD*%
D60*
X968095Y4609896D02*
G01*
X898095Y4609896D01*
X968095Y5473903D02*
G01*
X898095Y5473903D01*
X1411102Y4609896D02*
G01*
X1291102Y4609896D01*
X1411102Y5473903D02*
G01*
X1291102Y5473903D01*
G36*
X690118Y2404618D02*
G01*
X690118Y2954781D01*
X1240281Y2954781D01*
X1240281Y2404618D01*
G37*
G36*
X7929118Y2404618D02*
G01*
X7929118Y2954781D01*
X8479281Y2954781D01*
X8479281Y2404618D01*
G37*
D72*
G01*
X3886200Y4787900D03*
G36*
X3801109Y4956810D02*
G01*
X3801109Y5126989D01*
X3971290Y5126989D01*
X3971290Y4956810D01*
G37*
G01*
X2146300Y4229100D03*
G01*
X2146300Y3975100D03*
G01*
X2400300Y4229100D03*
G01*
X2400300Y3975100D03*
G01*
X2654300Y4229100D03*
G01*
X2654300Y3975100D03*
G01*
X2908300Y4229100D03*
G01*
X2908300Y3975100D03*
G01*
X3162300Y4229100D03*
G01*
X3162300Y3975100D03*
G01*
X3416300Y4229100D03*
G01*
X3416300Y3975100D03*
G01*
X3670300Y4229100D03*
G01*
X3670300Y3975100D03*
G01*
X3924300Y4229100D03*
G01*
X3924300Y3975100D03*
G01*
X4178300Y4229100D03*
G01*
X4178300Y3975100D03*
G01*
X4432300Y4229100D03*
G01*
X4432300Y3975100D03*
G01*
X4686300Y4229100D03*
G01*
X4686300Y3975100D03*
G01*
X4940300Y4229100D03*
G01*
X4940300Y3975100D03*
G01*
X5194300Y4229100D03*
G01*
X5194300Y3975100D03*
G01*
X5448300Y4229100D03*
G01*
X5448300Y3975100D03*
G01*
X5702300Y4229100D03*
G01*
X5702300Y3975100D03*
G01*
X5956300Y4229100D03*
G01*
X5956300Y3975100D03*
G01*
X6210300Y4229100D03*
G01*
X6210300Y3975100D03*
G01*
X6464300Y4229100D03*
G01*
X6464300Y3975100D03*
G01*
X6718300Y4229100D03*
G01*
X6718300Y3975100D03*
G36*
X6887209Y4144010D02*
G01*
X6887209Y4314189D01*
X7057390Y4314189D01*
X7057390Y4144010D01*
G37*
G01*
X6972300Y3975100D03*
G01*
X4102100Y5448300D03*
G01*
X3848100Y5448300D03*
G01*
X3594100Y5448300D03*
G36*
X3255009Y5363210D02*
G01*
X3255009Y5533389D01*
X3425190Y5533389D01*
X3425190Y5363210D01*
G37*
M02*
