G04 Layer: Inner1*
G04 EasyEDA v6.4.19.4, 2021-06-11T02:13:33+02:00*
G04 afcd8683cfac40e295d78014fa455b8c,92d7176e1a3f4c55b0c7f3235df8e186,10*
G04 Gerber Generator version 0.2*
G04 Scale: 100 percent, Rotated: No, Reflected: No *
G04 Dimensions in millimeters *
G04 leading zeros omitted , absolute positions ,4 integer and 5 decimal *
%FSLAX45Y45*%
%MOMM*%

%ADD11C,0.3000*%
%ADD14C,0.4000*%
%ADD15C,1.0000*%
%ADD18C,0.6096*%
%ADD19C,0.6000*%
%ADD20C,0.5000*%
%ADD21C,0.7000*%
%ADD50C,1.4986*%
%ADD51R,1.4986X1.4986*%
%ADD52C,1.1500*%

%LPD*%
D11*
X1905000Y3390900D02*
G01*
X2273300Y3759200D01*
X2273300Y4254500D01*
X3594100Y5448300D02*
G01*
X3594100Y5359400D01*
X2514600Y4279900D01*
X2514600Y3860800D01*
X2413000Y3759200D01*
X2413000Y3746500D01*
X6972300Y3975100D02*
G01*
X7162800Y3784600D01*
X7404100Y3784600D01*
X7505700Y3683000D01*
X7505700Y3162300D01*
X7556500Y3111500D01*
X5016500Y4508500D02*
G01*
X5016500Y4483100D01*
X4711700Y4483100D01*
X4610100Y4584700D01*
D14*
X6594398Y4622800D02*
G01*
X6908800Y4622800D01*
X6959600Y4660900D01*
X6959600Y4660900D02*
G01*
X6959600Y4851400D01*
D11*
X7378700Y2540000D02*
G01*
X7289800Y2628900D01*
X7200900Y2628900D01*
X7175500Y2654300D01*
X7175500Y3098800D01*
X7035800Y3238500D01*
X7035800Y3517900D01*
X7200900Y3683000D01*
X6438900Y4965700D02*
G01*
X6388100Y4914900D01*
X6388100Y4838700D01*
X6184900Y4635500D01*
X6438900Y4965700D02*
G01*
X6388100Y4914900D01*
X6388100Y4864100D01*
D19*
X6019800Y3771900D02*
G01*
X6083300Y3835400D01*
X6083300Y4356100D01*
X6350000Y4622800D01*
X6540500Y4787900D01*
X6540500Y5075428D01*
X6664452Y5199379D01*
D11*
X7378700Y1917700D02*
G01*
X7975600Y1917700D01*
X8064500Y2006600D01*
X8064500Y2209800D01*
X8204200Y2349500D01*
X8204200Y2679700D01*
X3187700Y3111500D02*
G01*
X3492500Y2806700D01*
X3492500Y2501900D01*
X4076700Y1917700D01*
X7378700Y1917700D01*
D14*
X5956300Y3683000D02*
G01*
X6070600Y3683000D01*
X6261100Y3492500D01*
D19*
X4427118Y1993900D02*
G01*
X4203700Y2217318D01*
X4203700Y3517900D01*
X4457700Y3771900D01*
X5937011Y3771900D01*
D14*
X5168900Y5041900D02*
G01*
X5168900Y4991100D01*
X5829300Y4330700D01*
X5829300Y4102100D01*
D11*
X4064000Y4673600D02*
G01*
X5029200Y4673600D01*
X5029200Y4635500D01*
X2451100Y4483100D02*
G01*
X2552700Y4483100D01*
X2616200Y4546600D01*
X6172200Y2895600D02*
G01*
X6337300Y2895600D01*
X6870700Y3429000D01*
X6870700Y3517900D01*
X6997700Y3644900D01*
X6166792Y3009900D02*
G01*
X6273800Y3009900D01*
X6794500Y3530600D01*
X6794500Y3657600D01*
X6908800Y3771900D01*
X7035800Y3771900D01*
X7099300Y3708400D01*
X7099300Y3670300D01*
X3086100Y3784600D02*
G01*
X3136900Y3835400D01*
X3225800Y3835400D01*
X3289300Y3898900D01*
X3289300Y4305300D01*
X3771900Y4787900D01*
X3886200Y4787900D01*
X2870200Y2463800D02*
G01*
X3086100Y2679700D01*
X3086100Y3784600D01*
X2273300Y4254500D02*
G01*
X2273300Y4419600D01*
X2451100Y4597400D01*
X2616200Y4762500D01*
X2616200Y5067300D01*
X2667000Y5118100D01*
X3073400Y5118100D01*
X1955800Y3746500D02*
G01*
X1524000Y3314700D01*
X1524000Y2667000D01*
X6667500Y4686300D02*
G01*
X6565900Y4787900D01*
X6540500Y4787900D01*
X6664401Y5199334D02*
G01*
X6667500Y5202433D01*
X6667500Y5270500D01*
X6667500Y4686300D02*
G01*
X6972300Y4991100D01*
X7340600Y4991100D01*
D19*
X6489700Y5295900D02*
G01*
X6515100Y5270500D01*
X6667500Y5270500D01*
X5937011Y3771900D02*
G01*
X6019800Y3771900D01*
X4161807Y1993900D02*
G01*
X4427118Y1993900D01*
D11*
X6096000Y5334000D02*
G01*
X6337300Y5092700D01*
X6438900Y5092700D01*
X6192776Y3340100D02*
G01*
X5283200Y3340100D01*
X5041900Y3581400D01*
X4813300Y3581400D01*
X7556500Y3111500D02*
G01*
X7581900Y3111500D01*
X7747000Y3111500D01*
X7747000Y2921000D01*
X7823200Y2844800D01*
X7823200Y2844800D02*
G01*
X7823200Y2235200D01*
X7683500Y3048000D02*
G01*
X7620000Y3048000D01*
X7456586Y2884586D01*
X7632700Y3733800D02*
G01*
X7708900Y3657600D01*
X7708900Y3238500D01*
X1752600Y4216400D02*
G01*
X1752600Y4102100D01*
G36*
X1215202Y2429703D02*
G01*
X1215202Y2929702D01*
X715203Y2929702D01*
X715203Y2429703D01*
G37*
G36*
X8454189Y2429697D02*
G01*
X8454189Y2929696D01*
X7954190Y2929696D01*
X7954190Y2429697D01*
G37*
D50*
G01*
X3886200Y4787900D03*
D51*
G01*
X3886200Y5041900D03*
D50*
G01*
X2146300Y4229100D03*
G01*
X2146300Y3975100D03*
G01*
X2400300Y4229100D03*
G01*
X2400300Y3975100D03*
G01*
X2654300Y4229100D03*
G01*
X2654300Y3975100D03*
G01*
X2908300Y4229100D03*
G01*
X2908300Y3975100D03*
G01*
X3162300Y4229100D03*
G01*
X3162300Y3975100D03*
G01*
X3416300Y4229100D03*
G01*
X3416300Y3975100D03*
G01*
X3670300Y4229100D03*
G01*
X3670300Y3975100D03*
G01*
X3924300Y4229100D03*
G01*
X3924300Y3975100D03*
G01*
X4178300Y4229100D03*
G01*
X4178300Y3975100D03*
G01*
X4432300Y4229100D03*
G01*
X4432300Y3975100D03*
G01*
X4686300Y4229100D03*
G01*
X4686300Y3975100D03*
G01*
X4940300Y4229100D03*
G01*
X4940300Y3975100D03*
G01*
X5194300Y4229100D03*
G01*
X5194300Y3975100D03*
G01*
X5448300Y4229100D03*
G01*
X5448300Y3975100D03*
G01*
X5702300Y4229100D03*
G01*
X5702300Y3975100D03*
G01*
X5956300Y4229100D03*
G01*
X5956300Y3975100D03*
G01*
X6210300Y4229100D03*
G01*
X6210300Y3975100D03*
G01*
X6464300Y4229100D03*
G01*
X6464300Y3975100D03*
G01*
X6718300Y4229100D03*
G01*
X6718300Y3975100D03*
G36*
X6897370Y4154170D02*
G01*
X7047229Y4154170D01*
X7047229Y4304029D01*
X6897370Y4304029D01*
G37*
G01*
X6972300Y3975100D03*
G01*
X4102100Y5448300D03*
G01*
X3848100Y5448300D03*
G01*
X3594100Y5448300D03*
G36*
X3265170Y5523229D02*
G01*
X3415029Y5523229D01*
X3415029Y5373370D01*
X3265170Y5373370D01*
G37*
D18*
G01*
X6172200Y2895600D03*
G01*
X6166797Y3009900D03*
D19*
G01*
X7315200Y2755900D03*
G01*
X4610100Y5435600D03*
G01*
X8139302Y3873500D03*
G01*
X8331200Y4446396D03*
G01*
X7913497Y3937000D03*
G01*
X6845300Y3200400D03*
G01*
X3757802Y2603500D03*
G01*
X3770502Y1993900D03*
G01*
X3978529Y1739900D03*
G01*
X3201797Y2032000D03*
G01*
X3200400Y2311400D03*
G01*
X3187700Y3276600D03*
G01*
X3187700Y2667000D03*
D15*
G01*
X7353300Y3441700D03*
G01*
X7226300Y3314700D03*
G01*
X7353300Y3314700D03*
G01*
X7226300Y3441700D03*
G01*
X6934200Y2476500D03*
G01*
X6934606Y2286000D03*
G01*
X6934200Y2108200D03*
G01*
X5600700Y2463800D03*
G01*
X5600700Y2120900D03*
G01*
X5600700Y2286000D03*
D19*
G01*
X3683000Y3289300D03*
G01*
X4704359Y3111500D03*
G01*
X4381500Y3390900D03*
G01*
X4483100Y3390900D03*
G01*
X4381500Y3225800D03*
G01*
X4483100Y3225800D03*
G01*
X2757398Y3506698D03*
G01*
X1357401Y3506698D03*
G01*
X1357401Y2106726D03*
G01*
X1462404Y2106701D03*
G01*
X1547418Y2106701D03*
G01*
X1632229Y2106701D03*
G01*
X1717014Y2106701D03*
G01*
X1801825Y2106701D03*
G01*
X1886610Y2106701D03*
G01*
X1971420Y2106701D03*
G01*
X2057400Y2106701D03*
G01*
X2143404Y2106701D03*
G01*
X2228215Y2106701D03*
G01*
X2313025Y2106701D03*
G01*
X2397836Y2106701D03*
G01*
X2482621Y2106701D03*
G01*
X2567406Y2106701D03*
G01*
X2652420Y2106701D03*
G01*
X2757398Y2106726D03*
G01*
X2757398Y2296718D03*
G01*
X2757398Y2211704D03*
G01*
X939800Y3328796D03*
G01*
X7061200Y2781300D03*
G01*
X1117600Y4381500D03*
G01*
X1219200Y4381500D03*
G01*
X7061200Y2857500D03*
G01*
X7112000Y2819400D03*
G01*
X876300Y4141596D03*
G01*
X1518005Y4719396D03*
G01*
X1518005Y5364403D03*
G01*
X2095500Y5207000D03*
G01*
X2095500Y4876800D03*
G01*
X2861513Y4887087D03*
G01*
X3276600Y5156200D03*
G01*
X1727200Y5257800D03*
G01*
X6057900Y5016500D03*
G01*
X6070600Y4508500D03*
G01*
X7200900Y5308600D03*
G01*
X7670800Y5422900D03*
G01*
X8216900Y5410200D03*
G01*
X7543800Y4775200D03*
D20*
G01*
X736600Y3295192D03*
D19*
G01*
X5662802Y3124200D03*
G01*
X5662802Y3543300D03*
D21*
G01*
X1897405Y2966694D03*
G01*
X2057400Y2966694D03*
G01*
X2217394Y2966694D03*
G01*
X2217394Y2806700D03*
G01*
X2057400Y2806700D03*
G01*
X1897405Y2806700D03*
G01*
X1897405Y2646705D03*
G01*
X2057400Y2646705D03*
G01*
X2217394Y2646705D03*
G01*
X1752600Y4102100D03*
G01*
X1752600Y4216400D03*
G01*
X2628900Y2476500D03*
G01*
X3187700Y3111500D03*
D19*
G01*
X7632700Y3733800D03*
G01*
X7708900Y3238500D03*
G01*
X7683500Y3048000D03*
G01*
X7378700Y2540000D03*
G01*
X7200900Y3683000D03*
G01*
X7289800Y3111500D03*
G01*
X7823200Y2235200D03*
G01*
X7456576Y2884576D03*
G01*
X8001000Y4521200D03*
G01*
X4813300Y3581400D03*
G01*
X6192774Y3340100D03*
G01*
X6096000Y5334000D03*
D21*
G01*
X6451600Y4889500D03*
D19*
G01*
X6667500Y5270500D03*
G01*
X6664401Y5199329D03*
G01*
X6578600Y5270500D03*
G01*
X6489700Y5295900D03*
G01*
X4161815Y1993900D03*
G01*
X4267200Y1993900D03*
G01*
X4356100Y1993900D03*
G01*
X4427118Y1993900D03*
G01*
X7340600Y4991100D03*
G01*
X7366000Y3670300D03*
G01*
X7289800Y3695700D03*
G01*
X1168400Y5016500D03*
G01*
X1727200Y5041900D03*
G01*
X6997700Y3644900D03*
G01*
X7099300Y3670300D03*
G01*
X2921000Y3429000D03*
G01*
X2857500Y3251200D03*
G01*
X2603500Y3162300D03*
G01*
X2667000Y3060700D03*
G01*
X4064000Y4673600D03*
G01*
X4610100Y4584700D03*
G01*
X2413000Y3759200D03*
G01*
X1955800Y3746500D03*
G01*
X1524000Y2667000D03*
G01*
X1905000Y3390900D03*
G01*
X3073400Y5118100D03*
G01*
X2870200Y2463800D03*
G01*
X7213600Y2552700D03*
G01*
X6261100Y3492500D03*
G01*
X4711700Y4914900D03*
G01*
X5397500Y3556000D03*
G01*
X6832600Y3048000D03*
G01*
X4737100Y4559300D03*
G01*
X5295900Y3517900D03*
G01*
X1462404Y3506723D03*
G01*
X2527300Y3403600D03*
G01*
X2235200Y4965700D03*
G01*
X2328113Y5445887D03*
G01*
X1614347Y4508500D03*
G01*
X4483100Y4775200D03*
D18*
G01*
X3136900Y4546600D03*
G01*
X2451100Y4483100D03*
G01*
X2616200Y4546600D03*
D19*
G01*
X5016500Y4508500D03*
G01*
X5029200Y4635500D03*
D18*
G01*
X6438900Y4965700D03*
G01*
X6184900Y4635500D03*
D19*
G01*
X5257800Y4648200D03*
G01*
X5168900Y5041900D03*
G01*
X5829300Y4102100D03*
G01*
X5956300Y3683000D03*
G01*
X6594398Y4622800D03*
G01*
X6959600Y4851400D03*
G01*
X6438900Y5092700D03*
D52*
X968095Y4609896D02*
G01*
X898095Y4609896D01*
X968095Y5473903D02*
G01*
X898095Y5473903D01*
X1411102Y4609896D02*
G01*
X1291102Y4609896D01*
X1411102Y5473903D02*
G01*
X1291102Y5473903D01*
M02*
