G04 Layer: BottomLayer*
G04 EasyEDA v6.4.19.4, 2021-06-11T02:13:33+02:00*
G04 afcd8683cfac40e295d78014fa455b8c,92d7176e1a3f4c55b0c7f3235df8e186,10*
G04 Gerber Generator version 0.2*
G04 Scale: 100 percent, Rotated: No, Reflected: No *
G04 Dimensions in millimeters *
G04 leading zeros omitted , absolute positions ,4 integer and 5 decimal *
%FSLAX45Y45*%
%MOMM*%

%ADD14C,0.4000*%
%ADD15C,1.0000*%
%ADD18C,0.6096*%
%ADD19C,0.6000*%
%ADD20C,0.5000*%
%ADD21C,0.7000*%
%ADD50C,1.4986*%
%ADD51R,1.4986X1.4986*%
%ADD52C,1.1500*%

%LPD*%
G36*
X716534Y1600962D02*
G01*
X712622Y1601724D01*
X709320Y1603908D01*
X707136Y1607210D01*
X706374Y1611122D01*
X706374Y2393899D01*
X707136Y2397760D01*
X709320Y2401062D01*
X712622Y2403246D01*
X716534Y2404059D01*
X833831Y2404059D01*
X833831Y2548331D01*
X716534Y2548331D01*
X712622Y2549093D01*
X709320Y2551328D01*
X707136Y2554630D01*
X706374Y2558491D01*
X706374Y2800908D01*
X707136Y2804769D01*
X709320Y2808071D01*
X712622Y2810256D01*
X716534Y2811068D01*
X833831Y2811068D01*
X833831Y2955340D01*
X716534Y2955340D01*
X712622Y2956102D01*
X709320Y2958338D01*
X707136Y2961640D01*
X706374Y2965500D01*
X706374Y3238042D01*
X707085Y3241751D01*
X709117Y3245002D01*
X712165Y3247237D01*
X715873Y3248152D01*
X719632Y3247694D01*
X725322Y3245866D01*
X734314Y3244646D01*
X743407Y3245053D01*
X752246Y3247034D01*
X760577Y3250641D01*
X768146Y3255619D01*
X774700Y3261867D01*
X780034Y3269234D01*
X783996Y3277412D01*
X786384Y3286150D01*
X787196Y3295192D01*
X786384Y3304235D01*
X783996Y3312972D01*
X780034Y3321151D01*
X774700Y3328517D01*
X768146Y3334765D01*
X760577Y3339744D01*
X752246Y3343351D01*
X743407Y3345332D01*
X734314Y3345738D01*
X725322Y3344519D01*
X719632Y3342690D01*
X715873Y3342233D01*
X712165Y3343148D01*
X709117Y3345383D01*
X707085Y3348634D01*
X706374Y3352342D01*
X706374Y5539486D01*
X707136Y5543397D01*
X709320Y5546648D01*
X712622Y5548884D01*
X716534Y5549646D01*
X832053Y5549646D01*
X835914Y5548884D01*
X839216Y5546648D01*
X841451Y5543397D01*
X842213Y5539486D01*
X841451Y5535574D01*
X839216Y5532323D01*
X835253Y5528360D01*
X828141Y5518861D01*
X822502Y5508447D01*
X818337Y5497322D01*
X815797Y5485739D01*
X814984Y5473903D01*
X815797Y5462066D01*
X818337Y5450484D01*
X822502Y5439359D01*
X828141Y5428945D01*
X835253Y5419445D01*
X843635Y5411063D01*
X853135Y5403951D01*
X863549Y5398262D01*
X874674Y5394147D01*
X886256Y5391607D01*
X898448Y5390743D01*
X967740Y5390743D01*
X979932Y5391607D01*
X991514Y5394147D01*
X1002639Y5398262D01*
X1013053Y5403951D01*
X1022553Y5411063D01*
X1030935Y5419445D01*
X1038047Y5428945D01*
X1043686Y5439359D01*
X1047851Y5450484D01*
X1050391Y5462066D01*
X1051204Y5473903D01*
X1050391Y5485739D01*
X1047851Y5497322D01*
X1043686Y5508447D01*
X1038047Y5518861D01*
X1030935Y5528360D01*
X1026972Y5532323D01*
X1024737Y5535574D01*
X1023975Y5539486D01*
X1024737Y5543397D01*
X1026972Y5546648D01*
X1030274Y5548884D01*
X1034135Y5549646D01*
X1225042Y5549646D01*
X1228953Y5548884D01*
X1232255Y5546648D01*
X1234440Y5543397D01*
X1235202Y5539486D01*
X1234440Y5535574D01*
X1232255Y5532323D01*
X1228293Y5528360D01*
X1221181Y5518861D01*
X1215491Y5508447D01*
X1211326Y5497322D01*
X1208836Y5485739D01*
X1207973Y5473903D01*
X1208836Y5462066D01*
X1211326Y5450484D01*
X1215491Y5439359D01*
X1221181Y5428945D01*
X1228293Y5419445D01*
X1236675Y5411063D01*
X1246174Y5403951D01*
X1256588Y5398262D01*
X1262278Y5396128D01*
X1266088Y5393690D01*
X1268374Y5389829D01*
X1268831Y5385358D01*
X1267307Y5381142D01*
X1256131Y5371134D01*
X1249934Y5363464D01*
X1245108Y5354828D01*
X1241856Y5345531D01*
X1240180Y5335828D01*
X1240180Y5325973D01*
X1241856Y5316270D01*
X1245108Y5306974D01*
X1249934Y5298338D01*
X1256131Y5290667D01*
X1263548Y5284165D01*
X1271930Y5278983D01*
X1281074Y5275326D01*
X1290726Y5273243D01*
X1300581Y5272836D01*
X1310335Y5274056D01*
X1319784Y5276951D01*
X1328572Y5281422D01*
X1336497Y5287264D01*
X1343304Y5294376D01*
X1348841Y5302554D01*
X1352905Y5311546D01*
X1355394Y5321096D01*
X1356207Y5330901D01*
X1355394Y5340705D01*
X1352905Y5350256D01*
X1348841Y5359247D01*
X1343304Y5367426D01*
X1337411Y5373573D01*
X1335328Y5376875D01*
X1334617Y5380736D01*
X1335430Y5384596D01*
X1337614Y5387848D01*
X1340916Y5389981D01*
X1344777Y5390743D01*
X1410716Y5390743D01*
X1422908Y5391607D01*
X1434541Y5394147D01*
X1445615Y5398262D01*
X1456029Y5403951D01*
X1465529Y5411063D01*
X1473911Y5419445D01*
X1481023Y5428945D01*
X1486712Y5439359D01*
X1490878Y5450484D01*
X1493367Y5462066D01*
X1494231Y5473903D01*
X1493367Y5485739D01*
X1490878Y5497322D01*
X1486712Y5508447D01*
X1481023Y5518861D01*
X1473911Y5528360D01*
X1469948Y5532323D01*
X1467764Y5535574D01*
X1467002Y5539486D01*
X1467764Y5543397D01*
X1469948Y5546648D01*
X1473250Y5548884D01*
X1477162Y5549646D01*
X3233369Y5549646D01*
X3237484Y5548782D01*
X3240938Y5546242D01*
X3243021Y5542584D01*
X3243427Y5538368D01*
X3240227Y5528919D01*
X3239516Y5522671D01*
X3239516Y5373928D01*
X3240227Y5367680D01*
X3242106Y5362244D01*
X3245154Y5357418D01*
X3249218Y5353354D01*
X3254044Y5350306D01*
X3259480Y5348427D01*
X3265728Y5347716D01*
X3414471Y5347716D01*
X3420719Y5348427D01*
X3426155Y5350306D01*
X3430981Y5353354D01*
X3435045Y5357418D01*
X3438093Y5362244D01*
X3439972Y5367680D01*
X3440684Y5373928D01*
X3440684Y5522671D01*
X3439972Y5528919D01*
X3436772Y5538368D01*
X3437178Y5542584D01*
X3439261Y5546242D01*
X3442715Y5548782D01*
X3446830Y5549646D01*
X3531565Y5549646D01*
X3535679Y5548782D01*
X3539134Y5546293D01*
X3541217Y5542635D01*
X3541674Y5538470D01*
X3540404Y5534456D01*
X3537610Y5531307D01*
X3529177Y5525109D01*
X3519525Y5515762D01*
X3511194Y5505196D01*
X3504336Y5493664D01*
X3499104Y5481269D01*
X3495548Y5468315D01*
X3493770Y5455005D01*
X3493770Y5441594D01*
X3495548Y5428284D01*
X3499104Y5415330D01*
X3504336Y5402935D01*
X3511194Y5391404D01*
X3519525Y5380837D01*
X3529177Y5371490D01*
X3539998Y5363514D01*
X3551783Y5357063D01*
X3564331Y5352237D01*
X3577386Y5349138D01*
X3590747Y5347817D01*
X3604158Y5348224D01*
X3617417Y5350459D01*
X3630218Y5354472D01*
X3642410Y5360111D01*
X3653739Y5367324D01*
X3664000Y5376011D01*
X3673043Y5385968D01*
X3680612Y5397042D01*
X3686657Y5409031D01*
X3691077Y5421731D01*
X3693769Y5434888D01*
X3694684Y5448300D01*
X3693769Y5461711D01*
X3691077Y5474868D01*
X3686657Y5487568D01*
X3680612Y5499557D01*
X3673043Y5510631D01*
X3664000Y5520588D01*
X3653739Y5529275D01*
X3651148Y5530900D01*
X3648100Y5533948D01*
X3646576Y5538012D01*
X3646881Y5542330D01*
X3648913Y5546140D01*
X3652367Y5548731D01*
X3656634Y5549646D01*
X3785565Y5549646D01*
X3789679Y5548782D01*
X3793134Y5546293D01*
X3795217Y5542635D01*
X3795674Y5538470D01*
X3794404Y5534456D01*
X3791610Y5531307D01*
X3783177Y5525109D01*
X3773525Y5515762D01*
X3765194Y5505196D01*
X3758336Y5493664D01*
X3753104Y5481269D01*
X3749548Y5468315D01*
X3747770Y5455005D01*
X3747770Y5441594D01*
X3749548Y5428284D01*
X3753104Y5415330D01*
X3758336Y5402935D01*
X3765194Y5391404D01*
X3773525Y5380837D01*
X3783177Y5371490D01*
X3793998Y5363514D01*
X3805783Y5357063D01*
X3818331Y5352237D01*
X3831386Y5349138D01*
X3844747Y5347817D01*
X3858158Y5348224D01*
X3871417Y5350459D01*
X3884218Y5354472D01*
X3896410Y5360111D01*
X3907739Y5367324D01*
X3918000Y5376011D01*
X3927043Y5385968D01*
X3934612Y5397042D01*
X3940657Y5409031D01*
X3945077Y5421731D01*
X3947769Y5434888D01*
X3948684Y5448300D01*
X3947769Y5461711D01*
X3945077Y5474868D01*
X3940657Y5487568D01*
X3934612Y5499557D01*
X3927043Y5510631D01*
X3918000Y5520588D01*
X3907739Y5529275D01*
X3905148Y5530900D01*
X3902100Y5533948D01*
X3900576Y5538012D01*
X3900881Y5542330D01*
X3902913Y5546140D01*
X3906367Y5548731D01*
X3910634Y5549646D01*
X4039565Y5549646D01*
X4043679Y5548782D01*
X4047134Y5546293D01*
X4049217Y5542635D01*
X4049674Y5538470D01*
X4048404Y5534456D01*
X4045610Y5531307D01*
X4037177Y5525109D01*
X4027525Y5515762D01*
X4019194Y5505196D01*
X4012336Y5493664D01*
X4011676Y5492089D01*
X4058259Y5492089D01*
X4058259Y5539486D01*
X4059072Y5543397D01*
X4061256Y5546648D01*
X4064558Y5548884D01*
X4068470Y5549646D01*
X4135780Y5549646D01*
X4139641Y5548884D01*
X4142943Y5546648D01*
X4145127Y5543397D01*
X4145940Y5539486D01*
X4145940Y5492089D01*
X4192371Y5492089D01*
X4188612Y5499557D01*
X4181043Y5510631D01*
X4172000Y5520588D01*
X4161739Y5529275D01*
X4159148Y5530900D01*
X4156100Y5533948D01*
X4154576Y5538012D01*
X4154881Y5542330D01*
X4156913Y5546140D01*
X4160367Y5548731D01*
X4164634Y5549646D01*
X8444890Y5549646D01*
X8448751Y5548884D01*
X8452053Y5546648D01*
X8454288Y5543397D01*
X8455050Y5539486D01*
X8455050Y2965500D01*
X8454288Y2961640D01*
X8452053Y2958338D01*
X8448751Y2956102D01*
X8444890Y2955340D01*
X7954772Y2955340D01*
X7948472Y2954629D01*
X7943088Y2952750D01*
X7938211Y2949702D01*
X7934198Y2945638D01*
X7931150Y2940812D01*
X7929219Y2935376D01*
X7928559Y2929128D01*
X7928559Y2430272D01*
X7929219Y2423972D01*
X7931150Y2418588D01*
X7934198Y2413711D01*
X7938211Y2409698D01*
X7943088Y2406650D01*
X7948472Y2404719D01*
X7954772Y2404059D01*
X8444890Y2404059D01*
X8448751Y2403246D01*
X8452053Y2401062D01*
X8454288Y2397760D01*
X8455050Y2393899D01*
X8455050Y1611122D01*
X8454288Y1607210D01*
X8452053Y1603908D01*
X8448751Y1601724D01*
X8444890Y1600962D01*
G37*

%LPC*%
G36*
X4161790Y1938274D02*
G01*
X4171492Y1939137D01*
X4180840Y1941626D01*
X4189628Y1945741D01*
X4197553Y1951278D01*
X4204411Y1958136D01*
X4206189Y1960676D01*
X4208983Y1963369D01*
X4212590Y1964842D01*
X4216450Y1964842D01*
X4220057Y1963369D01*
X4222851Y1960676D01*
X4224578Y1958136D01*
X4231436Y1951278D01*
X4239412Y1945741D01*
X4248200Y1941626D01*
X4257548Y1939137D01*
X4267200Y1938274D01*
X4276852Y1939137D01*
X4286199Y1941626D01*
X4294987Y1945741D01*
X4302963Y1951278D01*
X4304487Y1952802D01*
X4307738Y1955038D01*
X4311650Y1955800D01*
X4315561Y1955038D01*
X4318812Y1952802D01*
X4320336Y1951278D01*
X4328312Y1945741D01*
X4337100Y1941626D01*
X4346448Y1939137D01*
X4356100Y1938274D01*
X4365752Y1939137D01*
X4375099Y1941626D01*
X4383887Y1945741D01*
X4385767Y1947062D01*
X4389577Y1948688D01*
X4393641Y1948688D01*
X4397451Y1947062D01*
X4399330Y1945741D01*
X4408119Y1941626D01*
X4417466Y1939137D01*
X4427118Y1938274D01*
X4436770Y1939137D01*
X4446117Y1941626D01*
X4454906Y1945741D01*
X4462881Y1951278D01*
X4469739Y1958136D01*
X4475276Y1966112D01*
X4479391Y1974900D01*
X4481880Y1984248D01*
X4482744Y1993900D01*
X4481880Y2003552D01*
X4479391Y2012899D01*
X4475276Y2021687D01*
X4469739Y2029663D01*
X4462881Y2036521D01*
X4454906Y2042058D01*
X4446117Y2046173D01*
X4436770Y2048662D01*
X4427118Y2049525D01*
X4417466Y2048662D01*
X4408119Y2046173D01*
X4399330Y2042058D01*
X4397451Y2040737D01*
X4393641Y2039112D01*
X4389577Y2039112D01*
X4385767Y2040737D01*
X4383887Y2042058D01*
X4375099Y2046173D01*
X4365752Y2048662D01*
X4356100Y2049525D01*
X4346448Y2048662D01*
X4337100Y2046173D01*
X4328312Y2042058D01*
X4320336Y2036521D01*
X4318812Y2034997D01*
X4315561Y2032762D01*
X4311650Y2032000D01*
X4307738Y2032762D01*
X4304487Y2034997D01*
X4302963Y2036521D01*
X4294987Y2042058D01*
X4286199Y2046173D01*
X4276852Y2048662D01*
X4267200Y2049525D01*
X4257548Y2048662D01*
X4248200Y2046173D01*
X4239412Y2042058D01*
X4231436Y2036521D01*
X4224578Y2029663D01*
X4222851Y2027123D01*
X4220057Y2024430D01*
X4216450Y2022957D01*
X4212590Y2022957D01*
X4208983Y2024430D01*
X4206189Y2027123D01*
X4204411Y2029663D01*
X4197553Y2036521D01*
X4189628Y2042058D01*
X4180840Y2046173D01*
X4171492Y2048662D01*
X4161790Y2049525D01*
X4152137Y2048662D01*
X4142790Y2046173D01*
X4134002Y2042058D01*
X4126077Y2036521D01*
X4119219Y2029663D01*
X4113631Y2021687D01*
X4109567Y2012899D01*
X4107027Y2003552D01*
X4106214Y1993900D01*
X4107027Y1984248D01*
X4109567Y1974900D01*
X4113631Y1966112D01*
X4119219Y1958136D01*
X4126077Y1951278D01*
X4134002Y1945741D01*
X4142790Y1941626D01*
X4152137Y1939137D01*
G37*
G36*
X7823200Y2179574D02*
G01*
X7832852Y2180437D01*
X7842199Y2182926D01*
X7850987Y2187041D01*
X7858963Y2192578D01*
X7865821Y2199436D01*
X7871358Y2207412D01*
X7875473Y2216200D01*
X7877962Y2225548D01*
X7878825Y2235200D01*
X7877962Y2244852D01*
X7875473Y2254199D01*
X7871358Y2262987D01*
X7865821Y2270963D01*
X7858963Y2277821D01*
X7850987Y2283358D01*
X7842199Y2287473D01*
X7832852Y2289962D01*
X7823200Y2290826D01*
X7813548Y2289962D01*
X7804200Y2287473D01*
X7795412Y2283358D01*
X7787436Y2277821D01*
X7780578Y2270963D01*
X7775041Y2262987D01*
X7770926Y2254199D01*
X7768437Y2244852D01*
X7767574Y2235200D01*
X7768437Y2225548D01*
X7770926Y2216200D01*
X7775041Y2207412D01*
X7780578Y2199436D01*
X7787436Y2192578D01*
X7795412Y2187041D01*
X7804200Y2182926D01*
X7813548Y2180437D01*
G37*
G36*
X1096568Y2404059D02*
G01*
X1214628Y2404059D01*
X1220876Y2404770D01*
X1226312Y2406650D01*
X1231138Y2409698D01*
X1235202Y2413762D01*
X1238250Y2418588D01*
X1240129Y2424023D01*
X1240840Y2430272D01*
X1240840Y2548331D01*
X1096568Y2548331D01*
G37*
G36*
X2870200Y2408174D02*
G01*
X2879852Y2409037D01*
X2889199Y2411526D01*
X2897987Y2415641D01*
X2905963Y2421178D01*
X2912821Y2428036D01*
X2918358Y2436012D01*
X2922473Y2444800D01*
X2924962Y2454148D01*
X2925826Y2463800D01*
X2924962Y2473452D01*
X2922473Y2482799D01*
X2918358Y2491587D01*
X2912821Y2499563D01*
X2905963Y2506421D01*
X2897987Y2511958D01*
X2889199Y2516073D01*
X2879852Y2518562D01*
X2870200Y2519426D01*
X2860548Y2518562D01*
X2851200Y2516073D01*
X2842412Y2511958D01*
X2834436Y2506421D01*
X2827578Y2499563D01*
X2822041Y2491587D01*
X2817926Y2482799D01*
X2815437Y2473452D01*
X2814574Y2463800D01*
X2815437Y2454148D01*
X2817926Y2444800D01*
X2822041Y2436012D01*
X2827578Y2428036D01*
X2834436Y2421178D01*
X2842412Y2415641D01*
X2851200Y2411526D01*
X2860548Y2409037D01*
G37*
G36*
X2623870Y2416098D02*
G01*
X2633929Y2416098D01*
X2643784Y2417724D01*
X2653233Y2420975D01*
X2662072Y2425750D01*
X2669946Y2431897D01*
X2676753Y2439263D01*
X2682189Y2447645D01*
X2686253Y2456840D01*
X2688691Y2466543D01*
X2689504Y2476500D01*
X2688691Y2486456D01*
X2686253Y2496159D01*
X2682189Y2505354D01*
X2676753Y2513736D01*
X2669946Y2521102D01*
X2662072Y2527249D01*
X2653233Y2532024D01*
X2643784Y2535275D01*
X2633929Y2536901D01*
X2623870Y2536901D01*
X2614015Y2535275D01*
X2604566Y2532024D01*
X2595727Y2527249D01*
X2587853Y2521102D01*
X2581046Y2513736D01*
X2575610Y2505354D01*
X2571546Y2496159D01*
X2569108Y2486456D01*
X2568295Y2476500D01*
X2569108Y2466543D01*
X2571546Y2456840D01*
X2575610Y2447645D01*
X2581046Y2439263D01*
X2587853Y2431897D01*
X2595727Y2425750D01*
X2604566Y2420975D01*
X2614015Y2417724D01*
G37*
G36*
X7378700Y2484374D02*
G01*
X7388352Y2485237D01*
X7397699Y2487726D01*
X7406487Y2491841D01*
X7414463Y2497378D01*
X7421321Y2504236D01*
X7426858Y2512212D01*
X7430973Y2521000D01*
X7433462Y2530348D01*
X7434325Y2540000D01*
X7433462Y2549652D01*
X7430973Y2558999D01*
X7426858Y2567787D01*
X7421321Y2575763D01*
X7414463Y2582621D01*
X7406487Y2588158D01*
X7397699Y2592273D01*
X7388352Y2594762D01*
X7378700Y2595626D01*
X7369048Y2594762D01*
X7359700Y2592273D01*
X7350912Y2588158D01*
X7342936Y2582621D01*
X7336078Y2575763D01*
X7330541Y2567787D01*
X7326426Y2558999D01*
X7323937Y2549652D01*
X7323074Y2540000D01*
X7323937Y2530348D01*
X7326426Y2521000D01*
X7330541Y2512212D01*
X7336078Y2504236D01*
X7342936Y2497378D01*
X7350912Y2491841D01*
X7359700Y2487726D01*
X7369048Y2485237D01*
G37*
G36*
X7213600Y2497074D02*
G01*
X7223252Y2497937D01*
X7232599Y2500426D01*
X7241387Y2504541D01*
X7249363Y2510078D01*
X7256221Y2516936D01*
X7261758Y2524912D01*
X7265873Y2533700D01*
X7268362Y2543048D01*
X7269225Y2552700D01*
X7268362Y2562352D01*
X7265873Y2571699D01*
X7261758Y2580487D01*
X7256221Y2588463D01*
X7249363Y2595321D01*
X7241387Y2600858D01*
X7232599Y2604973D01*
X7223252Y2607462D01*
X7213600Y2608326D01*
X7203948Y2607462D01*
X7194600Y2604973D01*
X7185812Y2600858D01*
X7177836Y2595321D01*
X7170978Y2588463D01*
X7165441Y2580487D01*
X7161326Y2571699D01*
X7158837Y2562352D01*
X7157974Y2552700D01*
X7158837Y2543048D01*
X7161326Y2533700D01*
X7165441Y2524912D01*
X7170978Y2516936D01*
X7177836Y2510078D01*
X7185812Y2504541D01*
X7194600Y2500426D01*
X7203948Y2497937D01*
G37*
G36*
X1524000Y2611374D02*
G01*
X1533652Y2612237D01*
X1542999Y2614726D01*
X1551787Y2618841D01*
X1559763Y2624378D01*
X1566621Y2631236D01*
X1572158Y2639212D01*
X1576273Y2648000D01*
X1578762Y2657348D01*
X1579626Y2667000D01*
X1578762Y2676652D01*
X1576273Y2685999D01*
X1572158Y2694787D01*
X1566621Y2702763D01*
X1559763Y2709621D01*
X1551787Y2715158D01*
X1542999Y2719273D01*
X1533652Y2721762D01*
X1524000Y2722626D01*
X1514348Y2721762D01*
X1505000Y2719273D01*
X1496212Y2715158D01*
X1488236Y2709621D01*
X1481378Y2702763D01*
X1475841Y2694787D01*
X1471726Y2685999D01*
X1469237Y2676652D01*
X1468374Y2667000D01*
X1469237Y2657348D01*
X1471726Y2648000D01*
X1475841Y2639212D01*
X1481378Y2631236D01*
X1488236Y2624378D01*
X1496212Y2618841D01*
X1505000Y2614726D01*
X1514348Y2612237D01*
G37*
G36*
X1096568Y2811068D02*
G01*
X1240840Y2811068D01*
X1240840Y2929128D01*
X1240129Y2935376D01*
X1238250Y2940812D01*
X1235202Y2945638D01*
X1231138Y2949702D01*
X1226312Y2952750D01*
X1220876Y2954629D01*
X1214628Y2955340D01*
X1096568Y2955340D01*
G37*
G36*
X7456576Y2828950D02*
G01*
X7466228Y2829814D01*
X7475575Y2832303D01*
X7484364Y2836418D01*
X7492339Y2841955D01*
X7499197Y2848813D01*
X7504734Y2856788D01*
X7508849Y2865577D01*
X7511338Y2874924D01*
X7512202Y2884576D01*
X7511338Y2894228D01*
X7508849Y2903575D01*
X7504734Y2912364D01*
X7499197Y2920339D01*
X7492339Y2927197D01*
X7484364Y2932734D01*
X7475575Y2936849D01*
X7466228Y2939338D01*
X7456576Y2940202D01*
X7446924Y2939338D01*
X7437577Y2936849D01*
X7428788Y2932734D01*
X7420813Y2927197D01*
X7413955Y2920339D01*
X7408418Y2912364D01*
X7404303Y2903575D01*
X7401814Y2894228D01*
X7400950Y2884576D01*
X7401814Y2874924D01*
X7404303Y2865577D01*
X7408418Y2856788D01*
X7413955Y2848813D01*
X7420813Y2841955D01*
X7428788Y2836418D01*
X7437577Y2832303D01*
X7446924Y2829814D01*
G37*
G36*
X6172200Y2839516D02*
G01*
X6181953Y2840380D01*
X6191402Y2842869D01*
X6200241Y2847035D01*
X6208268Y2852623D01*
X6215176Y2859532D01*
X6220764Y2867558D01*
X6224930Y2876397D01*
X6227419Y2885846D01*
X6228283Y2895600D01*
X6227419Y2905353D01*
X6224930Y2914802D01*
X6220764Y2923641D01*
X6215176Y2931668D01*
X6208268Y2938576D01*
X6200241Y2944164D01*
X6198260Y2945130D01*
X6194907Y2947670D01*
X6192824Y2951327D01*
X6192469Y2955544D01*
X6193840Y2959557D01*
X6196736Y2962656D01*
X6202832Y2966923D01*
X6209792Y2973832D01*
X6215380Y2981858D01*
X6219494Y2990697D01*
X6222034Y3000146D01*
X6222898Y3009900D01*
X6222034Y3019653D01*
X6219494Y3029102D01*
X6215380Y3037941D01*
X6209792Y3045968D01*
X6202832Y3052876D01*
X6194856Y3058464D01*
X6185966Y3062630D01*
X6176518Y3065119D01*
X6166815Y3065983D01*
X6157061Y3065119D01*
X6147612Y3062630D01*
X6138773Y3058464D01*
X6130747Y3052876D01*
X6123838Y3045968D01*
X6118199Y3037941D01*
X6114084Y3029102D01*
X6111544Y3019653D01*
X6110681Y3009900D01*
X6111544Y3000146D01*
X6114084Y2990697D01*
X6118199Y2981858D01*
X6123838Y2973832D01*
X6130747Y2966923D01*
X6138773Y2961335D01*
X6140754Y2960370D01*
X6144107Y2957830D01*
X6146139Y2954172D01*
X6146546Y2949956D01*
X6145174Y2945942D01*
X6142278Y2942844D01*
X6136132Y2938576D01*
X6129223Y2931668D01*
X6123635Y2923641D01*
X6119469Y2914802D01*
X6116980Y2905353D01*
X6116116Y2895600D01*
X6116980Y2885846D01*
X6119469Y2876397D01*
X6123635Y2867558D01*
X6129223Y2859532D01*
X6136132Y2852623D01*
X6144158Y2847035D01*
X6152997Y2842869D01*
X6162446Y2840380D01*
G37*
G36*
X6832600Y2992374D02*
G01*
X6842252Y2993237D01*
X6851599Y2995726D01*
X6860387Y2999841D01*
X6868363Y3005378D01*
X6875221Y3012236D01*
X6880758Y3020212D01*
X6884873Y3029000D01*
X6887362Y3038348D01*
X6888225Y3048000D01*
X6887362Y3057652D01*
X6884873Y3066999D01*
X6880758Y3075787D01*
X6875221Y3083763D01*
X6868363Y3090621D01*
X6860387Y3096158D01*
X6851599Y3100273D01*
X6842252Y3102762D01*
X6832600Y3103626D01*
X6822948Y3102762D01*
X6813600Y3100273D01*
X6804812Y3096158D01*
X6796836Y3090621D01*
X6789978Y3083763D01*
X6784441Y3075787D01*
X6780326Y3066999D01*
X6777837Y3057652D01*
X6776974Y3048000D01*
X6777837Y3038348D01*
X6780326Y3029000D01*
X6784441Y3020212D01*
X6789978Y3012236D01*
X6796836Y3005378D01*
X6804812Y2999841D01*
X6813600Y2995726D01*
X6822948Y2993237D01*
G37*
G36*
X7683500Y2992374D02*
G01*
X7693152Y2993237D01*
X7702499Y2995726D01*
X7711287Y2999841D01*
X7719263Y3005378D01*
X7726121Y3012236D01*
X7731658Y3020212D01*
X7735773Y3029000D01*
X7738262Y3038348D01*
X7739125Y3048000D01*
X7738262Y3057652D01*
X7735773Y3066999D01*
X7731658Y3075787D01*
X7726121Y3083763D01*
X7719263Y3090621D01*
X7711287Y3096158D01*
X7702499Y3100273D01*
X7693152Y3102762D01*
X7683500Y3103626D01*
X7673848Y3102762D01*
X7664500Y3100273D01*
X7655712Y3096158D01*
X7647736Y3090621D01*
X7640878Y3083763D01*
X7635341Y3075787D01*
X7631226Y3066999D01*
X7628737Y3057652D01*
X7627874Y3048000D01*
X7628737Y3038348D01*
X7631226Y3029000D01*
X7635341Y3020212D01*
X7640878Y3012236D01*
X7647736Y3005378D01*
X7655712Y2999841D01*
X7664500Y2995726D01*
X7673848Y2993237D01*
G37*
G36*
X2667000Y3005074D02*
G01*
X2676652Y3005937D01*
X2685999Y3008426D01*
X2694787Y3012541D01*
X2702763Y3018078D01*
X2709621Y3024936D01*
X2715158Y3032912D01*
X2719273Y3041700D01*
X2721762Y3051048D01*
X2722626Y3060700D01*
X2721762Y3070352D01*
X2719273Y3079699D01*
X2715158Y3088487D01*
X2709621Y3096463D01*
X2702763Y3103321D01*
X2694787Y3108858D01*
X2685999Y3112973D01*
X2676652Y3115462D01*
X2667000Y3116326D01*
X2658821Y3115614D01*
X2655011Y3115970D01*
X2651607Y3117748D01*
X2649118Y3120644D01*
X2647848Y3124250D01*
X2648051Y3128060D01*
X2649626Y3131566D01*
X2651658Y3134512D01*
X2655773Y3143300D01*
X2658262Y3152648D01*
X2659126Y3162300D01*
X2658262Y3171952D01*
X2655773Y3181299D01*
X2651658Y3190087D01*
X2646121Y3198063D01*
X2639263Y3204921D01*
X2631287Y3210458D01*
X2622499Y3214573D01*
X2613152Y3217062D01*
X2603500Y3217926D01*
X2593848Y3217062D01*
X2584500Y3214573D01*
X2575712Y3210458D01*
X2567736Y3204921D01*
X2560878Y3198063D01*
X2555341Y3190087D01*
X2551226Y3181299D01*
X2548737Y3171952D01*
X2547874Y3162300D01*
X2548737Y3152648D01*
X2551226Y3143300D01*
X2555341Y3134512D01*
X2560878Y3126536D01*
X2567736Y3119678D01*
X2575712Y3114141D01*
X2584500Y3110026D01*
X2593848Y3107537D01*
X2603500Y3106674D01*
X2611678Y3107385D01*
X2615488Y3107029D01*
X2618892Y3105251D01*
X2621381Y3102356D01*
X2622651Y3098749D01*
X2622448Y3094939D01*
X2620873Y3091434D01*
X2618841Y3088487D01*
X2614726Y3079699D01*
X2612237Y3070352D01*
X2611374Y3060700D01*
X2612237Y3051048D01*
X2614726Y3041700D01*
X2618841Y3032912D01*
X2624378Y3024936D01*
X2631236Y3018078D01*
X2639212Y3012541D01*
X2648000Y3008426D01*
X2657348Y3005937D01*
G37*
G36*
X3182670Y3051098D02*
G01*
X3192729Y3051098D01*
X3202584Y3052724D01*
X3212033Y3055975D01*
X3220872Y3060750D01*
X3228746Y3066897D01*
X3235553Y3074263D01*
X3240989Y3082645D01*
X3245053Y3091840D01*
X3247491Y3101543D01*
X3248304Y3111500D01*
X3247491Y3121456D01*
X3245053Y3131159D01*
X3240989Y3140354D01*
X3235553Y3148736D01*
X3228746Y3156102D01*
X3220872Y3162249D01*
X3212033Y3167024D01*
X3202584Y3170275D01*
X3192729Y3171901D01*
X3182670Y3171901D01*
X3172815Y3170275D01*
X3163366Y3167024D01*
X3154527Y3162249D01*
X3146653Y3156102D01*
X3139846Y3148736D01*
X3134410Y3140354D01*
X3130346Y3131159D01*
X3127908Y3121456D01*
X3127095Y3111500D01*
X3127908Y3101543D01*
X3130346Y3091840D01*
X3134410Y3082645D01*
X3139846Y3074263D01*
X3146653Y3066897D01*
X3154527Y3060750D01*
X3163366Y3055975D01*
X3172815Y3052724D01*
G37*
G36*
X7289800Y3055874D02*
G01*
X7299452Y3056737D01*
X7308799Y3059226D01*
X7317587Y3063341D01*
X7325563Y3068878D01*
X7332421Y3075736D01*
X7337958Y3083712D01*
X7342073Y3092500D01*
X7344562Y3101848D01*
X7345425Y3111500D01*
X7344562Y3121152D01*
X7342073Y3130499D01*
X7337958Y3139287D01*
X7332421Y3147263D01*
X7325563Y3154121D01*
X7317587Y3159658D01*
X7308799Y3163773D01*
X7299452Y3166262D01*
X7289800Y3167126D01*
X7280148Y3166262D01*
X7270800Y3163773D01*
X7262012Y3159658D01*
X7254036Y3154121D01*
X7247178Y3147263D01*
X7241641Y3139287D01*
X7237526Y3130499D01*
X7235037Y3121152D01*
X7234174Y3111500D01*
X7235037Y3101848D01*
X7237526Y3092500D01*
X7241641Y3083712D01*
X7247178Y3075736D01*
X7254036Y3068878D01*
X7262012Y3063341D01*
X7270800Y3059226D01*
X7280148Y3056737D01*
G37*
G36*
X7708900Y3182874D02*
G01*
X7718552Y3183737D01*
X7727899Y3186226D01*
X7736687Y3190341D01*
X7744663Y3195878D01*
X7751521Y3202736D01*
X7757058Y3210712D01*
X7761173Y3219500D01*
X7763662Y3228848D01*
X7764525Y3238500D01*
X7763662Y3248152D01*
X7761173Y3257499D01*
X7757058Y3266287D01*
X7751521Y3274263D01*
X7744663Y3281121D01*
X7736687Y3286658D01*
X7727899Y3290773D01*
X7718552Y3293262D01*
X7708900Y3294126D01*
X7699248Y3293262D01*
X7689900Y3290773D01*
X7681112Y3286658D01*
X7673136Y3281121D01*
X7666278Y3274263D01*
X7660741Y3266287D01*
X7656626Y3257499D01*
X7654137Y3248152D01*
X7653274Y3238500D01*
X7654137Y3228848D01*
X7656626Y3219500D01*
X7660741Y3210712D01*
X7666278Y3202736D01*
X7673136Y3195878D01*
X7681112Y3190341D01*
X7689900Y3186226D01*
X7699248Y3183737D01*
G37*
G36*
X2857500Y3195574D02*
G01*
X2867152Y3196437D01*
X2876499Y3198926D01*
X2885287Y3203041D01*
X2893263Y3208578D01*
X2900121Y3215436D01*
X2905658Y3223412D01*
X2909773Y3232200D01*
X2912262Y3241548D01*
X2913126Y3251200D01*
X2912262Y3260852D01*
X2909773Y3270199D01*
X2905658Y3278987D01*
X2900121Y3286963D01*
X2893263Y3293821D01*
X2885287Y3299358D01*
X2876499Y3303473D01*
X2867152Y3305962D01*
X2857500Y3306826D01*
X2847848Y3305962D01*
X2838500Y3303473D01*
X2829712Y3299358D01*
X2821736Y3293821D01*
X2814878Y3286963D01*
X2809341Y3278987D01*
X2805226Y3270199D01*
X2802737Y3260852D01*
X2801874Y3251200D01*
X2802737Y3241548D01*
X2805226Y3232200D01*
X2809341Y3223412D01*
X2814878Y3215436D01*
X2821736Y3208578D01*
X2829712Y3203041D01*
X2838500Y3198926D01*
X2847848Y3196437D01*
G37*
G36*
X6192774Y3284474D02*
G01*
X6202426Y3285337D01*
X6211773Y3287826D01*
X6220561Y3291941D01*
X6228537Y3297478D01*
X6235395Y3304336D01*
X6240932Y3312312D01*
X6245047Y3321100D01*
X6247536Y3330448D01*
X6248400Y3340100D01*
X6247536Y3349751D01*
X6245047Y3359099D01*
X6240932Y3367887D01*
X6235395Y3375863D01*
X6228537Y3382721D01*
X6220561Y3388258D01*
X6211773Y3392373D01*
X6202426Y3394862D01*
X6192774Y3395726D01*
X6183122Y3394862D01*
X6173774Y3392373D01*
X6164986Y3388258D01*
X6157010Y3382721D01*
X6150152Y3375863D01*
X6144615Y3367887D01*
X6140500Y3359099D01*
X6138011Y3349751D01*
X6137148Y3340100D01*
X6138011Y3330448D01*
X6140500Y3321100D01*
X6144615Y3312312D01*
X6150152Y3304336D01*
X6157010Y3297478D01*
X6164986Y3291941D01*
X6173774Y3287826D01*
X6183122Y3285337D01*
G37*
G36*
X1905000Y3335274D02*
G01*
X1914652Y3336137D01*
X1923999Y3338626D01*
X1932787Y3342741D01*
X1940763Y3348278D01*
X1947621Y3355136D01*
X1953158Y3363112D01*
X1957273Y3371900D01*
X1959762Y3381248D01*
X1960625Y3390900D01*
X1959762Y3400551D01*
X1957273Y3409899D01*
X1953158Y3418687D01*
X1947621Y3426663D01*
X1940763Y3433521D01*
X1932787Y3439058D01*
X1923999Y3443173D01*
X1914652Y3445662D01*
X1905000Y3446526D01*
X1895348Y3445662D01*
X1886000Y3443173D01*
X1877212Y3439058D01*
X1869236Y3433521D01*
X1862378Y3426663D01*
X1856841Y3418687D01*
X1852726Y3409899D01*
X1850237Y3400551D01*
X1849374Y3390900D01*
X1850237Y3381248D01*
X1852726Y3371900D01*
X1856841Y3363112D01*
X1862378Y3355136D01*
X1869236Y3348278D01*
X1877212Y3342741D01*
X1886000Y3338626D01*
X1895348Y3336137D01*
G37*
G36*
X2527300Y3347974D02*
G01*
X2536952Y3348837D01*
X2546299Y3351326D01*
X2555087Y3355441D01*
X2563063Y3360978D01*
X2569921Y3367836D01*
X2575458Y3375812D01*
X2579573Y3384600D01*
X2582062Y3393948D01*
X2582926Y3403600D01*
X2582062Y3413251D01*
X2579573Y3422599D01*
X2575458Y3431387D01*
X2569921Y3439363D01*
X2563063Y3446221D01*
X2555087Y3451758D01*
X2546299Y3455873D01*
X2536952Y3458362D01*
X2527300Y3459226D01*
X2517648Y3458362D01*
X2508300Y3455873D01*
X2499512Y3451758D01*
X2491536Y3446221D01*
X2484678Y3439363D01*
X2479141Y3431387D01*
X2475026Y3422599D01*
X2472537Y3413251D01*
X2471674Y3403600D01*
X2472537Y3393948D01*
X2475026Y3384600D01*
X2479141Y3375812D01*
X2484678Y3367836D01*
X2491536Y3360978D01*
X2499512Y3355441D01*
X2508300Y3351326D01*
X2517648Y3348837D01*
G37*
G36*
X2921000Y3373374D02*
G01*
X2930652Y3374237D01*
X2939999Y3376726D01*
X2948787Y3380841D01*
X2956763Y3386378D01*
X2963621Y3393236D01*
X2969158Y3401212D01*
X2973273Y3410000D01*
X2975762Y3419348D01*
X2976626Y3429000D01*
X2975762Y3438651D01*
X2973273Y3447999D01*
X2969158Y3456787D01*
X2963621Y3464763D01*
X2956763Y3471621D01*
X2948787Y3477158D01*
X2939999Y3481273D01*
X2930652Y3483762D01*
X2921000Y3484626D01*
X2911348Y3483762D01*
X2902000Y3481273D01*
X2893212Y3477158D01*
X2885236Y3471621D01*
X2878378Y3464763D01*
X2872841Y3456787D01*
X2868726Y3447999D01*
X2866237Y3438651D01*
X2865374Y3429000D01*
X2866237Y3419348D01*
X2868726Y3410000D01*
X2872841Y3401212D01*
X2878378Y3393236D01*
X2885236Y3386378D01*
X2893212Y3380841D01*
X2902000Y3376726D01*
X2911348Y3374237D01*
G37*
G36*
X6261100Y3436874D02*
G01*
X6270752Y3437737D01*
X6280099Y3440226D01*
X6288887Y3444341D01*
X6296863Y3449878D01*
X6303721Y3456736D01*
X6309258Y3464712D01*
X6313373Y3473500D01*
X6315862Y3482848D01*
X6316726Y3492500D01*
X6315862Y3502151D01*
X6313373Y3511499D01*
X6309258Y3520287D01*
X6303721Y3528263D01*
X6296863Y3535121D01*
X6288887Y3540658D01*
X6280099Y3544773D01*
X6270752Y3547262D01*
X6261100Y3548126D01*
X6251448Y3547262D01*
X6242100Y3544773D01*
X6233312Y3540658D01*
X6225336Y3535121D01*
X6218478Y3528263D01*
X6212941Y3520287D01*
X6208826Y3511499D01*
X6206337Y3502151D01*
X6205474Y3492500D01*
X6206337Y3482848D01*
X6208826Y3473500D01*
X6212941Y3464712D01*
X6218478Y3456736D01*
X6225336Y3449878D01*
X6233312Y3444341D01*
X6242100Y3440226D01*
X6251448Y3437737D01*
G37*
G36*
X5295900Y3462274D02*
G01*
X5305552Y3463137D01*
X5314899Y3465626D01*
X5323687Y3469741D01*
X5331663Y3475278D01*
X5338521Y3482136D01*
X5344058Y3490112D01*
X5348173Y3498900D01*
X5349849Y3505098D01*
X5351526Y3508603D01*
X5354421Y3511194D01*
X5358028Y3512515D01*
X5361940Y3512362D01*
X5365445Y3510787D01*
X5369712Y3507841D01*
X5378500Y3503726D01*
X5387848Y3501237D01*
X5397500Y3500374D01*
X5407152Y3501237D01*
X5416499Y3503726D01*
X5425287Y3507841D01*
X5433263Y3513378D01*
X5440121Y3520236D01*
X5445658Y3528212D01*
X5449773Y3537000D01*
X5452262Y3546348D01*
X5453126Y3556000D01*
X5452262Y3565651D01*
X5449773Y3574999D01*
X5445658Y3583787D01*
X5440121Y3591763D01*
X5433263Y3598621D01*
X5425287Y3604158D01*
X5416499Y3608273D01*
X5407152Y3610762D01*
X5397500Y3611626D01*
X5387848Y3610762D01*
X5378500Y3608273D01*
X5369712Y3604158D01*
X5361736Y3598621D01*
X5354878Y3591763D01*
X5349341Y3583787D01*
X5345226Y3574999D01*
X5343550Y3568801D01*
X5341874Y3565296D01*
X5338978Y3562705D01*
X5335371Y3561384D01*
X5331460Y3561537D01*
X5327954Y3563112D01*
X5323687Y3566058D01*
X5314899Y3570173D01*
X5305552Y3572662D01*
X5295900Y3573526D01*
X5286248Y3572662D01*
X5276900Y3570173D01*
X5268112Y3566058D01*
X5260136Y3560521D01*
X5253278Y3553663D01*
X5247741Y3545687D01*
X5243626Y3536899D01*
X5241137Y3527551D01*
X5240274Y3517900D01*
X5241137Y3508248D01*
X5243626Y3498900D01*
X5247741Y3490112D01*
X5253278Y3482136D01*
X5260136Y3475278D01*
X5268112Y3469741D01*
X5276900Y3465626D01*
X5286248Y3463137D01*
G37*
G36*
X4813300Y3525774D02*
G01*
X4822952Y3526637D01*
X4832299Y3529126D01*
X4841087Y3533241D01*
X4849063Y3538778D01*
X4855921Y3545636D01*
X4861458Y3553612D01*
X4865573Y3562400D01*
X4868062Y3571748D01*
X4868926Y3581400D01*
X4868062Y3591051D01*
X4865573Y3600399D01*
X4861458Y3609187D01*
X4855921Y3617163D01*
X4849063Y3624021D01*
X4841087Y3629558D01*
X4832299Y3633673D01*
X4822952Y3636162D01*
X4813300Y3637026D01*
X4803648Y3636162D01*
X4794300Y3633673D01*
X4785512Y3629558D01*
X4777536Y3624021D01*
X4770678Y3617163D01*
X4765141Y3609187D01*
X4761026Y3600399D01*
X4758537Y3591051D01*
X4757674Y3581400D01*
X4758537Y3571748D01*
X4761026Y3562400D01*
X4765141Y3553612D01*
X4770678Y3545636D01*
X4777536Y3538778D01*
X4785512Y3533241D01*
X4794300Y3529126D01*
X4803648Y3526637D01*
G37*
G36*
X6997700Y3589274D02*
G01*
X7007352Y3590137D01*
X7016699Y3592626D01*
X7025487Y3596741D01*
X7033463Y3602278D01*
X7040321Y3609136D01*
X7045858Y3617112D01*
X7048804Y3623462D01*
X7051497Y3626916D01*
X7055408Y3628948D01*
X7059777Y3629151D01*
X7063841Y3627475D01*
X7071512Y3622141D01*
X7080300Y3618026D01*
X7089648Y3615537D01*
X7099300Y3614674D01*
X7108952Y3615537D01*
X7118299Y3618026D01*
X7127087Y3622141D01*
X7135063Y3627678D01*
X7141921Y3634536D01*
X7146950Y3641750D01*
X7150201Y3644696D01*
X7154367Y3646017D01*
X7158736Y3645458D01*
X7162444Y3643122D01*
X7165136Y3640378D01*
X7173112Y3634841D01*
X7181900Y3630726D01*
X7191248Y3628237D01*
X7200900Y3627374D01*
X7210552Y3628237D01*
X7219899Y3630726D01*
X7228687Y3634841D01*
X7236663Y3640378D01*
X7246772Y3650538D01*
X7250430Y3651961D01*
X7254392Y3651910D01*
X7258050Y3650284D01*
X7262012Y3647541D01*
X7270800Y3643426D01*
X7280148Y3640937D01*
X7289800Y3640074D01*
X7299452Y3640937D01*
X7309002Y3643477D01*
X7313066Y3643731D01*
X7316927Y3642309D01*
X7319924Y3639515D01*
X7323378Y3634536D01*
X7330236Y3627678D01*
X7338212Y3622141D01*
X7347000Y3618026D01*
X7356348Y3615537D01*
X7366000Y3614674D01*
X7375652Y3615537D01*
X7384999Y3618026D01*
X7393787Y3622141D01*
X7401763Y3627678D01*
X7408621Y3634536D01*
X7414158Y3642512D01*
X7418273Y3651300D01*
X7420762Y3660648D01*
X7421625Y3670300D01*
X7420762Y3679951D01*
X7418273Y3689299D01*
X7414158Y3698087D01*
X7408621Y3706063D01*
X7401763Y3712921D01*
X7393787Y3718458D01*
X7384999Y3722573D01*
X7375652Y3725062D01*
X7366000Y3725926D01*
X7356348Y3725062D01*
X7346797Y3722522D01*
X7342733Y3722268D01*
X7338872Y3723690D01*
X7335875Y3726484D01*
X7332421Y3731463D01*
X7325563Y3738321D01*
X7317587Y3743858D01*
X7308799Y3747973D01*
X7299452Y3750462D01*
X7289800Y3751326D01*
X7280148Y3750462D01*
X7270800Y3747973D01*
X7262012Y3743858D01*
X7254036Y3738321D01*
X7243927Y3728161D01*
X7240270Y3726738D01*
X7236307Y3726789D01*
X7232650Y3728415D01*
X7228687Y3731158D01*
X7219899Y3735273D01*
X7210552Y3737762D01*
X7200900Y3738626D01*
X7191248Y3737762D01*
X7181900Y3735273D01*
X7173112Y3731158D01*
X7165136Y3725621D01*
X7158278Y3718763D01*
X7153249Y3711549D01*
X7149998Y3708603D01*
X7145832Y3707282D01*
X7141464Y3707841D01*
X7137755Y3710178D01*
X7135063Y3712921D01*
X7127087Y3718458D01*
X7118299Y3722573D01*
X7108952Y3725062D01*
X7099300Y3725926D01*
X7089648Y3725062D01*
X7080300Y3722573D01*
X7071512Y3718458D01*
X7063536Y3712921D01*
X7056678Y3706063D01*
X7051141Y3698087D01*
X7048195Y3691737D01*
X7045502Y3688283D01*
X7041591Y3686251D01*
X7037222Y3686048D01*
X7033158Y3687724D01*
X7025487Y3693058D01*
X7016699Y3697173D01*
X7007352Y3699662D01*
X6997700Y3700526D01*
X6988048Y3699662D01*
X6978700Y3697173D01*
X6969912Y3693058D01*
X6961936Y3687521D01*
X6955078Y3680663D01*
X6949541Y3672687D01*
X6945426Y3663899D01*
X6942937Y3654551D01*
X6942074Y3644900D01*
X6942937Y3635248D01*
X6945426Y3625900D01*
X6949541Y3617112D01*
X6955078Y3609136D01*
X6961936Y3602278D01*
X6969912Y3596741D01*
X6978700Y3592626D01*
X6988048Y3590137D01*
G37*
G36*
X5956300Y3627374D02*
G01*
X5965952Y3628237D01*
X5975299Y3630726D01*
X5984087Y3634841D01*
X5992063Y3640378D01*
X5998921Y3647236D01*
X6004458Y3655212D01*
X6008573Y3664000D01*
X6011062Y3673348D01*
X6011926Y3683000D01*
X6011062Y3692651D01*
X6008573Y3701999D01*
X6004458Y3710787D01*
X5998921Y3718763D01*
X5992063Y3725621D01*
X5984087Y3731158D01*
X5975299Y3735273D01*
X5965952Y3737762D01*
X5956300Y3738626D01*
X5946648Y3737762D01*
X5937300Y3735273D01*
X5928512Y3731158D01*
X5920536Y3725621D01*
X5913678Y3718763D01*
X5908141Y3710787D01*
X5904026Y3701999D01*
X5901537Y3692651D01*
X5900674Y3683000D01*
X5901537Y3673348D01*
X5904026Y3664000D01*
X5908141Y3655212D01*
X5913678Y3647236D01*
X5920536Y3640378D01*
X5928512Y3634841D01*
X5937300Y3630726D01*
X5946648Y3628237D01*
G37*
G36*
X7632700Y3678174D02*
G01*
X7642352Y3679037D01*
X7651699Y3681526D01*
X7660487Y3685641D01*
X7668463Y3691178D01*
X7675321Y3698036D01*
X7680858Y3706012D01*
X7684973Y3714800D01*
X7687462Y3724148D01*
X7688325Y3733800D01*
X7687462Y3743451D01*
X7684973Y3752799D01*
X7680858Y3761587D01*
X7675321Y3769563D01*
X7668463Y3776421D01*
X7660487Y3781958D01*
X7651699Y3786073D01*
X7642352Y3788562D01*
X7632700Y3789426D01*
X7623048Y3788562D01*
X7613700Y3786073D01*
X7604912Y3781958D01*
X7596936Y3776421D01*
X7590078Y3769563D01*
X7584541Y3761587D01*
X7580426Y3752799D01*
X7577937Y3743451D01*
X7577074Y3733800D01*
X7577937Y3724148D01*
X7580426Y3714800D01*
X7584541Y3706012D01*
X7590078Y3698036D01*
X7596936Y3691178D01*
X7604912Y3685641D01*
X7613700Y3681526D01*
X7623048Y3679037D01*
G37*
G36*
X1955800Y3690874D02*
G01*
X1965452Y3691737D01*
X1974799Y3694226D01*
X1983587Y3698341D01*
X1991563Y3703878D01*
X1998421Y3710736D01*
X2003958Y3718712D01*
X2008073Y3727500D01*
X2010562Y3736848D01*
X2011425Y3746500D01*
X2010562Y3756151D01*
X2008073Y3765499D01*
X2003958Y3774287D01*
X1998421Y3782263D01*
X1991563Y3789121D01*
X1983587Y3794658D01*
X1974799Y3798773D01*
X1965452Y3801262D01*
X1955800Y3802126D01*
X1946148Y3801262D01*
X1936800Y3798773D01*
X1928012Y3794658D01*
X1920036Y3789121D01*
X1913178Y3782263D01*
X1907641Y3774287D01*
X1903526Y3765499D01*
X1901037Y3756151D01*
X1900174Y3746500D01*
X1901037Y3736848D01*
X1903526Y3727500D01*
X1907641Y3718712D01*
X1913178Y3710736D01*
X1920036Y3703878D01*
X1928012Y3698341D01*
X1936800Y3694226D01*
X1946148Y3691737D01*
G37*
G36*
X2413000Y3703574D02*
G01*
X2422652Y3704437D01*
X2431999Y3706926D01*
X2440787Y3711041D01*
X2448763Y3716578D01*
X2455621Y3723436D01*
X2461158Y3731412D01*
X2465273Y3740200D01*
X2467762Y3749548D01*
X2468626Y3759200D01*
X2467762Y3768851D01*
X2465273Y3778199D01*
X2461158Y3786987D01*
X2455621Y3794963D01*
X2448763Y3801821D01*
X2440787Y3807358D01*
X2431999Y3811473D01*
X2422652Y3813962D01*
X2413000Y3814826D01*
X2403348Y3813962D01*
X2394000Y3811473D01*
X2385212Y3807358D01*
X2377236Y3801821D01*
X2370378Y3794963D01*
X2364841Y3786987D01*
X2360726Y3778199D01*
X2358237Y3768851D01*
X2357374Y3759200D01*
X2358237Y3749548D01*
X2360726Y3740200D01*
X2364841Y3731412D01*
X2370378Y3723436D01*
X2377236Y3716578D01*
X2385212Y3711041D01*
X2394000Y3706926D01*
X2403348Y3704437D01*
G37*
G36*
X4428947Y3874617D02*
G01*
X4442358Y3875024D01*
X4455617Y3877259D01*
X4468418Y3881272D01*
X4480610Y3886911D01*
X4491939Y3894124D01*
X4502200Y3902811D01*
X4511243Y3912768D01*
X4518812Y3923842D01*
X4524857Y3935831D01*
X4529277Y3948531D01*
X4531969Y3961688D01*
X4532884Y3975100D01*
X4531969Y3988511D01*
X4529277Y4001668D01*
X4524857Y4014368D01*
X4518812Y4026357D01*
X4511243Y4037431D01*
X4502200Y4047388D01*
X4491939Y4056075D01*
X4480610Y4063288D01*
X4468418Y4068927D01*
X4455617Y4072940D01*
X4442358Y4075176D01*
X4428947Y4075582D01*
X4415586Y4074261D01*
X4402531Y4071162D01*
X4389983Y4066336D01*
X4378198Y4059885D01*
X4367377Y4051909D01*
X4357725Y4042562D01*
X4349394Y4031996D01*
X4342536Y4020464D01*
X4337304Y4008069D01*
X4333748Y3995115D01*
X4331970Y3981805D01*
X4331970Y3968394D01*
X4333748Y3955084D01*
X4337304Y3942130D01*
X4342536Y3929735D01*
X4349394Y3918204D01*
X4357725Y3907637D01*
X4367377Y3898290D01*
X4378198Y3890314D01*
X4389983Y3883863D01*
X4402531Y3879037D01*
X4415586Y3875938D01*
G37*
G36*
X3920947Y3874617D02*
G01*
X3934358Y3875024D01*
X3947617Y3877259D01*
X3960418Y3881272D01*
X3972610Y3886911D01*
X3983939Y3894124D01*
X3994200Y3902811D01*
X4003243Y3912768D01*
X4010812Y3923842D01*
X4016857Y3935831D01*
X4021277Y3948531D01*
X4023969Y3961688D01*
X4024884Y3975100D01*
X4023969Y3988511D01*
X4021277Y4001668D01*
X4016857Y4014368D01*
X4010812Y4026357D01*
X4003243Y4037431D01*
X3994200Y4047388D01*
X3983939Y4056075D01*
X3972610Y4063288D01*
X3960418Y4068927D01*
X3947617Y4072940D01*
X3934358Y4075176D01*
X3920947Y4075582D01*
X3907586Y4074261D01*
X3894531Y4071162D01*
X3881983Y4066336D01*
X3870198Y4059885D01*
X3859377Y4051909D01*
X3849725Y4042562D01*
X3841394Y4031996D01*
X3834536Y4020464D01*
X3829304Y4008069D01*
X3825748Y3995115D01*
X3823970Y3981805D01*
X3823970Y3968394D01*
X3825748Y3955084D01*
X3829304Y3942130D01*
X3834536Y3929735D01*
X3841394Y3918204D01*
X3849725Y3907637D01*
X3859377Y3898290D01*
X3870198Y3890314D01*
X3881983Y3883863D01*
X3894531Y3879037D01*
X3907586Y3875938D01*
G37*
G36*
X2650947Y3874617D02*
G01*
X2664358Y3875024D01*
X2677617Y3877259D01*
X2690418Y3881272D01*
X2702610Y3886911D01*
X2713939Y3894124D01*
X2724200Y3902811D01*
X2733243Y3912768D01*
X2740812Y3923842D01*
X2746857Y3935831D01*
X2751277Y3948531D01*
X2753969Y3961688D01*
X2754884Y3975100D01*
X2753969Y3988511D01*
X2751277Y4001668D01*
X2746857Y4014368D01*
X2740812Y4026357D01*
X2733243Y4037431D01*
X2724200Y4047388D01*
X2713939Y4056075D01*
X2702610Y4063288D01*
X2690418Y4068927D01*
X2677617Y4072940D01*
X2664358Y4075176D01*
X2650947Y4075582D01*
X2637586Y4074261D01*
X2624531Y4071162D01*
X2611983Y4066336D01*
X2600198Y4059885D01*
X2589377Y4051909D01*
X2579725Y4042562D01*
X2571394Y4031996D01*
X2564536Y4020464D01*
X2559304Y4008069D01*
X2555748Y3995115D01*
X2553970Y3981805D01*
X2553970Y3968394D01*
X2555748Y3955084D01*
X2559304Y3942130D01*
X2564536Y3929735D01*
X2571394Y3918204D01*
X2579725Y3907637D01*
X2589377Y3898290D01*
X2600198Y3890314D01*
X2611983Y3883863D01*
X2624531Y3879037D01*
X2637586Y3875938D01*
G37*
G36*
X6206947Y3874617D02*
G01*
X6220358Y3875024D01*
X6233617Y3877259D01*
X6246418Y3881272D01*
X6258610Y3886911D01*
X6269939Y3894124D01*
X6280200Y3902811D01*
X6289243Y3912768D01*
X6296812Y3923842D01*
X6302857Y3935831D01*
X6307277Y3948531D01*
X6309969Y3961688D01*
X6310884Y3975100D01*
X6309969Y3988511D01*
X6307277Y4001668D01*
X6302857Y4014368D01*
X6296812Y4026357D01*
X6289243Y4037431D01*
X6280200Y4047388D01*
X6269939Y4056075D01*
X6258610Y4063288D01*
X6246418Y4068927D01*
X6233617Y4072940D01*
X6220358Y4075176D01*
X6206947Y4075582D01*
X6193586Y4074261D01*
X6180531Y4071162D01*
X6167983Y4066336D01*
X6156198Y4059885D01*
X6145377Y4051909D01*
X6135725Y4042562D01*
X6127394Y4031996D01*
X6120536Y4020464D01*
X6115304Y4008069D01*
X6111748Y3995115D01*
X6109970Y3981805D01*
X6109970Y3968394D01*
X6111748Y3955084D01*
X6115304Y3942130D01*
X6120536Y3929735D01*
X6127394Y3918204D01*
X6135725Y3907637D01*
X6145377Y3898290D01*
X6156198Y3890314D01*
X6167983Y3883863D01*
X6180531Y3879037D01*
X6193586Y3875938D01*
G37*
G36*
X3666947Y3874617D02*
G01*
X3680358Y3875024D01*
X3693617Y3877259D01*
X3706418Y3881272D01*
X3718610Y3886911D01*
X3729939Y3894124D01*
X3740200Y3902811D01*
X3749243Y3912768D01*
X3756812Y3923842D01*
X3762857Y3935831D01*
X3767277Y3948531D01*
X3769969Y3961688D01*
X3770884Y3975100D01*
X3769969Y3988511D01*
X3767277Y4001668D01*
X3762857Y4014368D01*
X3756812Y4026357D01*
X3749243Y4037431D01*
X3740200Y4047388D01*
X3729939Y4056075D01*
X3718610Y4063288D01*
X3706418Y4068927D01*
X3693617Y4072940D01*
X3680358Y4075176D01*
X3666947Y4075582D01*
X3653586Y4074261D01*
X3640531Y4071162D01*
X3627983Y4066336D01*
X3616198Y4059885D01*
X3605377Y4051909D01*
X3595725Y4042562D01*
X3587394Y4031996D01*
X3580536Y4020464D01*
X3575304Y4008069D01*
X3571748Y3995115D01*
X3569970Y3981805D01*
X3569970Y3968394D01*
X3571748Y3955084D01*
X3575304Y3942130D01*
X3580536Y3929735D01*
X3587394Y3918204D01*
X3595725Y3907637D01*
X3605377Y3898290D01*
X3616198Y3890314D01*
X3627983Y3883863D01*
X3640531Y3879037D01*
X3653586Y3875938D01*
G37*
G36*
X5190947Y3874617D02*
G01*
X5204358Y3875024D01*
X5217617Y3877259D01*
X5230418Y3881272D01*
X5242610Y3886911D01*
X5253939Y3894124D01*
X5264200Y3902811D01*
X5273243Y3912768D01*
X5280812Y3923842D01*
X5286857Y3935831D01*
X5291277Y3948531D01*
X5293969Y3961688D01*
X5294884Y3975100D01*
X5293969Y3988511D01*
X5291277Y4001668D01*
X5286857Y4014368D01*
X5280812Y4026357D01*
X5273243Y4037431D01*
X5264200Y4047388D01*
X5253939Y4056075D01*
X5242610Y4063288D01*
X5230418Y4068927D01*
X5217617Y4072940D01*
X5204358Y4075176D01*
X5190947Y4075582D01*
X5177586Y4074261D01*
X5164531Y4071162D01*
X5151983Y4066336D01*
X5140198Y4059885D01*
X5129377Y4051909D01*
X5119725Y4042562D01*
X5111394Y4031996D01*
X5104536Y4020464D01*
X5099304Y4008069D01*
X5095748Y3995115D01*
X5093970Y3981805D01*
X5093970Y3968394D01*
X5095748Y3955084D01*
X5099304Y3942130D01*
X5104536Y3929735D01*
X5111394Y3918204D01*
X5119725Y3907637D01*
X5129377Y3898290D01*
X5140198Y3890314D01*
X5151983Y3883863D01*
X5164531Y3879037D01*
X5177586Y3875938D01*
G37*
G36*
X4936947Y3874617D02*
G01*
X4950358Y3875024D01*
X4963617Y3877259D01*
X4976418Y3881272D01*
X4988610Y3886911D01*
X4999939Y3894124D01*
X5010200Y3902811D01*
X5019243Y3912768D01*
X5026812Y3923842D01*
X5032857Y3935831D01*
X5037277Y3948531D01*
X5039969Y3961688D01*
X5040884Y3975100D01*
X5039969Y3988511D01*
X5037277Y4001668D01*
X5032857Y4014368D01*
X5026812Y4026357D01*
X5019243Y4037431D01*
X5010200Y4047388D01*
X4999939Y4056075D01*
X4988610Y4063288D01*
X4976418Y4068927D01*
X4963617Y4072940D01*
X4950358Y4075176D01*
X4936947Y4075582D01*
X4923586Y4074261D01*
X4910531Y4071162D01*
X4897983Y4066336D01*
X4886198Y4059885D01*
X4875377Y4051909D01*
X4865725Y4042562D01*
X4857394Y4031996D01*
X4850536Y4020464D01*
X4845304Y4008069D01*
X4841748Y3995115D01*
X4839970Y3981805D01*
X4839970Y3968394D01*
X4841748Y3955084D01*
X4845304Y3942130D01*
X4850536Y3929735D01*
X4857394Y3918204D01*
X4865725Y3907637D01*
X4875377Y3898290D01*
X4886198Y3890314D01*
X4897983Y3883863D01*
X4910531Y3879037D01*
X4923586Y3875938D01*
G37*
G36*
X3158947Y3874617D02*
G01*
X3172358Y3875024D01*
X3185617Y3877259D01*
X3198418Y3881272D01*
X3210610Y3886911D01*
X3221939Y3894124D01*
X3232200Y3902811D01*
X3241243Y3912768D01*
X3248812Y3923842D01*
X3254857Y3935831D01*
X3259277Y3948531D01*
X3261969Y3961688D01*
X3262884Y3975100D01*
X3261969Y3988511D01*
X3259277Y4001668D01*
X3254857Y4014368D01*
X3248812Y4026357D01*
X3241243Y4037431D01*
X3232200Y4047388D01*
X3221939Y4056075D01*
X3210610Y4063288D01*
X3198418Y4068927D01*
X3185617Y4072940D01*
X3172358Y4075176D01*
X3158947Y4075582D01*
X3145586Y4074261D01*
X3132531Y4071162D01*
X3119983Y4066336D01*
X3108198Y4059885D01*
X3097377Y4051909D01*
X3087725Y4042562D01*
X3079394Y4031996D01*
X3072536Y4020464D01*
X3067304Y4008069D01*
X3063748Y3995115D01*
X3061970Y3981805D01*
X3061970Y3968394D01*
X3063748Y3955084D01*
X3067304Y3942130D01*
X3072536Y3929735D01*
X3079394Y3918204D01*
X3087725Y3907637D01*
X3097377Y3898290D01*
X3108198Y3890314D01*
X3119983Y3883863D01*
X3132531Y3879037D01*
X3145586Y3875938D01*
G37*
G36*
X6714947Y3874617D02*
G01*
X6728358Y3875024D01*
X6741617Y3877259D01*
X6754418Y3881272D01*
X6766610Y3886911D01*
X6777939Y3894124D01*
X6788200Y3902811D01*
X6797243Y3912768D01*
X6804812Y3923842D01*
X6810857Y3935831D01*
X6815277Y3948531D01*
X6817969Y3961688D01*
X6818884Y3975100D01*
X6817969Y3988511D01*
X6815277Y4001668D01*
X6810857Y4014368D01*
X6804812Y4026357D01*
X6797243Y4037431D01*
X6788200Y4047388D01*
X6777939Y4056075D01*
X6766610Y4063288D01*
X6754418Y4068927D01*
X6741617Y4072940D01*
X6728358Y4075176D01*
X6714947Y4075582D01*
X6701586Y4074261D01*
X6688531Y4071162D01*
X6675983Y4066336D01*
X6664198Y4059885D01*
X6653377Y4051909D01*
X6643725Y4042562D01*
X6635394Y4031996D01*
X6628536Y4020464D01*
X6623303Y4008069D01*
X6619748Y3995115D01*
X6617970Y3981805D01*
X6617970Y3968394D01*
X6619748Y3955084D01*
X6623303Y3942130D01*
X6628536Y3929735D01*
X6635394Y3918204D01*
X6643725Y3907637D01*
X6653377Y3898290D01*
X6664198Y3890314D01*
X6675983Y3883863D01*
X6688531Y3879037D01*
X6701586Y3875938D01*
G37*
G36*
X2396947Y3874617D02*
G01*
X2410358Y3875024D01*
X2423617Y3877259D01*
X2436418Y3881272D01*
X2448610Y3886911D01*
X2459939Y3894124D01*
X2470200Y3902811D01*
X2479243Y3912768D01*
X2486812Y3923842D01*
X2492857Y3935831D01*
X2497277Y3948531D01*
X2499969Y3961688D01*
X2500884Y3975100D01*
X2499969Y3988511D01*
X2497277Y4001668D01*
X2492857Y4014368D01*
X2486812Y4026357D01*
X2479243Y4037431D01*
X2470200Y4047388D01*
X2459939Y4056075D01*
X2448610Y4063288D01*
X2436418Y4068927D01*
X2423617Y4072940D01*
X2410358Y4075176D01*
X2396947Y4075582D01*
X2383586Y4074261D01*
X2370531Y4071162D01*
X2357983Y4066336D01*
X2346198Y4059885D01*
X2335377Y4051909D01*
X2325725Y4042562D01*
X2317394Y4031996D01*
X2310536Y4020464D01*
X2305304Y4008069D01*
X2301748Y3995115D01*
X2299970Y3981805D01*
X2299970Y3968394D01*
X2301748Y3955084D01*
X2305304Y3942130D01*
X2310536Y3929735D01*
X2317394Y3918204D01*
X2325725Y3907637D01*
X2335377Y3898290D01*
X2346198Y3890314D01*
X2357983Y3883863D01*
X2370531Y3879037D01*
X2383586Y3875938D01*
G37*
G36*
X5952947Y3874617D02*
G01*
X5966358Y3875024D01*
X5979617Y3877259D01*
X5992418Y3881272D01*
X6004610Y3886911D01*
X6015939Y3894124D01*
X6026200Y3902811D01*
X6035243Y3912768D01*
X6042812Y3923842D01*
X6048857Y3935831D01*
X6053277Y3948531D01*
X6055969Y3961688D01*
X6056884Y3975100D01*
X6055969Y3988511D01*
X6053277Y4001668D01*
X6048857Y4014368D01*
X6042812Y4026357D01*
X6035243Y4037431D01*
X6026200Y4047388D01*
X6015939Y4056075D01*
X6004610Y4063288D01*
X5992418Y4068927D01*
X5979617Y4072940D01*
X5966358Y4075176D01*
X5952947Y4075582D01*
X5939586Y4074261D01*
X5926531Y4071162D01*
X5913983Y4066336D01*
X5902198Y4059885D01*
X5891377Y4051909D01*
X5881725Y4042562D01*
X5873394Y4031996D01*
X5866536Y4020464D01*
X5861304Y4008069D01*
X5857748Y3995115D01*
X5855970Y3981805D01*
X5855970Y3968394D01*
X5857748Y3955084D01*
X5861304Y3942130D01*
X5866536Y3929735D01*
X5873394Y3918204D01*
X5881725Y3907637D01*
X5891377Y3898290D01*
X5902198Y3890314D01*
X5913983Y3883863D01*
X5926531Y3879037D01*
X5939586Y3875938D01*
G37*
G36*
X2142947Y3874617D02*
G01*
X2156358Y3875024D01*
X2169617Y3877259D01*
X2182418Y3881272D01*
X2194610Y3886911D01*
X2205939Y3894124D01*
X2216200Y3902811D01*
X2225243Y3912768D01*
X2232812Y3923842D01*
X2238857Y3935831D01*
X2243277Y3948531D01*
X2245969Y3961688D01*
X2246884Y3975100D01*
X2245969Y3988511D01*
X2243277Y4001668D01*
X2238857Y4014368D01*
X2232812Y4026357D01*
X2225243Y4037431D01*
X2216200Y4047388D01*
X2205939Y4056075D01*
X2194610Y4063288D01*
X2182418Y4068927D01*
X2169617Y4072940D01*
X2156358Y4075176D01*
X2142947Y4075582D01*
X2129586Y4074261D01*
X2116531Y4071162D01*
X2103983Y4066336D01*
X2092198Y4059885D01*
X2081377Y4051909D01*
X2071725Y4042562D01*
X2063394Y4031996D01*
X2056536Y4020464D01*
X2051304Y4008069D01*
X2047748Y3995115D01*
X2045970Y3981805D01*
X2045970Y3968394D01*
X2047748Y3955084D01*
X2051304Y3942130D01*
X2056536Y3929735D01*
X2063394Y3918204D01*
X2071725Y3907637D01*
X2081377Y3898290D01*
X2092198Y3890314D01*
X2103983Y3883863D01*
X2116531Y3879037D01*
X2129586Y3875938D01*
G37*
G36*
X4174947Y3874617D02*
G01*
X4188358Y3875024D01*
X4201617Y3877259D01*
X4214418Y3881272D01*
X4226610Y3886911D01*
X4237939Y3894124D01*
X4248200Y3902811D01*
X4257243Y3912768D01*
X4264812Y3923842D01*
X4270857Y3935831D01*
X4275277Y3948531D01*
X4277969Y3961688D01*
X4278884Y3975100D01*
X4277969Y3988511D01*
X4275277Y4001668D01*
X4270857Y4014368D01*
X4264812Y4026357D01*
X4257243Y4037431D01*
X4248200Y4047388D01*
X4237939Y4056075D01*
X4226610Y4063288D01*
X4214418Y4068927D01*
X4201617Y4072940D01*
X4188358Y4075176D01*
X4174947Y4075582D01*
X4161586Y4074261D01*
X4148531Y4071162D01*
X4135983Y4066336D01*
X4124198Y4059885D01*
X4113377Y4051909D01*
X4103725Y4042562D01*
X4095394Y4031996D01*
X4088536Y4020464D01*
X4083304Y4008069D01*
X4079748Y3995115D01*
X4077970Y3981805D01*
X4077970Y3968394D01*
X4079748Y3955084D01*
X4083304Y3942130D01*
X4088536Y3929735D01*
X4095394Y3918204D01*
X4103725Y3907637D01*
X4113377Y3898290D01*
X4124198Y3890314D01*
X4135983Y3883863D01*
X4148531Y3879037D01*
X4161586Y3875938D01*
G37*
G36*
X5698947Y3874617D02*
G01*
X5712358Y3875024D01*
X5725617Y3877259D01*
X5738418Y3881272D01*
X5750610Y3886911D01*
X5761939Y3894124D01*
X5772200Y3902811D01*
X5781243Y3912768D01*
X5788812Y3923842D01*
X5794857Y3935831D01*
X5799277Y3948531D01*
X5801969Y3961688D01*
X5802884Y3975100D01*
X5801969Y3988511D01*
X5799277Y4001668D01*
X5794857Y4014368D01*
X5788812Y4026357D01*
X5781243Y4037431D01*
X5772200Y4047388D01*
X5761939Y4056075D01*
X5750610Y4063288D01*
X5738418Y4068927D01*
X5725617Y4072940D01*
X5712358Y4075176D01*
X5698947Y4075582D01*
X5685586Y4074261D01*
X5672531Y4071162D01*
X5659983Y4066336D01*
X5648198Y4059885D01*
X5637377Y4051909D01*
X5627725Y4042562D01*
X5619394Y4031996D01*
X5612536Y4020464D01*
X5607304Y4008069D01*
X5603748Y3995115D01*
X5601970Y3981805D01*
X5601970Y3968394D01*
X5603748Y3955084D01*
X5607304Y3942130D01*
X5612536Y3929735D01*
X5619394Y3918204D01*
X5627725Y3907637D01*
X5637377Y3898290D01*
X5648198Y3890314D01*
X5659983Y3883863D01*
X5672531Y3879037D01*
X5685586Y3875938D01*
G37*
G36*
X6968947Y3874617D02*
G01*
X6982358Y3875024D01*
X6995617Y3877259D01*
X7008418Y3881272D01*
X7020610Y3886911D01*
X7031939Y3894124D01*
X7042200Y3902811D01*
X7051243Y3912768D01*
X7058812Y3923842D01*
X7064857Y3935831D01*
X7069277Y3948531D01*
X7071969Y3961688D01*
X7072884Y3975100D01*
X7071969Y3988511D01*
X7069277Y4001668D01*
X7064857Y4014368D01*
X7058812Y4026357D01*
X7051243Y4037431D01*
X7042200Y4047388D01*
X7031939Y4056075D01*
X7020610Y4063288D01*
X7008418Y4068927D01*
X6995617Y4072940D01*
X6982358Y4075176D01*
X6968947Y4075582D01*
X6955586Y4074261D01*
X6942531Y4071162D01*
X6929983Y4066336D01*
X6918198Y4059885D01*
X6907377Y4051909D01*
X6897725Y4042562D01*
X6889394Y4031996D01*
X6882536Y4020464D01*
X6877303Y4008069D01*
X6873748Y3995115D01*
X6871970Y3981805D01*
X6871970Y3968394D01*
X6873748Y3955084D01*
X6877303Y3942130D01*
X6882536Y3929735D01*
X6889394Y3918204D01*
X6897725Y3907637D01*
X6907377Y3898290D01*
X6918198Y3890314D01*
X6929983Y3883863D01*
X6942531Y3879037D01*
X6955586Y3875938D01*
G37*
G36*
X2864459Y3884676D02*
G01*
X2864459Y3931259D01*
X2817876Y3931259D01*
X2818536Y3929735D01*
X2825394Y3918204D01*
X2833725Y3907637D01*
X2843377Y3898290D01*
X2854198Y3890314D01*
G37*
G36*
X5404510Y3884676D02*
G01*
X5404510Y3931259D01*
X5357876Y3931259D01*
X5358536Y3929735D01*
X5365394Y3918204D01*
X5373725Y3907637D01*
X5383377Y3898290D01*
X5394198Y3890314D01*
G37*
G36*
X3372459Y3884676D02*
G01*
X3372459Y3931259D01*
X3325876Y3931259D01*
X3326536Y3929735D01*
X3333394Y3918204D01*
X3341725Y3907637D01*
X3351377Y3898290D01*
X3362198Y3890314D01*
G37*
G36*
X4642510Y3884676D02*
G01*
X4642510Y3931259D01*
X4595876Y3931259D01*
X4596536Y3929735D01*
X4603394Y3918204D01*
X4611725Y3907637D01*
X4621377Y3898290D01*
X4632198Y3890314D01*
G37*
G36*
X6420510Y3884676D02*
G01*
X6420510Y3931259D01*
X6373876Y3931259D01*
X6374536Y3929735D01*
X6381394Y3918204D01*
X6389725Y3907637D01*
X6399377Y3898290D01*
X6410198Y3890314D01*
G37*
G36*
X2952140Y3884828D02*
G01*
X2956610Y3886911D01*
X2967939Y3894124D01*
X2978200Y3902811D01*
X2987243Y3912768D01*
X2994812Y3923842D01*
X2998571Y3931259D01*
X2952140Y3931259D01*
G37*
G36*
X4730140Y3884828D02*
G01*
X4734610Y3886911D01*
X4745939Y3894124D01*
X4756200Y3902811D01*
X4765243Y3912768D01*
X4772812Y3923842D01*
X4776571Y3931259D01*
X4730140Y3931259D01*
G37*
G36*
X3460140Y3884828D02*
G01*
X3464610Y3886911D01*
X3475939Y3894124D01*
X3486200Y3902811D01*
X3495243Y3912768D01*
X3502812Y3923842D01*
X3506571Y3931259D01*
X3460140Y3931259D01*
G37*
G36*
X6508140Y3884828D02*
G01*
X6512610Y3886911D01*
X6523939Y3894124D01*
X6534200Y3902811D01*
X6543243Y3912768D01*
X6550812Y3923842D01*
X6554571Y3931259D01*
X6508140Y3931259D01*
G37*
G36*
X5492140Y3884828D02*
G01*
X5496610Y3886911D01*
X5507939Y3894124D01*
X5518200Y3902811D01*
X5527243Y3912768D01*
X5534812Y3923842D01*
X5538571Y3931259D01*
X5492140Y3931259D01*
G37*
G36*
X2952140Y4018889D02*
G01*
X2998571Y4018889D01*
X2994812Y4026357D01*
X2987243Y4037431D01*
X2978200Y4047388D01*
X2967939Y4056075D01*
X2956610Y4063288D01*
X2952140Y4065371D01*
G37*
G36*
X6508140Y4018889D02*
G01*
X6554571Y4018889D01*
X6550812Y4026357D01*
X6543243Y4037431D01*
X6534200Y4047388D01*
X6523939Y4056075D01*
X6512610Y4063288D01*
X6508140Y4065371D01*
G37*
G36*
X4730140Y4018889D02*
G01*
X4776571Y4018889D01*
X4772812Y4026357D01*
X4765243Y4037431D01*
X4756200Y4047388D01*
X4745939Y4056075D01*
X4734610Y4063288D01*
X4730140Y4065371D01*
G37*
G36*
X5492140Y4018889D02*
G01*
X5538571Y4018889D01*
X5534812Y4026357D01*
X5527243Y4037431D01*
X5518200Y4047388D01*
X5507939Y4056075D01*
X5496610Y4063288D01*
X5492140Y4065371D01*
G37*
G36*
X3460140Y4018889D02*
G01*
X3506571Y4018889D01*
X3502812Y4026357D01*
X3495243Y4037431D01*
X3486200Y4047388D01*
X3475939Y4056075D01*
X3464610Y4063288D01*
X3460140Y4065371D01*
G37*
G36*
X5357876Y4018889D02*
G01*
X5404510Y4018889D01*
X5404510Y4065524D01*
X5394198Y4059885D01*
X5383377Y4051909D01*
X5373725Y4042562D01*
X5365394Y4031996D01*
X5358536Y4020464D01*
G37*
G36*
X3325876Y4018889D02*
G01*
X3372459Y4018889D01*
X3372459Y4065524D01*
X3362198Y4059885D01*
X3351377Y4051909D01*
X3341725Y4042562D01*
X3333394Y4031996D01*
X3326536Y4020464D01*
G37*
G36*
X2817876Y4018889D02*
G01*
X2864459Y4018889D01*
X2864459Y4065524D01*
X2854198Y4059885D01*
X2843377Y4051909D01*
X2833725Y4042562D01*
X2825394Y4031996D01*
X2818536Y4020464D01*
G37*
G36*
X6373876Y4018889D02*
G01*
X6420510Y4018889D01*
X6420510Y4065524D01*
X6410198Y4059885D01*
X6399377Y4051909D01*
X6389725Y4042562D01*
X6381394Y4031996D01*
X6374536Y4020464D01*
G37*
G36*
X4595876Y4018889D02*
G01*
X4642510Y4018889D01*
X4642510Y4065524D01*
X4632198Y4059885D01*
X4621377Y4051909D01*
X4611725Y4042562D01*
X4603394Y4031996D01*
X4596536Y4020464D01*
G37*
G36*
X1747570Y4041698D02*
G01*
X1757629Y4041698D01*
X1767484Y4043324D01*
X1776933Y4046575D01*
X1785772Y4051350D01*
X1793646Y4057497D01*
X1800453Y4064863D01*
X1805889Y4073245D01*
X1809953Y4082440D01*
X1812391Y4092143D01*
X1813204Y4102100D01*
X1812391Y4112056D01*
X1809953Y4121759D01*
X1805889Y4130954D01*
X1800453Y4139336D01*
X1793646Y4146702D01*
X1787855Y4151223D01*
X1785366Y4153966D01*
X1784096Y4157421D01*
X1784096Y4161078D01*
X1785366Y4164533D01*
X1787855Y4167276D01*
X1793646Y4171797D01*
X1800453Y4179163D01*
X1805889Y4187545D01*
X1809953Y4196740D01*
X1812391Y4206443D01*
X1813204Y4216400D01*
X1812391Y4226356D01*
X1809953Y4236059D01*
X1805889Y4245254D01*
X1800453Y4253636D01*
X1793646Y4261002D01*
X1785772Y4267149D01*
X1776933Y4271924D01*
X1767484Y4275175D01*
X1757629Y4276801D01*
X1747570Y4276801D01*
X1737715Y4275175D01*
X1728266Y4271924D01*
X1719427Y4267149D01*
X1711553Y4261002D01*
X1704746Y4253636D01*
X1699310Y4245254D01*
X1695246Y4236059D01*
X1692808Y4226356D01*
X1691995Y4216400D01*
X1692808Y4206443D01*
X1695246Y4196740D01*
X1699310Y4187545D01*
X1704746Y4179163D01*
X1711553Y4171797D01*
X1717344Y4167276D01*
X1719834Y4164533D01*
X1721104Y4161078D01*
X1721104Y4157421D01*
X1719834Y4153966D01*
X1717344Y4151223D01*
X1711553Y4146702D01*
X1704746Y4139336D01*
X1699310Y4130954D01*
X1695246Y4121759D01*
X1692808Y4112056D01*
X1691995Y4102100D01*
X1692808Y4092143D01*
X1695246Y4082440D01*
X1699310Y4073245D01*
X1704746Y4064863D01*
X1711553Y4057497D01*
X1719427Y4051350D01*
X1728266Y4046575D01*
X1737715Y4043324D01*
G37*
G36*
X5829300Y4046474D02*
G01*
X5838952Y4047337D01*
X5848299Y4049826D01*
X5857087Y4053941D01*
X5865063Y4059478D01*
X5871921Y4066336D01*
X5877458Y4074312D01*
X5881573Y4083100D01*
X5884062Y4092448D01*
X5884926Y4102100D01*
X5884062Y4111751D01*
X5881573Y4121099D01*
X5877458Y4129887D01*
X5871921Y4137863D01*
X5865063Y4144721D01*
X5857087Y4150258D01*
X5848299Y4154373D01*
X5838952Y4156862D01*
X5829300Y4157726D01*
X5819648Y4156862D01*
X5810300Y4154373D01*
X5801512Y4150258D01*
X5793536Y4144721D01*
X5786678Y4137863D01*
X5781141Y4129887D01*
X5777026Y4121099D01*
X5774537Y4111751D01*
X5773674Y4102100D01*
X5774537Y4092448D01*
X5777026Y4083100D01*
X5781141Y4074312D01*
X5786678Y4066336D01*
X5793536Y4059478D01*
X5801512Y4053941D01*
X5810300Y4049826D01*
X5819648Y4047337D01*
G37*
G36*
X6897928Y4128515D02*
G01*
X7046671Y4128515D01*
X7052919Y4129227D01*
X7058355Y4131106D01*
X7063181Y4134154D01*
X7067245Y4138218D01*
X7070293Y4143044D01*
X7072172Y4148480D01*
X7072884Y4154728D01*
X7072884Y4303471D01*
X7072172Y4309719D01*
X7070293Y4315155D01*
X7067245Y4319981D01*
X7063181Y4324045D01*
X7058355Y4327093D01*
X7052919Y4328972D01*
X7046671Y4329684D01*
X6897928Y4329684D01*
X6891680Y4328972D01*
X6886244Y4327093D01*
X6881418Y4324045D01*
X6877354Y4319981D01*
X6874306Y4315155D01*
X6872427Y4309719D01*
X6871716Y4303471D01*
X6871716Y4154728D01*
X6872427Y4148480D01*
X6874306Y4143044D01*
X6877354Y4138218D01*
X6881418Y4134154D01*
X6886244Y4131106D01*
X6891680Y4129227D01*
G37*
G36*
X3666947Y4128617D02*
G01*
X3680358Y4129024D01*
X3693617Y4131259D01*
X3706418Y4135272D01*
X3718610Y4140911D01*
X3729939Y4148124D01*
X3740200Y4156811D01*
X3749243Y4166768D01*
X3756812Y4177842D01*
X3762857Y4189831D01*
X3767277Y4202531D01*
X3769969Y4215688D01*
X3770884Y4229100D01*
X3769969Y4242511D01*
X3767277Y4255668D01*
X3762857Y4268368D01*
X3756812Y4280357D01*
X3749243Y4291431D01*
X3740200Y4301388D01*
X3729939Y4310075D01*
X3718610Y4317288D01*
X3706418Y4322927D01*
X3693617Y4326940D01*
X3680358Y4329176D01*
X3666947Y4329582D01*
X3653586Y4328261D01*
X3640531Y4325162D01*
X3627983Y4320336D01*
X3616198Y4313885D01*
X3605377Y4305909D01*
X3595725Y4296562D01*
X3587394Y4285996D01*
X3580536Y4274464D01*
X3575304Y4262069D01*
X3571748Y4249115D01*
X3569970Y4235805D01*
X3569970Y4222394D01*
X3571748Y4209084D01*
X3575304Y4196130D01*
X3580536Y4183735D01*
X3587394Y4172204D01*
X3595725Y4161637D01*
X3605377Y4152290D01*
X3616198Y4144314D01*
X3627983Y4137863D01*
X3640531Y4133037D01*
X3653586Y4129938D01*
G37*
G36*
X4428947Y4128617D02*
G01*
X4442358Y4129024D01*
X4455617Y4131259D01*
X4468418Y4135272D01*
X4480610Y4140911D01*
X4491939Y4148124D01*
X4502200Y4156811D01*
X4511243Y4166768D01*
X4518812Y4177842D01*
X4524857Y4189831D01*
X4529277Y4202531D01*
X4531969Y4215688D01*
X4532884Y4229100D01*
X4531969Y4242511D01*
X4529277Y4255668D01*
X4524857Y4268368D01*
X4518812Y4280357D01*
X4511243Y4291431D01*
X4502200Y4301388D01*
X4491939Y4310075D01*
X4480610Y4317288D01*
X4468418Y4322927D01*
X4455617Y4326940D01*
X4442358Y4329176D01*
X4428947Y4329582D01*
X4415586Y4328261D01*
X4402531Y4325162D01*
X4389983Y4320336D01*
X4378198Y4313885D01*
X4367377Y4305909D01*
X4357725Y4296562D01*
X4349394Y4285996D01*
X4342536Y4274464D01*
X4337304Y4262069D01*
X4333748Y4249115D01*
X4331970Y4235805D01*
X4331970Y4222394D01*
X4333748Y4209084D01*
X4337304Y4196130D01*
X4342536Y4183735D01*
X4349394Y4172204D01*
X4357725Y4161637D01*
X4367377Y4152290D01*
X4378198Y4144314D01*
X4389983Y4137863D01*
X4402531Y4133037D01*
X4415586Y4129938D01*
G37*
G36*
X4174947Y4128617D02*
G01*
X4188358Y4129024D01*
X4201617Y4131259D01*
X4214418Y4135272D01*
X4226610Y4140911D01*
X4237939Y4148124D01*
X4248200Y4156811D01*
X4257243Y4166768D01*
X4264812Y4177842D01*
X4270857Y4189831D01*
X4275277Y4202531D01*
X4277969Y4215688D01*
X4278884Y4229100D01*
X4277969Y4242511D01*
X4275277Y4255668D01*
X4270857Y4268368D01*
X4264812Y4280357D01*
X4257243Y4291431D01*
X4248200Y4301388D01*
X4237939Y4310075D01*
X4226610Y4317288D01*
X4214418Y4322927D01*
X4201617Y4326940D01*
X4188358Y4329176D01*
X4174947Y4329582D01*
X4161586Y4328261D01*
X4148531Y4325162D01*
X4135983Y4320336D01*
X4124198Y4313885D01*
X4113377Y4305909D01*
X4103725Y4296562D01*
X4095394Y4285996D01*
X4088536Y4274464D01*
X4083304Y4262069D01*
X4079748Y4249115D01*
X4077970Y4235805D01*
X4077970Y4222394D01*
X4079748Y4209084D01*
X4083304Y4196130D01*
X4088536Y4183735D01*
X4095394Y4172204D01*
X4103725Y4161637D01*
X4113377Y4152290D01*
X4124198Y4144314D01*
X4135983Y4137863D01*
X4148531Y4133037D01*
X4161586Y4129938D01*
G37*
G36*
X4682947Y4128617D02*
G01*
X4696358Y4129024D01*
X4709617Y4131259D01*
X4722418Y4135272D01*
X4734610Y4140911D01*
X4745939Y4148124D01*
X4756200Y4156811D01*
X4765243Y4166768D01*
X4772812Y4177842D01*
X4778857Y4189831D01*
X4783277Y4202531D01*
X4785969Y4215688D01*
X4786884Y4229100D01*
X4785969Y4242511D01*
X4783277Y4255668D01*
X4778857Y4268368D01*
X4772812Y4280357D01*
X4765243Y4291431D01*
X4756200Y4301388D01*
X4745939Y4310075D01*
X4734610Y4317288D01*
X4722418Y4322927D01*
X4709617Y4326940D01*
X4696358Y4329176D01*
X4682947Y4329582D01*
X4669586Y4328261D01*
X4656531Y4325162D01*
X4643983Y4320336D01*
X4632198Y4313885D01*
X4621377Y4305909D01*
X4611725Y4296562D01*
X4603394Y4285996D01*
X4596536Y4274464D01*
X4591304Y4262069D01*
X4587748Y4249115D01*
X4585970Y4235805D01*
X4585970Y4222394D01*
X4587748Y4209084D01*
X4591304Y4196130D01*
X4596536Y4183735D01*
X4603394Y4172204D01*
X4611725Y4161637D01*
X4621377Y4152290D01*
X4632198Y4144314D01*
X4643983Y4137863D01*
X4656531Y4133037D01*
X4669586Y4129938D01*
G37*
G36*
X3158947Y4128617D02*
G01*
X3172358Y4129024D01*
X3185617Y4131259D01*
X3198418Y4135272D01*
X3210610Y4140911D01*
X3221939Y4148124D01*
X3232200Y4156811D01*
X3241243Y4166768D01*
X3248812Y4177842D01*
X3254857Y4189831D01*
X3259277Y4202531D01*
X3261969Y4215688D01*
X3262884Y4229100D01*
X3261969Y4242511D01*
X3259277Y4255668D01*
X3254857Y4268368D01*
X3248812Y4280357D01*
X3241243Y4291431D01*
X3232200Y4301388D01*
X3221939Y4310075D01*
X3210610Y4317288D01*
X3198418Y4322927D01*
X3185617Y4326940D01*
X3172358Y4329176D01*
X3158947Y4329582D01*
X3145586Y4328261D01*
X3132531Y4325162D01*
X3119983Y4320336D01*
X3108198Y4313885D01*
X3097377Y4305909D01*
X3087725Y4296562D01*
X3079394Y4285996D01*
X3072536Y4274464D01*
X3067304Y4262069D01*
X3063748Y4249115D01*
X3061970Y4235805D01*
X3061970Y4222394D01*
X3063748Y4209084D01*
X3067304Y4196130D01*
X3072536Y4183735D01*
X3079394Y4172204D01*
X3087725Y4161637D01*
X3097377Y4152290D01*
X3108198Y4144314D01*
X3119983Y4137863D01*
X3132531Y4133037D01*
X3145586Y4129938D01*
G37*
G36*
X5444947Y4128617D02*
G01*
X5458358Y4129024D01*
X5471617Y4131259D01*
X5484418Y4135272D01*
X5496610Y4140911D01*
X5507939Y4148124D01*
X5518200Y4156811D01*
X5527243Y4166768D01*
X5534812Y4177842D01*
X5540857Y4189831D01*
X5545277Y4202531D01*
X5547969Y4215688D01*
X5548884Y4229100D01*
X5547969Y4242511D01*
X5545277Y4255668D01*
X5540857Y4268368D01*
X5534812Y4280357D01*
X5527243Y4291431D01*
X5518200Y4301388D01*
X5507939Y4310075D01*
X5496610Y4317288D01*
X5484418Y4322927D01*
X5471617Y4326940D01*
X5458358Y4329176D01*
X5444947Y4329582D01*
X5431586Y4328261D01*
X5418531Y4325162D01*
X5405983Y4320336D01*
X5394198Y4313885D01*
X5383377Y4305909D01*
X5373725Y4296562D01*
X5365394Y4285996D01*
X5358536Y4274464D01*
X5353304Y4262069D01*
X5349748Y4249115D01*
X5347970Y4235805D01*
X5347970Y4222394D01*
X5349748Y4209084D01*
X5353304Y4196130D01*
X5358536Y4183735D01*
X5365394Y4172204D01*
X5373725Y4161637D01*
X5383377Y4152290D01*
X5394198Y4144314D01*
X5405983Y4137863D01*
X5418531Y4133037D01*
X5431586Y4129938D01*
G37*
G36*
X5190947Y4128617D02*
G01*
X5204358Y4129024D01*
X5217617Y4131259D01*
X5230418Y4135272D01*
X5242610Y4140911D01*
X5253939Y4148124D01*
X5264200Y4156811D01*
X5273243Y4166768D01*
X5280812Y4177842D01*
X5286857Y4189831D01*
X5291277Y4202531D01*
X5293969Y4215688D01*
X5294884Y4229100D01*
X5293969Y4242511D01*
X5291277Y4255668D01*
X5286857Y4268368D01*
X5280812Y4280357D01*
X5273243Y4291431D01*
X5264200Y4301388D01*
X5253939Y4310075D01*
X5242610Y4317288D01*
X5230418Y4322927D01*
X5217617Y4326940D01*
X5204358Y4329176D01*
X5190947Y4329582D01*
X5177586Y4328261D01*
X5164531Y4325162D01*
X5151983Y4320336D01*
X5140198Y4313885D01*
X5129377Y4305909D01*
X5119725Y4296562D01*
X5111394Y4285996D01*
X5104536Y4274464D01*
X5099304Y4262069D01*
X5095748Y4249115D01*
X5093970Y4235805D01*
X5093970Y4222394D01*
X5095748Y4209084D01*
X5099304Y4196130D01*
X5104536Y4183735D01*
X5111394Y4172204D01*
X5119725Y4161637D01*
X5129377Y4152290D01*
X5140198Y4144314D01*
X5151983Y4137863D01*
X5164531Y4133037D01*
X5177586Y4129938D01*
G37*
G36*
X2650947Y4128617D02*
G01*
X2664358Y4129024D01*
X2677617Y4131259D01*
X2690418Y4135272D01*
X2702610Y4140911D01*
X2713939Y4148124D01*
X2724200Y4156811D01*
X2733243Y4166768D01*
X2740812Y4177842D01*
X2746857Y4189831D01*
X2751277Y4202531D01*
X2753969Y4215688D01*
X2754884Y4229100D01*
X2753969Y4242511D01*
X2751277Y4255668D01*
X2746857Y4268368D01*
X2740812Y4280357D01*
X2733243Y4291431D01*
X2724200Y4301388D01*
X2713939Y4310075D01*
X2702610Y4317288D01*
X2690418Y4322927D01*
X2677617Y4326940D01*
X2664358Y4329176D01*
X2650947Y4329582D01*
X2637586Y4328261D01*
X2624531Y4325162D01*
X2611983Y4320336D01*
X2600198Y4313885D01*
X2589377Y4305909D01*
X2579725Y4296562D01*
X2571394Y4285996D01*
X2564536Y4274464D01*
X2559304Y4262069D01*
X2555748Y4249115D01*
X2553970Y4235805D01*
X2553970Y4222394D01*
X2555748Y4209084D01*
X2559304Y4196130D01*
X2564536Y4183735D01*
X2571394Y4172204D01*
X2579725Y4161637D01*
X2589377Y4152290D01*
X2600198Y4144314D01*
X2611983Y4137863D01*
X2624531Y4133037D01*
X2637586Y4129938D01*
G37*
G36*
X6714947Y4128617D02*
G01*
X6728358Y4129024D01*
X6741617Y4131259D01*
X6754418Y4135272D01*
X6766610Y4140911D01*
X6777939Y4148124D01*
X6788200Y4156811D01*
X6797243Y4166768D01*
X6804812Y4177842D01*
X6810857Y4189831D01*
X6815277Y4202531D01*
X6817969Y4215688D01*
X6818884Y4229100D01*
X6817969Y4242511D01*
X6815277Y4255668D01*
X6810857Y4268368D01*
X6804812Y4280357D01*
X6797243Y4291431D01*
X6788200Y4301388D01*
X6777939Y4310075D01*
X6766610Y4317288D01*
X6754418Y4322927D01*
X6741617Y4326940D01*
X6728358Y4329176D01*
X6714947Y4329582D01*
X6701586Y4328261D01*
X6688531Y4325162D01*
X6675983Y4320336D01*
X6664198Y4313885D01*
X6653377Y4305909D01*
X6643725Y4296562D01*
X6635394Y4285996D01*
X6628536Y4274464D01*
X6623303Y4262069D01*
X6619748Y4249115D01*
X6617970Y4235805D01*
X6617970Y4222394D01*
X6619748Y4209084D01*
X6623303Y4196130D01*
X6628536Y4183735D01*
X6635394Y4172204D01*
X6643725Y4161637D01*
X6653377Y4152290D01*
X6664198Y4144314D01*
X6675983Y4137863D01*
X6688531Y4133037D01*
X6701586Y4129938D01*
G37*
G36*
X4936947Y4128617D02*
G01*
X4950358Y4129024D01*
X4963617Y4131259D01*
X4976418Y4135272D01*
X4988610Y4140911D01*
X4999939Y4148124D01*
X5010200Y4156811D01*
X5019243Y4166768D01*
X5026812Y4177842D01*
X5032857Y4189831D01*
X5037277Y4202531D01*
X5039969Y4215688D01*
X5040884Y4229100D01*
X5039969Y4242511D01*
X5037277Y4255668D01*
X5032857Y4268368D01*
X5026812Y4280357D01*
X5019243Y4291431D01*
X5010200Y4301388D01*
X4999939Y4310075D01*
X4988610Y4317288D01*
X4976418Y4322927D01*
X4963617Y4326940D01*
X4950358Y4329176D01*
X4936947Y4329582D01*
X4923586Y4328261D01*
X4910531Y4325162D01*
X4897983Y4320336D01*
X4886198Y4313885D01*
X4875377Y4305909D01*
X4865725Y4296562D01*
X4857394Y4285996D01*
X4850536Y4274464D01*
X4845304Y4262069D01*
X4841748Y4249115D01*
X4839970Y4235805D01*
X4839970Y4222394D01*
X4841748Y4209084D01*
X4845304Y4196130D01*
X4850536Y4183735D01*
X4857394Y4172204D01*
X4865725Y4161637D01*
X4875377Y4152290D01*
X4886198Y4144314D01*
X4897983Y4137863D01*
X4910531Y4133037D01*
X4923586Y4129938D01*
G37*
G36*
X6460947Y4128617D02*
G01*
X6474358Y4129024D01*
X6487617Y4131259D01*
X6500418Y4135272D01*
X6512610Y4140911D01*
X6523939Y4148124D01*
X6534200Y4156811D01*
X6543243Y4166768D01*
X6550812Y4177842D01*
X6556857Y4189831D01*
X6561277Y4202531D01*
X6563969Y4215688D01*
X6564884Y4229100D01*
X6563969Y4242511D01*
X6561277Y4255668D01*
X6556857Y4268368D01*
X6550812Y4280357D01*
X6543243Y4291431D01*
X6534200Y4301388D01*
X6523939Y4310075D01*
X6512610Y4317288D01*
X6500418Y4322927D01*
X6487617Y4326940D01*
X6474358Y4329176D01*
X6460947Y4329582D01*
X6447586Y4328261D01*
X6434531Y4325162D01*
X6421983Y4320336D01*
X6410198Y4313885D01*
X6399377Y4305909D01*
X6389725Y4296562D01*
X6381394Y4285996D01*
X6374536Y4274464D01*
X6369304Y4262069D01*
X6365748Y4249115D01*
X6363970Y4235805D01*
X6363970Y4222394D01*
X6365748Y4209084D01*
X6369304Y4196130D01*
X6374536Y4183735D01*
X6381394Y4172204D01*
X6389725Y4161637D01*
X6399377Y4152290D01*
X6410198Y4144314D01*
X6421983Y4137863D01*
X6434531Y4133037D01*
X6447586Y4129938D01*
G37*
G36*
X3412947Y4128617D02*
G01*
X3426358Y4129024D01*
X3439617Y4131259D01*
X3452418Y4135272D01*
X3464610Y4140911D01*
X3475939Y4148124D01*
X3486200Y4156811D01*
X3495243Y4166768D01*
X3502812Y4177842D01*
X3508857Y4189831D01*
X3513277Y4202531D01*
X3515969Y4215688D01*
X3516884Y4229100D01*
X3515969Y4242511D01*
X3513277Y4255668D01*
X3508857Y4268368D01*
X3502812Y4280357D01*
X3495243Y4291431D01*
X3486200Y4301388D01*
X3475939Y4310075D01*
X3464610Y4317288D01*
X3452418Y4322927D01*
X3439617Y4326940D01*
X3426358Y4329176D01*
X3412947Y4329582D01*
X3399586Y4328261D01*
X3386531Y4325162D01*
X3373983Y4320336D01*
X3362198Y4313885D01*
X3351377Y4305909D01*
X3341725Y4296562D01*
X3333394Y4285996D01*
X3326536Y4274464D01*
X3321304Y4262069D01*
X3317748Y4249115D01*
X3315970Y4235805D01*
X3315970Y4222394D01*
X3317748Y4209084D01*
X3321304Y4196130D01*
X3326536Y4183735D01*
X3333394Y4172204D01*
X3341725Y4161637D01*
X3351377Y4152290D01*
X3362198Y4144314D01*
X3373983Y4137863D01*
X3386531Y4133037D01*
X3399586Y4129938D01*
G37*
G36*
X6206947Y4128617D02*
G01*
X6220358Y4129024D01*
X6233617Y4131259D01*
X6246418Y4135272D01*
X6258610Y4140911D01*
X6269939Y4148124D01*
X6280200Y4156811D01*
X6289243Y4166768D01*
X6296812Y4177842D01*
X6302857Y4189831D01*
X6307277Y4202531D01*
X6309969Y4215688D01*
X6310884Y4229100D01*
X6309969Y4242511D01*
X6307277Y4255668D01*
X6302857Y4268368D01*
X6296812Y4280357D01*
X6289243Y4291431D01*
X6280200Y4301388D01*
X6269939Y4310075D01*
X6258610Y4317288D01*
X6246418Y4322927D01*
X6233617Y4326940D01*
X6220358Y4329176D01*
X6206947Y4329582D01*
X6193586Y4328261D01*
X6180531Y4325162D01*
X6167983Y4320336D01*
X6156198Y4313885D01*
X6145377Y4305909D01*
X6135725Y4296562D01*
X6127394Y4285996D01*
X6120536Y4274464D01*
X6115304Y4262069D01*
X6111748Y4249115D01*
X6109970Y4235805D01*
X6109970Y4222394D01*
X6111748Y4209084D01*
X6115304Y4196130D01*
X6120536Y4183735D01*
X6127394Y4172204D01*
X6135725Y4161637D01*
X6145377Y4152290D01*
X6156198Y4144314D01*
X6167983Y4137863D01*
X6180531Y4133037D01*
X6193586Y4129938D01*
G37*
G36*
X5698947Y4128617D02*
G01*
X5712358Y4129024D01*
X5725617Y4131259D01*
X5738418Y4135272D01*
X5750610Y4140911D01*
X5761939Y4148124D01*
X5772200Y4156811D01*
X5781243Y4166768D01*
X5788812Y4177842D01*
X5794857Y4189831D01*
X5799277Y4202531D01*
X5801969Y4215688D01*
X5802884Y4229100D01*
X5801969Y4242511D01*
X5799277Y4255668D01*
X5794857Y4268368D01*
X5788812Y4280357D01*
X5781243Y4291431D01*
X5772200Y4301388D01*
X5761939Y4310075D01*
X5750610Y4317288D01*
X5738418Y4322927D01*
X5725617Y4326940D01*
X5712358Y4329176D01*
X5698947Y4329582D01*
X5685586Y4328261D01*
X5672531Y4325162D01*
X5659983Y4320336D01*
X5648198Y4313885D01*
X5637377Y4305909D01*
X5627725Y4296562D01*
X5619394Y4285996D01*
X5612536Y4274464D01*
X5607304Y4262069D01*
X5603748Y4249115D01*
X5601970Y4235805D01*
X5601970Y4222394D01*
X5603748Y4209084D01*
X5607304Y4196130D01*
X5612536Y4183735D01*
X5619394Y4172204D01*
X5627725Y4161637D01*
X5637377Y4152290D01*
X5648198Y4144314D01*
X5659983Y4137863D01*
X5672531Y4133037D01*
X5685586Y4129938D01*
G37*
G36*
X2904947Y4128617D02*
G01*
X2918358Y4129024D01*
X2931617Y4131259D01*
X2944418Y4135272D01*
X2956610Y4140911D01*
X2967939Y4148124D01*
X2978200Y4156811D01*
X2987243Y4166768D01*
X2994812Y4177842D01*
X3000857Y4189831D01*
X3005277Y4202531D01*
X3007969Y4215688D01*
X3008884Y4229100D01*
X3007969Y4242511D01*
X3005277Y4255668D01*
X3000857Y4268368D01*
X2994812Y4280357D01*
X2987243Y4291431D01*
X2978200Y4301388D01*
X2967939Y4310075D01*
X2956610Y4317288D01*
X2944418Y4322927D01*
X2931617Y4326940D01*
X2918358Y4329176D01*
X2904947Y4329582D01*
X2891586Y4328261D01*
X2878531Y4325162D01*
X2865983Y4320336D01*
X2854198Y4313885D01*
X2843377Y4305909D01*
X2833725Y4296562D01*
X2825394Y4285996D01*
X2818536Y4274464D01*
X2813304Y4262069D01*
X2809748Y4249115D01*
X2807970Y4235805D01*
X2807970Y4222394D01*
X2809748Y4209084D01*
X2813304Y4196130D01*
X2818536Y4183735D01*
X2825394Y4172204D01*
X2833725Y4161637D01*
X2843377Y4152290D01*
X2854198Y4144314D01*
X2865983Y4137863D01*
X2878531Y4133037D01*
X2891586Y4129938D01*
G37*
G36*
X2396947Y4128617D02*
G01*
X2410358Y4129024D01*
X2423617Y4131259D01*
X2436418Y4135272D01*
X2448610Y4140911D01*
X2459939Y4148124D01*
X2470200Y4156811D01*
X2479243Y4166768D01*
X2486812Y4177842D01*
X2492857Y4189831D01*
X2497277Y4202531D01*
X2499969Y4215688D01*
X2500884Y4229100D01*
X2499969Y4242511D01*
X2497277Y4255668D01*
X2492857Y4268368D01*
X2486812Y4280357D01*
X2479243Y4291431D01*
X2470200Y4301388D01*
X2459939Y4310075D01*
X2448610Y4317288D01*
X2436418Y4322927D01*
X2423617Y4326940D01*
X2410358Y4329176D01*
X2396947Y4329582D01*
X2383586Y4328261D01*
X2370531Y4325162D01*
X2357983Y4320336D01*
X2346198Y4313885D01*
X2335377Y4305909D01*
X2325725Y4296562D01*
X2317394Y4285996D01*
X2310536Y4274464D01*
X2305304Y4262069D01*
X2301748Y4249115D01*
X2299970Y4235805D01*
X2299970Y4222394D01*
X2301748Y4209084D01*
X2305304Y4196130D01*
X2310536Y4183735D01*
X2317394Y4172204D01*
X2325725Y4161637D01*
X2335377Y4152290D01*
X2346198Y4144314D01*
X2357983Y4137863D01*
X2370531Y4133037D01*
X2383586Y4129938D01*
G37*
G36*
X3880459Y4138676D02*
G01*
X3880459Y4185259D01*
X3833876Y4185259D01*
X3834536Y4183735D01*
X3841394Y4172204D01*
X3849725Y4161637D01*
X3859377Y4152290D01*
X3870198Y4144314D01*
G37*
G36*
X5912510Y4138676D02*
G01*
X5912510Y4185259D01*
X5865876Y4185259D01*
X5866536Y4183735D01*
X5873394Y4172204D01*
X5881725Y4161637D01*
X5891377Y4152290D01*
X5902198Y4144314D01*
G37*
G36*
X2102459Y4138676D02*
G01*
X2102459Y4185259D01*
X2055875Y4185259D01*
X2056536Y4183735D01*
X2063394Y4172204D01*
X2071725Y4161637D01*
X2081377Y4152290D01*
X2092198Y4144314D01*
G37*
G36*
X3968140Y4138828D02*
G01*
X3972610Y4140911D01*
X3983939Y4148124D01*
X3994200Y4156811D01*
X4003243Y4166768D01*
X4010812Y4177842D01*
X4014571Y4185259D01*
X3968140Y4185259D01*
G37*
G36*
X6000140Y4138828D02*
G01*
X6004610Y4140911D01*
X6015939Y4148124D01*
X6026200Y4156811D01*
X6035243Y4166768D01*
X6042812Y4177842D01*
X6046571Y4185259D01*
X6000140Y4185259D01*
G37*
G36*
X2190140Y4138828D02*
G01*
X2194610Y4140911D01*
X2205939Y4148124D01*
X2216200Y4156811D01*
X2225243Y4166768D01*
X2232812Y4177842D01*
X2236571Y4185259D01*
X2190140Y4185259D01*
G37*
G36*
X3968140Y4272889D02*
G01*
X4014571Y4272889D01*
X4010812Y4280357D01*
X4003243Y4291431D01*
X3994200Y4301388D01*
X3983939Y4310075D01*
X3972610Y4317288D01*
X3968140Y4319371D01*
G37*
G36*
X6000140Y4272889D02*
G01*
X6046571Y4272889D01*
X6042812Y4280357D01*
X6035243Y4291431D01*
X6026200Y4301388D01*
X6015939Y4310075D01*
X6004610Y4317288D01*
X6000140Y4319371D01*
G37*
G36*
X2190140Y4272889D02*
G01*
X2236571Y4272889D01*
X2232812Y4280357D01*
X2225243Y4291431D01*
X2216200Y4301388D01*
X2205939Y4310075D01*
X2194610Y4317288D01*
X2190140Y4319371D01*
G37*
G36*
X3833876Y4272889D02*
G01*
X3880459Y4272889D01*
X3880459Y4319524D01*
X3870198Y4313885D01*
X3859377Y4305909D01*
X3849725Y4296562D01*
X3841394Y4285996D01*
X3834536Y4274464D01*
G37*
G36*
X5865876Y4272889D02*
G01*
X5912510Y4272889D01*
X5912510Y4319524D01*
X5902198Y4313885D01*
X5891377Y4305909D01*
X5881725Y4296562D01*
X5873394Y4285996D01*
X5866536Y4274464D01*
G37*
G36*
X2055875Y4272889D02*
G01*
X2102459Y4272889D01*
X2102459Y4319524D01*
X2092198Y4313885D01*
X2081377Y4305909D01*
X2071725Y4296562D01*
X2063394Y4285996D01*
X2056536Y4274464D01*
G37*
G36*
X2451100Y4427016D02*
G01*
X2460853Y4427880D01*
X2470302Y4430369D01*
X2479141Y4434535D01*
X2487168Y4440123D01*
X2494076Y4447032D01*
X2499664Y4455058D01*
X2503830Y4463897D01*
X2506319Y4473346D01*
X2507183Y4483100D01*
X2506319Y4492853D01*
X2503830Y4502302D01*
X2499664Y4511141D01*
X2494076Y4519168D01*
X2487168Y4526076D01*
X2479141Y4531664D01*
X2470302Y4535830D01*
X2460853Y4538319D01*
X2451100Y4539183D01*
X2441346Y4538319D01*
X2431897Y4535830D01*
X2423058Y4531664D01*
X2415032Y4526076D01*
X2408123Y4519168D01*
X2402535Y4511141D01*
X2398369Y4502302D01*
X2395880Y4492853D01*
X2395016Y4483100D01*
X2395880Y4473346D01*
X2398369Y4463897D01*
X2402535Y4455058D01*
X2408123Y4447032D01*
X2415032Y4440123D01*
X2423058Y4434535D01*
X2431897Y4430369D01*
X2441346Y4427880D01*
G37*
G36*
X1614373Y4452874D02*
G01*
X1624025Y4453737D01*
X1633372Y4456226D01*
X1642160Y4460341D01*
X1650085Y4465878D01*
X1656943Y4472736D01*
X1662531Y4480712D01*
X1666595Y4489500D01*
X1669135Y4498848D01*
X1669948Y4508500D01*
X1669135Y4518152D01*
X1666595Y4527499D01*
X1662531Y4536287D01*
X1656943Y4544263D01*
X1650085Y4551121D01*
X1642160Y4556658D01*
X1633372Y4560773D01*
X1624025Y4563262D01*
X1614373Y4564126D01*
X1604670Y4563262D01*
X1595323Y4560773D01*
X1586534Y4556658D01*
X1578610Y4551121D01*
X1571752Y4544263D01*
X1566164Y4536287D01*
X1562100Y4527499D01*
X1559560Y4518152D01*
X1558747Y4508500D01*
X1559560Y4498848D01*
X1562100Y4489500D01*
X1566164Y4480712D01*
X1571752Y4472736D01*
X1578610Y4465878D01*
X1586534Y4460341D01*
X1595323Y4456226D01*
X1604670Y4453737D01*
G37*
G36*
X5016500Y4452874D02*
G01*
X5026152Y4453737D01*
X5035499Y4456226D01*
X5044287Y4460341D01*
X5052263Y4465878D01*
X5059121Y4472736D01*
X5064658Y4480712D01*
X5068773Y4489500D01*
X5071262Y4498848D01*
X5072126Y4508500D01*
X5071262Y4518152D01*
X5068773Y4527499D01*
X5064658Y4536287D01*
X5059121Y4544263D01*
X5052263Y4551121D01*
X5044338Y4556658D01*
X5034229Y4561230D01*
X5030724Y4563922D01*
X5028641Y4567834D01*
X5028438Y4572203D01*
X5030114Y4576318D01*
X5033365Y4579264D01*
X5048199Y4583226D01*
X5056987Y4587341D01*
X5064963Y4592878D01*
X5071821Y4599736D01*
X5077358Y4607712D01*
X5081473Y4616500D01*
X5083962Y4625848D01*
X5084826Y4635500D01*
X5083962Y4645152D01*
X5081473Y4654499D01*
X5077358Y4663287D01*
X5071821Y4671263D01*
X5064963Y4678121D01*
X5056987Y4683658D01*
X5048199Y4687773D01*
X5038852Y4690262D01*
X5029200Y4691126D01*
X5019548Y4690262D01*
X5010200Y4687773D01*
X5001412Y4683658D01*
X4993436Y4678121D01*
X4986578Y4671263D01*
X4981041Y4663287D01*
X4976926Y4654499D01*
X4974437Y4645152D01*
X4973574Y4635500D01*
X4974437Y4625848D01*
X4976926Y4616500D01*
X4981041Y4607712D01*
X4986578Y4599736D01*
X4993436Y4592878D01*
X5001361Y4587341D01*
X5011470Y4582769D01*
X5014976Y4580077D01*
X5017058Y4576165D01*
X5017262Y4571796D01*
X5015585Y4567682D01*
X5012334Y4564735D01*
X4997500Y4560773D01*
X4988712Y4556658D01*
X4980736Y4551121D01*
X4973878Y4544263D01*
X4968341Y4536287D01*
X4964226Y4527499D01*
X4961737Y4518152D01*
X4960874Y4508500D01*
X4961737Y4498848D01*
X4964226Y4489500D01*
X4968341Y4480712D01*
X4973878Y4472736D01*
X4980736Y4465878D01*
X4988712Y4460341D01*
X4997500Y4456226D01*
X5006848Y4453737D01*
G37*
G36*
X2616200Y4490516D02*
G01*
X2625953Y4491380D01*
X2635402Y4493869D01*
X2644241Y4498035D01*
X2652268Y4503623D01*
X2659176Y4510532D01*
X2664764Y4518558D01*
X2668930Y4527397D01*
X2671419Y4536846D01*
X2672283Y4546600D01*
X2671419Y4556353D01*
X2668930Y4565802D01*
X2664764Y4574641D01*
X2659176Y4582668D01*
X2652268Y4589576D01*
X2644241Y4595164D01*
X2635402Y4599330D01*
X2625953Y4601819D01*
X2616200Y4602683D01*
X2606446Y4601819D01*
X2596997Y4599330D01*
X2588158Y4595164D01*
X2580132Y4589576D01*
X2573223Y4582668D01*
X2567635Y4574641D01*
X2563469Y4565802D01*
X2560980Y4556353D01*
X2560116Y4546600D01*
X2560980Y4536846D01*
X2563469Y4527397D01*
X2567635Y4518558D01*
X2573223Y4510532D01*
X2580132Y4503623D01*
X2588158Y4498035D01*
X2596997Y4493869D01*
X2606446Y4491380D01*
G37*
G36*
X3136900Y4490516D02*
G01*
X3146653Y4491380D01*
X3156102Y4493869D01*
X3164941Y4498035D01*
X3172968Y4503623D01*
X3179876Y4510532D01*
X3185464Y4518558D01*
X3189630Y4527397D01*
X3192119Y4536846D01*
X3192983Y4546600D01*
X3192119Y4556353D01*
X3189630Y4565802D01*
X3185464Y4574641D01*
X3179876Y4582668D01*
X3172968Y4589576D01*
X3164941Y4595164D01*
X3156102Y4599330D01*
X3146653Y4601819D01*
X3136900Y4602683D01*
X3127146Y4601819D01*
X3117697Y4599330D01*
X3108858Y4595164D01*
X3100832Y4589576D01*
X3093923Y4582668D01*
X3088335Y4574641D01*
X3084169Y4565802D01*
X3081680Y4556353D01*
X3080816Y4546600D01*
X3081680Y4536846D01*
X3084169Y4527397D01*
X3088335Y4518558D01*
X3093923Y4510532D01*
X3100832Y4503623D01*
X3108858Y4498035D01*
X3117697Y4493869D01*
X3127146Y4491380D01*
G37*
G36*
X4737100Y4503674D02*
G01*
X4746752Y4504537D01*
X4756099Y4507026D01*
X4764887Y4511141D01*
X4772863Y4516678D01*
X4779721Y4523536D01*
X4785258Y4531512D01*
X4789373Y4540300D01*
X4791862Y4549648D01*
X4792726Y4559300D01*
X4791862Y4568952D01*
X4789373Y4578299D01*
X4785258Y4587087D01*
X4779721Y4595063D01*
X4772863Y4601921D01*
X4764887Y4607458D01*
X4756099Y4611573D01*
X4746752Y4614062D01*
X4737100Y4614926D01*
X4727448Y4614062D01*
X4718100Y4611573D01*
X4709312Y4607458D01*
X4701336Y4601921D01*
X4694478Y4595063D01*
X4688941Y4587087D01*
X4684979Y4578604D01*
X4682591Y4575352D01*
X4679086Y4573270D01*
X4675124Y4572762D01*
X4671212Y4573778D01*
X4668062Y4576267D01*
X4666081Y4579772D01*
X4664862Y4594352D01*
X4662373Y4603699D01*
X4658258Y4612487D01*
X4652721Y4620463D01*
X4645863Y4627321D01*
X4637887Y4632858D01*
X4629099Y4636973D01*
X4619752Y4639462D01*
X4610100Y4640326D01*
X4600448Y4639462D01*
X4591100Y4636973D01*
X4582312Y4632858D01*
X4574336Y4627321D01*
X4567478Y4620463D01*
X4561941Y4612487D01*
X4557826Y4603699D01*
X4555337Y4594352D01*
X4554474Y4584700D01*
X4555337Y4575048D01*
X4557826Y4565700D01*
X4561941Y4556912D01*
X4567478Y4548936D01*
X4574336Y4542078D01*
X4582312Y4536541D01*
X4591100Y4532426D01*
X4600448Y4529937D01*
X4610100Y4529074D01*
X4619752Y4529937D01*
X4629099Y4532426D01*
X4637887Y4536541D01*
X4645863Y4542078D01*
X4652721Y4548936D01*
X4658258Y4556912D01*
X4662220Y4565396D01*
X4664608Y4568647D01*
X4668113Y4570730D01*
X4672076Y4571238D01*
X4675987Y4570222D01*
X4679137Y4567732D01*
X4681118Y4564227D01*
X4682337Y4549648D01*
X4684826Y4540300D01*
X4688941Y4531512D01*
X4694478Y4523536D01*
X4701336Y4516678D01*
X4709312Y4511141D01*
X4718100Y4507026D01*
X4727448Y4504537D01*
G37*
G36*
X898448Y4526737D02*
G01*
X967740Y4526737D01*
X979932Y4527600D01*
X991514Y4530140D01*
X1002639Y4534255D01*
X1013053Y4539945D01*
X1022553Y4547057D01*
X1030935Y4555439D01*
X1038047Y4564938D01*
X1043686Y4575352D01*
X1047851Y4586478D01*
X1050391Y4598060D01*
X1051204Y4609896D01*
X1050391Y4621733D01*
X1047851Y4633315D01*
X1043686Y4644440D01*
X1038047Y4654854D01*
X1030935Y4664354D01*
X1022553Y4672736D01*
X1013053Y4679848D01*
X1002639Y4685538D01*
X991514Y4689652D01*
X979932Y4692192D01*
X967740Y4693056D01*
X898448Y4693056D01*
X886256Y4692192D01*
X874674Y4689652D01*
X863549Y4685538D01*
X853135Y4679848D01*
X843635Y4672736D01*
X835253Y4664354D01*
X828141Y4654854D01*
X822502Y4644440D01*
X818337Y4633315D01*
X815797Y4621733D01*
X814984Y4609896D01*
X815797Y4598060D01*
X818337Y4586478D01*
X822502Y4575352D01*
X828141Y4564938D01*
X835253Y4555439D01*
X843635Y4547057D01*
X853135Y4539945D01*
X863549Y4534255D01*
X874674Y4530140D01*
X886256Y4527600D01*
G37*
G36*
X1291488Y4526737D02*
G01*
X1410716Y4526737D01*
X1422908Y4527600D01*
X1434541Y4530140D01*
X1445615Y4534255D01*
X1456029Y4539945D01*
X1465529Y4547057D01*
X1473911Y4555439D01*
X1481023Y4564938D01*
X1486712Y4575352D01*
X1490878Y4586478D01*
X1493367Y4598060D01*
X1494231Y4609896D01*
X1493367Y4621733D01*
X1490878Y4633315D01*
X1486712Y4644440D01*
X1481023Y4654854D01*
X1473911Y4664354D01*
X1465529Y4672736D01*
X1456029Y4679848D01*
X1445615Y4685538D01*
X1434541Y4689652D01*
X1422908Y4692192D01*
X1410716Y4693056D01*
X1344777Y4693056D01*
X1340916Y4693818D01*
X1337614Y4695952D01*
X1335430Y4699203D01*
X1334617Y4703064D01*
X1335328Y4706924D01*
X1337411Y4710226D01*
X1343304Y4716373D01*
X1348841Y4724552D01*
X1352905Y4733544D01*
X1355394Y4743094D01*
X1356207Y4752898D01*
X1355394Y4762703D01*
X1352905Y4772253D01*
X1348841Y4781245D01*
X1343304Y4789424D01*
X1336497Y4796536D01*
X1328572Y4802378D01*
X1319784Y4806848D01*
X1310335Y4809744D01*
X1300581Y4810963D01*
X1290726Y4810556D01*
X1281074Y4808474D01*
X1271930Y4804816D01*
X1263548Y4799634D01*
X1256131Y4793132D01*
X1249934Y4785461D01*
X1245108Y4776825D01*
X1241856Y4767529D01*
X1240180Y4757826D01*
X1240180Y4747971D01*
X1241856Y4738268D01*
X1245108Y4728972D01*
X1249934Y4720336D01*
X1256131Y4712665D01*
X1264056Y4705807D01*
X1267307Y4702657D01*
X1268831Y4698441D01*
X1268374Y4693970D01*
X1266088Y4690110D01*
X1262278Y4687671D01*
X1256588Y4685538D01*
X1246174Y4679848D01*
X1236675Y4672736D01*
X1228293Y4664354D01*
X1221181Y4654854D01*
X1215491Y4644440D01*
X1211326Y4633315D01*
X1208836Y4621733D01*
X1207973Y4609896D01*
X1208836Y4598060D01*
X1211326Y4586478D01*
X1215491Y4575352D01*
X1221181Y4564938D01*
X1228293Y4555439D01*
X1236675Y4547057D01*
X1246174Y4539945D01*
X1256588Y4534255D01*
X1267663Y4530140D01*
X1279296Y4527600D01*
G37*
G36*
X6594398Y4567174D02*
G01*
X6604050Y4568037D01*
X6613398Y4570526D01*
X6622186Y4574641D01*
X6630162Y4580178D01*
X6637020Y4587036D01*
X6642557Y4595012D01*
X6646672Y4603800D01*
X6649161Y4613148D01*
X6650024Y4622800D01*
X6649161Y4632452D01*
X6646672Y4641799D01*
X6642557Y4650587D01*
X6637020Y4658563D01*
X6630162Y4665421D01*
X6622186Y4670958D01*
X6613398Y4675073D01*
X6604050Y4677562D01*
X6594398Y4678426D01*
X6584746Y4677562D01*
X6575399Y4675073D01*
X6566611Y4670958D01*
X6558635Y4665421D01*
X6551777Y4658563D01*
X6546240Y4650587D01*
X6542125Y4641799D01*
X6539636Y4632452D01*
X6538772Y4622800D01*
X6539636Y4613148D01*
X6542125Y4603800D01*
X6546240Y4595012D01*
X6551777Y4587036D01*
X6558635Y4580178D01*
X6566611Y4574641D01*
X6575399Y4570526D01*
X6584746Y4568037D01*
G37*
G36*
X6184900Y4579416D02*
G01*
X6194653Y4580280D01*
X6204102Y4582769D01*
X6212941Y4586935D01*
X6220968Y4592523D01*
X6227876Y4599432D01*
X6233464Y4607458D01*
X6237630Y4616297D01*
X6240119Y4625746D01*
X6240983Y4635500D01*
X6240119Y4645253D01*
X6237630Y4654702D01*
X6233464Y4663541D01*
X6227876Y4671568D01*
X6220968Y4678476D01*
X6212941Y4684064D01*
X6204102Y4688230D01*
X6194653Y4690719D01*
X6184900Y4691583D01*
X6175146Y4690719D01*
X6165697Y4688230D01*
X6156858Y4684064D01*
X6148832Y4678476D01*
X6141923Y4671568D01*
X6136335Y4663541D01*
X6132169Y4654702D01*
X6129680Y4645253D01*
X6128816Y4635500D01*
X6129680Y4625746D01*
X6132169Y4616297D01*
X6136335Y4607458D01*
X6141923Y4599432D01*
X6148832Y4592523D01*
X6156858Y4586935D01*
X6165697Y4582769D01*
X6175146Y4580280D01*
G37*
G36*
X4064000Y4617974D02*
G01*
X4073651Y4618837D01*
X4082999Y4621326D01*
X4091787Y4625441D01*
X4099763Y4630978D01*
X4106621Y4637836D01*
X4112158Y4645812D01*
X4116273Y4654600D01*
X4118762Y4663948D01*
X4119626Y4673600D01*
X4118762Y4683252D01*
X4116273Y4692599D01*
X4112158Y4701387D01*
X4106621Y4709363D01*
X4099763Y4716221D01*
X4091787Y4721758D01*
X4082999Y4725873D01*
X4073651Y4728362D01*
X4064000Y4729226D01*
X4054348Y4728362D01*
X4045000Y4725873D01*
X4036212Y4721758D01*
X4028236Y4716221D01*
X4021378Y4709363D01*
X4015841Y4701387D01*
X4011726Y4692599D01*
X4009237Y4683252D01*
X4008374Y4673600D01*
X4009237Y4663948D01*
X4011726Y4654600D01*
X4015841Y4645812D01*
X4021378Y4637836D01*
X4028236Y4630978D01*
X4036212Y4625441D01*
X4045000Y4621326D01*
X4054348Y4618837D01*
G37*
G36*
X3886200Y4687316D02*
G01*
X3899611Y4688230D01*
X3912768Y4690922D01*
X3925468Y4695342D01*
X3937457Y4701387D01*
X3948531Y4708956D01*
X3958488Y4717999D01*
X3967175Y4728260D01*
X3974388Y4739589D01*
X3980027Y4751781D01*
X3984040Y4764582D01*
X3986276Y4777841D01*
X3986682Y4791252D01*
X3985361Y4804613D01*
X3982262Y4817668D01*
X3977436Y4830216D01*
X3970985Y4842002D01*
X3963009Y4852822D01*
X3953662Y4862474D01*
X3943096Y4870805D01*
X3931564Y4877663D01*
X3919169Y4882896D01*
X3906215Y4886452D01*
X3892905Y4888230D01*
X3879494Y4888230D01*
X3866184Y4886452D01*
X3853230Y4882896D01*
X3840835Y4877663D01*
X3829304Y4870805D01*
X3818737Y4862474D01*
X3809390Y4852822D01*
X3801414Y4842002D01*
X3794963Y4830216D01*
X3790137Y4817668D01*
X3787038Y4804613D01*
X3785717Y4791252D01*
X3786124Y4777841D01*
X3788359Y4764582D01*
X3792372Y4751781D01*
X3798011Y4739589D01*
X3805224Y4728260D01*
X3813911Y4717999D01*
X3823868Y4708956D01*
X3834942Y4701387D01*
X3846931Y4695342D01*
X3859631Y4690922D01*
X3872788Y4688230D01*
G37*
G36*
X4483100Y4719574D02*
G01*
X4492752Y4720437D01*
X4502099Y4722926D01*
X4510887Y4727041D01*
X4518863Y4732578D01*
X4525721Y4739436D01*
X4531258Y4747412D01*
X4535373Y4756200D01*
X4537862Y4765548D01*
X4538726Y4775200D01*
X4537862Y4784852D01*
X4535373Y4794199D01*
X4531258Y4802987D01*
X4525721Y4810963D01*
X4518863Y4817821D01*
X4510887Y4823358D01*
X4502099Y4827473D01*
X4492752Y4829962D01*
X4483100Y4830826D01*
X4473448Y4829962D01*
X4464100Y4827473D01*
X4455312Y4823358D01*
X4447336Y4817821D01*
X4440478Y4810963D01*
X4434941Y4802987D01*
X4430826Y4794199D01*
X4428337Y4784852D01*
X4427474Y4775200D01*
X4428337Y4765548D01*
X4430826Y4756200D01*
X4434941Y4747412D01*
X4440478Y4739436D01*
X4447336Y4732578D01*
X4455312Y4727041D01*
X4464100Y4722926D01*
X4473448Y4720437D01*
G37*
G36*
X6959600Y4795774D02*
G01*
X6969252Y4796637D01*
X6978599Y4799126D01*
X6987387Y4803241D01*
X6995363Y4808778D01*
X7002221Y4815636D01*
X7007758Y4823612D01*
X7011873Y4832400D01*
X7014362Y4841748D01*
X7015225Y4851400D01*
X7014362Y4861052D01*
X7011873Y4870399D01*
X7007758Y4879187D01*
X7002221Y4887163D01*
X6995363Y4894021D01*
X6987387Y4899558D01*
X6978599Y4903673D01*
X6969252Y4906162D01*
X6959600Y4907026D01*
X6949948Y4906162D01*
X6940600Y4903673D01*
X6931812Y4899558D01*
X6923836Y4894021D01*
X6916978Y4887163D01*
X6911441Y4879187D01*
X6907326Y4870399D01*
X6904837Y4861052D01*
X6903974Y4851400D01*
X6904837Y4841748D01*
X6907326Y4832400D01*
X6911441Y4823612D01*
X6916978Y4815636D01*
X6923836Y4808778D01*
X6931812Y4803241D01*
X6940600Y4799126D01*
X6949948Y4796637D01*
G37*
G36*
X4711700Y4859274D02*
G01*
X4721352Y4860137D01*
X4730699Y4862626D01*
X4739487Y4866741D01*
X4747463Y4872278D01*
X4754321Y4879136D01*
X4759858Y4887112D01*
X4763973Y4895900D01*
X4766462Y4905248D01*
X4767326Y4914900D01*
X4766462Y4924552D01*
X4763973Y4933899D01*
X4759858Y4942687D01*
X4754321Y4950663D01*
X4747463Y4957521D01*
X4739487Y4963058D01*
X4730699Y4967173D01*
X4721352Y4969662D01*
X4711700Y4970526D01*
X4702048Y4969662D01*
X4692700Y4967173D01*
X4683912Y4963058D01*
X4675936Y4957521D01*
X4669078Y4950663D01*
X4663541Y4942687D01*
X4659426Y4933899D01*
X4656937Y4924552D01*
X4656074Y4914900D01*
X4656937Y4905248D01*
X4659426Y4895900D01*
X4663541Y4887112D01*
X4669078Y4879136D01*
X4675936Y4872278D01*
X4683912Y4866741D01*
X4692700Y4862626D01*
X4702048Y4860137D01*
G37*
G36*
X6438900Y4909616D02*
G01*
X6448653Y4910480D01*
X6458102Y4912969D01*
X6466941Y4917135D01*
X6474968Y4922723D01*
X6481876Y4929632D01*
X6487464Y4937658D01*
X6491630Y4946497D01*
X6494119Y4955946D01*
X6494983Y4965700D01*
X6494119Y4975453D01*
X6491630Y4984902D01*
X6487464Y4993741D01*
X6481876Y5001768D01*
X6474968Y5008676D01*
X6466941Y5014264D01*
X6458102Y5018430D01*
X6453530Y5019649D01*
X6449618Y5021681D01*
X6446926Y5025136D01*
X6446012Y5029454D01*
X6446926Y5033721D01*
X6449618Y5037226D01*
X6453530Y5039258D01*
X6457899Y5040426D01*
X6466687Y5044541D01*
X6474663Y5050078D01*
X6481521Y5056936D01*
X6487058Y5064912D01*
X6491173Y5073700D01*
X6493662Y5083048D01*
X6494526Y5092700D01*
X6493662Y5102352D01*
X6491173Y5111699D01*
X6487058Y5120487D01*
X6481521Y5128463D01*
X6474663Y5135321D01*
X6466687Y5140858D01*
X6457899Y5144973D01*
X6448552Y5147462D01*
X6438900Y5148326D01*
X6429248Y5147462D01*
X6419900Y5144973D01*
X6411112Y5140858D01*
X6403136Y5135321D01*
X6396278Y5128463D01*
X6390741Y5120487D01*
X6386626Y5111699D01*
X6384137Y5102352D01*
X6383274Y5092700D01*
X6384137Y5083048D01*
X6386626Y5073700D01*
X6390741Y5064912D01*
X6396278Y5056936D01*
X6403136Y5050078D01*
X6411112Y5044541D01*
X6419900Y5040426D01*
X6424269Y5039258D01*
X6428181Y5037226D01*
X6430873Y5033721D01*
X6431788Y5029454D01*
X6430873Y5025136D01*
X6428181Y5021681D01*
X6424269Y5019649D01*
X6419697Y5018430D01*
X6410858Y5014264D01*
X6402832Y5008676D01*
X6395923Y5001768D01*
X6390335Y4993741D01*
X6386169Y4984902D01*
X6383680Y4975453D01*
X6382816Y4965700D01*
X6383680Y4955946D01*
X6386169Y4946497D01*
X6390335Y4937658D01*
X6395923Y4929632D01*
X6402832Y4922723D01*
X6410858Y4917135D01*
X6419697Y4912969D01*
X6429146Y4910480D01*
G37*
G36*
X2235200Y4910074D02*
G01*
X2244852Y4910937D01*
X2254199Y4913426D01*
X2262987Y4917541D01*
X2270963Y4923078D01*
X2277821Y4929936D01*
X2283358Y4937912D01*
X2287473Y4946700D01*
X2289962Y4956048D01*
X2290826Y4965700D01*
X2289962Y4975352D01*
X2287473Y4984699D01*
X2283358Y4993487D01*
X2277821Y5001463D01*
X2270963Y5008321D01*
X2262987Y5013858D01*
X2254199Y5017973D01*
X2244852Y5020462D01*
X2235200Y5021326D01*
X2225548Y5020462D01*
X2216200Y5017973D01*
X2207412Y5013858D01*
X2199436Y5008321D01*
X2192578Y5001463D01*
X2187041Y4993487D01*
X2182926Y4984699D01*
X2180437Y4975352D01*
X2179574Y4965700D01*
X2180437Y4956048D01*
X2182926Y4946700D01*
X2187041Y4937912D01*
X2192578Y4929936D01*
X2199436Y4923078D01*
X2207412Y4917541D01*
X2216200Y4913426D01*
X2225548Y4910937D01*
G37*
G36*
X7340600Y4935474D02*
G01*
X7350252Y4936337D01*
X7359599Y4938826D01*
X7368387Y4942941D01*
X7376363Y4948478D01*
X7383221Y4955336D01*
X7388758Y4963312D01*
X7392873Y4972100D01*
X7395362Y4981448D01*
X7396225Y4991100D01*
X7395362Y5000752D01*
X7392873Y5010099D01*
X7388758Y5018887D01*
X7383221Y5026863D01*
X7376363Y5033721D01*
X7368387Y5039258D01*
X7359599Y5043373D01*
X7350252Y5045862D01*
X7340600Y5046726D01*
X7330948Y5045862D01*
X7321600Y5043373D01*
X7312812Y5039258D01*
X7304836Y5033721D01*
X7297978Y5026863D01*
X7292441Y5018887D01*
X7288326Y5010099D01*
X7285837Y5000752D01*
X7284974Y4991100D01*
X7285837Y4981448D01*
X7288326Y4972100D01*
X7292441Y4963312D01*
X7297978Y4955336D01*
X7304836Y4948478D01*
X7312812Y4942941D01*
X7321600Y4938826D01*
X7330948Y4936337D01*
G37*
G36*
X3930040Y4941316D02*
G01*
X3960571Y4941316D01*
X3966819Y4942027D01*
X3972255Y4943906D01*
X3977081Y4946954D01*
X3981145Y4951018D01*
X3984193Y4955844D01*
X3986072Y4961280D01*
X3986784Y4967528D01*
X3986784Y4998059D01*
X3930040Y4998059D01*
G37*
G36*
X3811828Y4941316D02*
G01*
X3842359Y4941316D01*
X3842359Y4998059D01*
X3785615Y4998059D01*
X3785615Y4967528D01*
X3786327Y4961280D01*
X3788206Y4955844D01*
X3791254Y4951018D01*
X3795318Y4946954D01*
X3800144Y4943906D01*
X3805580Y4942027D01*
G37*
G36*
X1168400Y4960874D02*
G01*
X1178052Y4961737D01*
X1187399Y4964226D01*
X1196187Y4968341D01*
X1204163Y4973878D01*
X1211021Y4980736D01*
X1216558Y4988712D01*
X1220673Y4997500D01*
X1223162Y5006848D01*
X1224026Y5016500D01*
X1223162Y5026152D01*
X1220673Y5035499D01*
X1216558Y5044287D01*
X1211021Y5052263D01*
X1204163Y5059121D01*
X1196187Y5064658D01*
X1187399Y5068773D01*
X1178052Y5071262D01*
X1168400Y5072126D01*
X1158748Y5071262D01*
X1149400Y5068773D01*
X1140612Y5064658D01*
X1132636Y5059121D01*
X1125778Y5052263D01*
X1120241Y5044287D01*
X1116126Y5035499D01*
X1113637Y5026152D01*
X1112774Y5016500D01*
X1113637Y5006848D01*
X1116126Y4997500D01*
X1120241Y4988712D01*
X1125778Y4980736D01*
X1132636Y4973878D01*
X1140612Y4968341D01*
X1149400Y4964226D01*
X1158748Y4961737D01*
G37*
G36*
X1727200Y4986274D02*
G01*
X1736852Y4987137D01*
X1746199Y4989626D01*
X1754987Y4993741D01*
X1762963Y4999278D01*
X1769821Y5006136D01*
X1775358Y5014112D01*
X1779473Y5022900D01*
X1781962Y5032248D01*
X1782825Y5041900D01*
X1781962Y5051552D01*
X1779473Y5060899D01*
X1775358Y5069687D01*
X1769821Y5077663D01*
X1762963Y5084521D01*
X1754987Y5090058D01*
X1746199Y5094173D01*
X1736852Y5096662D01*
X1727200Y5097526D01*
X1717548Y5096662D01*
X1708200Y5094173D01*
X1699412Y5090058D01*
X1691436Y5084521D01*
X1684578Y5077663D01*
X1679041Y5069687D01*
X1674926Y5060899D01*
X1672437Y5051552D01*
X1671574Y5041900D01*
X1672437Y5032248D01*
X1674926Y5022900D01*
X1679041Y5014112D01*
X1684578Y5006136D01*
X1691436Y4999278D01*
X1699412Y4993741D01*
X1708200Y4989626D01*
X1717548Y4987137D01*
G37*
G36*
X5168900Y4986274D02*
G01*
X5178552Y4987137D01*
X5187899Y4989626D01*
X5196687Y4993741D01*
X5204663Y4999278D01*
X5211521Y5006136D01*
X5217058Y5014112D01*
X5221173Y5022900D01*
X5223662Y5032248D01*
X5224526Y5041900D01*
X5223662Y5051552D01*
X5221173Y5060899D01*
X5217058Y5069687D01*
X5211521Y5077663D01*
X5204663Y5084521D01*
X5196687Y5090058D01*
X5187899Y5094173D01*
X5178552Y5096662D01*
X5168900Y5097526D01*
X5159248Y5096662D01*
X5149900Y5094173D01*
X5141112Y5090058D01*
X5133136Y5084521D01*
X5126278Y5077663D01*
X5120741Y5069687D01*
X5116626Y5060899D01*
X5114137Y5051552D01*
X5113274Y5041900D01*
X5114137Y5032248D01*
X5116626Y5022900D01*
X5120741Y5014112D01*
X5126278Y5006136D01*
X5133136Y4999278D01*
X5141112Y4993741D01*
X5149900Y4989626D01*
X5159248Y4987137D01*
G37*
G36*
X3073400Y5062474D02*
G01*
X3083052Y5063337D01*
X3092399Y5065826D01*
X3101187Y5069941D01*
X3109163Y5075478D01*
X3116021Y5082336D01*
X3121558Y5090312D01*
X3125673Y5099100D01*
X3128162Y5108448D01*
X3129026Y5118100D01*
X3128162Y5127752D01*
X3125673Y5137099D01*
X3121558Y5145887D01*
X3116021Y5153863D01*
X3109163Y5160721D01*
X3101187Y5166258D01*
X3092399Y5170373D01*
X3083052Y5172862D01*
X3073400Y5173726D01*
X3063748Y5172862D01*
X3054400Y5170373D01*
X3045612Y5166258D01*
X3037636Y5160721D01*
X3030778Y5153863D01*
X3025241Y5145887D01*
X3021126Y5137099D01*
X3018637Y5127752D01*
X3017774Y5118100D01*
X3018637Y5108448D01*
X3021126Y5099100D01*
X3025241Y5090312D01*
X3030778Y5082336D01*
X3037636Y5075478D01*
X3045612Y5069941D01*
X3054400Y5065826D01*
X3063748Y5063337D01*
G37*
G36*
X3930040Y5085689D02*
G01*
X3986784Y5085689D01*
X3986784Y5116271D01*
X3986072Y5122519D01*
X3984193Y5127955D01*
X3981145Y5132781D01*
X3977081Y5136845D01*
X3972255Y5139893D01*
X3966819Y5141772D01*
X3960571Y5142484D01*
X3930040Y5142484D01*
G37*
G36*
X3785615Y5085689D02*
G01*
X3842359Y5085689D01*
X3842359Y5142484D01*
X3811828Y5142484D01*
X3805580Y5141772D01*
X3800144Y5139893D01*
X3795318Y5136845D01*
X3791254Y5132781D01*
X3788206Y5127955D01*
X3786327Y5122519D01*
X3785615Y5116271D01*
G37*
G36*
X6664401Y5143703D02*
G01*
X6674053Y5144566D01*
X6683400Y5147056D01*
X6692188Y5151170D01*
X6700164Y5156708D01*
X6707022Y5163566D01*
X6712559Y5171541D01*
X6716674Y5180330D01*
X6719163Y5189677D01*
X6720027Y5199329D01*
X6719163Y5208981D01*
X6716674Y5218328D01*
X6711899Y5228336D01*
X6710934Y5231739D01*
X6711238Y5235295D01*
X6712762Y5238546D01*
X6715658Y5242712D01*
X6719773Y5251500D01*
X6722262Y5260848D01*
X6723125Y5270500D01*
X6722262Y5280152D01*
X6719773Y5289499D01*
X6715658Y5298287D01*
X6710121Y5306263D01*
X6703263Y5313121D01*
X6695287Y5318658D01*
X6686499Y5322773D01*
X6677152Y5325262D01*
X6667500Y5326126D01*
X6657848Y5325262D01*
X6648500Y5322773D01*
X6639712Y5318658D01*
X6631736Y5313121D01*
X6630212Y5311597D01*
X6626961Y5309362D01*
X6623050Y5308600D01*
X6619138Y5309362D01*
X6615887Y5311597D01*
X6614363Y5313121D01*
X6606387Y5318658D01*
X6597599Y5322773D01*
X6588252Y5325262D01*
X6578600Y5326126D01*
X6568948Y5325262D01*
X6559600Y5322773D01*
X6551320Y5318912D01*
X6547510Y5317947D01*
X6543598Y5318556D01*
X6540246Y5320538D01*
X6532321Y5331663D01*
X6525463Y5338521D01*
X6517487Y5344058D01*
X6508699Y5348173D01*
X6499352Y5350662D01*
X6489700Y5351526D01*
X6480048Y5350662D01*
X6470700Y5348173D01*
X6461912Y5344058D01*
X6453936Y5338521D01*
X6447078Y5331663D01*
X6441541Y5323687D01*
X6437426Y5314899D01*
X6434937Y5305552D01*
X6434074Y5295900D01*
X6434937Y5286248D01*
X6437426Y5276900D01*
X6441541Y5268112D01*
X6447078Y5260136D01*
X6453936Y5253278D01*
X6461912Y5247741D01*
X6470700Y5243626D01*
X6480048Y5241137D01*
X6489700Y5240274D01*
X6499352Y5241137D01*
X6508699Y5243626D01*
X6516979Y5247487D01*
X6520789Y5248452D01*
X6524701Y5247843D01*
X6528054Y5245862D01*
X6535978Y5234736D01*
X6542836Y5227878D01*
X6550812Y5222341D01*
X6559600Y5218226D01*
X6568948Y5215737D01*
X6578600Y5214874D01*
X6588252Y5215737D01*
X6596735Y5218023D01*
X6600596Y5218277D01*
X6604304Y5217058D01*
X6607251Y5214569D01*
X6609080Y5211165D01*
X6609486Y5207304D01*
X6608775Y5199329D01*
X6609638Y5189677D01*
X6612128Y5180330D01*
X6616242Y5171541D01*
X6621780Y5163566D01*
X6628638Y5156708D01*
X6636613Y5151170D01*
X6645402Y5147056D01*
X6654749Y5144566D01*
G37*
G36*
X6096000Y5278374D02*
G01*
X6105652Y5279237D01*
X6114999Y5281726D01*
X6123787Y5285841D01*
X6131763Y5291378D01*
X6138621Y5298236D01*
X6144158Y5306212D01*
X6148273Y5315000D01*
X6150762Y5324348D01*
X6151626Y5334000D01*
X6150762Y5343652D01*
X6148273Y5352999D01*
X6144158Y5361787D01*
X6138621Y5369763D01*
X6131763Y5376621D01*
X6123787Y5382158D01*
X6114999Y5386273D01*
X6105652Y5388762D01*
X6096000Y5389626D01*
X6086348Y5388762D01*
X6077000Y5386273D01*
X6068212Y5382158D01*
X6060236Y5376621D01*
X6053378Y5369763D01*
X6047841Y5361787D01*
X6043726Y5352999D01*
X6041237Y5343652D01*
X6040374Y5334000D01*
X6041237Y5324348D01*
X6043726Y5315000D01*
X6047841Y5306212D01*
X6053378Y5298236D01*
X6060236Y5291378D01*
X6068212Y5285841D01*
X6077000Y5281726D01*
X6086348Y5279237D01*
G37*
G36*
X4058259Y5357876D02*
G01*
X4058259Y5404459D01*
X4011676Y5404459D01*
X4012336Y5402935D01*
X4019194Y5391404D01*
X4027525Y5380837D01*
X4037177Y5371490D01*
X4047998Y5363514D01*
G37*
G36*
X4145940Y5358028D02*
G01*
X4150410Y5360111D01*
X4161739Y5367324D01*
X4172000Y5376011D01*
X4181043Y5385968D01*
X4188612Y5397042D01*
X4192371Y5404459D01*
X4145940Y5404459D01*
G37*

%LPD*%
D14*
X1727200Y5257800D02*
G01*
X1794713Y5190286D01*
X1878098Y5190286D01*
G36*
X1215202Y2429703D02*
G01*
X1215202Y2929702D01*
X715203Y2929702D01*
X715203Y2429703D01*
G37*
G36*
X8454189Y2429697D02*
G01*
X8454189Y2929696D01*
X7954190Y2929696D01*
X7954190Y2429697D01*
G37*
D50*
G01*
X3886200Y4787900D03*
D51*
G01*
X3886200Y5041900D03*
D50*
G01*
X2146300Y4229100D03*
G01*
X2146300Y3975100D03*
G01*
X2400300Y4229100D03*
G01*
X2400300Y3975100D03*
G01*
X2654300Y4229100D03*
G01*
X2654300Y3975100D03*
G01*
X2908300Y4229100D03*
G01*
X2908300Y3975100D03*
G01*
X3162300Y4229100D03*
G01*
X3162300Y3975100D03*
G01*
X3416300Y4229100D03*
G01*
X3416300Y3975100D03*
G01*
X3670300Y4229100D03*
G01*
X3670300Y3975100D03*
G01*
X3924300Y4229100D03*
G01*
X3924300Y3975100D03*
G01*
X4178300Y4229100D03*
G01*
X4178300Y3975100D03*
G01*
X4432300Y4229100D03*
G01*
X4432300Y3975100D03*
G01*
X4686300Y4229100D03*
G01*
X4686300Y3975100D03*
G01*
X4940300Y4229100D03*
G01*
X4940300Y3975100D03*
G01*
X5194300Y4229100D03*
G01*
X5194300Y3975100D03*
G01*
X5448300Y4229100D03*
G01*
X5448300Y3975100D03*
G01*
X5702300Y4229100D03*
G01*
X5702300Y3975100D03*
G01*
X5956300Y4229100D03*
G01*
X5956300Y3975100D03*
G01*
X6210300Y4229100D03*
G01*
X6210300Y3975100D03*
G01*
X6464300Y4229100D03*
G01*
X6464300Y3975100D03*
G01*
X6718300Y4229100D03*
G01*
X6718300Y3975100D03*
G36*
X6897370Y4154170D02*
G01*
X7047229Y4154170D01*
X7047229Y4304029D01*
X6897370Y4304029D01*
G37*
G01*
X6972300Y3975100D03*
G01*
X4102100Y5448300D03*
G01*
X3848100Y5448300D03*
G01*
X3594100Y5448300D03*
G36*
X3265170Y5523229D02*
G01*
X3415029Y5523229D01*
X3415029Y5373370D01*
X3265170Y5373370D01*
G37*
D18*
G01*
X6172200Y2895600D03*
G01*
X6166797Y3009900D03*
D19*
G01*
X7315200Y2755900D03*
G01*
X4610100Y5435600D03*
G01*
X8139302Y3873500D03*
G01*
X8331200Y4446396D03*
G01*
X7913497Y3937000D03*
G01*
X6845300Y3200400D03*
G01*
X3757802Y2603500D03*
G01*
X3770502Y1993900D03*
G01*
X3978529Y1739900D03*
G01*
X3201797Y2032000D03*
G01*
X3200400Y2311400D03*
G01*
X3187700Y3276600D03*
G01*
X3187700Y2667000D03*
D15*
G01*
X7353300Y3441700D03*
G01*
X7226300Y3314700D03*
G01*
X7353300Y3314700D03*
G01*
X7226300Y3441700D03*
G01*
X6934200Y2476500D03*
G01*
X6934606Y2286000D03*
G01*
X6934200Y2108200D03*
G01*
X5600700Y2463800D03*
G01*
X5600700Y2120900D03*
G01*
X5600700Y2286000D03*
D19*
G01*
X3683000Y3289300D03*
G01*
X4704359Y3111500D03*
G01*
X4381500Y3390900D03*
G01*
X4483100Y3390900D03*
G01*
X4381500Y3225800D03*
G01*
X4483100Y3225800D03*
G01*
X2757398Y3506698D03*
G01*
X1357401Y3506698D03*
G01*
X1357401Y2106726D03*
G01*
X1462404Y2106701D03*
G01*
X1547418Y2106701D03*
G01*
X1632229Y2106701D03*
G01*
X1717014Y2106701D03*
G01*
X1801825Y2106701D03*
G01*
X1886610Y2106701D03*
G01*
X1971420Y2106701D03*
G01*
X2057400Y2106701D03*
G01*
X2143404Y2106701D03*
G01*
X2228215Y2106701D03*
G01*
X2313025Y2106701D03*
G01*
X2397836Y2106701D03*
G01*
X2482621Y2106701D03*
G01*
X2567406Y2106701D03*
G01*
X2652420Y2106701D03*
G01*
X2757398Y2106726D03*
G01*
X2757398Y2296718D03*
G01*
X2757398Y2211704D03*
G01*
X939800Y3328796D03*
G01*
X7061200Y2781300D03*
G01*
X1117600Y4381500D03*
G01*
X1219200Y4381500D03*
G01*
X7061200Y2857500D03*
G01*
X7112000Y2819400D03*
G01*
X876300Y4141596D03*
G01*
X1518005Y4719396D03*
G01*
X1518005Y5364403D03*
G01*
X2095500Y5207000D03*
G01*
X2095500Y4876800D03*
G01*
X2861513Y4887087D03*
G01*
X3276600Y5156200D03*
G01*
X1727200Y5257800D03*
G01*
X6057900Y5016500D03*
G01*
X6070600Y4508500D03*
G01*
X7200900Y5308600D03*
G01*
X7670800Y5422900D03*
G01*
X8216900Y5410200D03*
G01*
X7543800Y4775200D03*
D20*
G01*
X736600Y3295192D03*
D19*
G01*
X5662802Y3124200D03*
G01*
X5662802Y3543300D03*
D21*
G01*
X1897405Y2966694D03*
G01*
X2057400Y2966694D03*
G01*
X2217394Y2966694D03*
G01*
X2217394Y2806700D03*
G01*
X2057400Y2806700D03*
G01*
X1897405Y2806700D03*
G01*
X1897405Y2646705D03*
G01*
X2057400Y2646705D03*
G01*
X2217394Y2646705D03*
G01*
X1752600Y4102100D03*
G01*
X1752600Y4216400D03*
G01*
X2628900Y2476500D03*
G01*
X3187700Y3111500D03*
D19*
G01*
X7632700Y3733800D03*
G01*
X7708900Y3238500D03*
G01*
X7683500Y3048000D03*
G01*
X7378700Y2540000D03*
G01*
X7200900Y3683000D03*
G01*
X7289800Y3111500D03*
G01*
X7823200Y2235200D03*
G01*
X7456576Y2884576D03*
G01*
X8001000Y4521200D03*
G01*
X4813300Y3581400D03*
G01*
X6192774Y3340100D03*
G01*
X6096000Y5334000D03*
D21*
G01*
X6451600Y4889500D03*
D19*
G01*
X6667500Y5270500D03*
G01*
X6664401Y5199329D03*
G01*
X6578600Y5270500D03*
G01*
X6489700Y5295900D03*
G01*
X4161815Y1993900D03*
G01*
X4267200Y1993900D03*
G01*
X4356100Y1993900D03*
G01*
X4427118Y1993900D03*
G01*
X7340600Y4991100D03*
G01*
X7366000Y3670300D03*
G01*
X7289800Y3695700D03*
G01*
X1168400Y5016500D03*
G01*
X1727200Y5041900D03*
G01*
X6997700Y3644900D03*
G01*
X7099300Y3670300D03*
G01*
X2921000Y3429000D03*
G01*
X2857500Y3251200D03*
G01*
X2603500Y3162300D03*
G01*
X2667000Y3060700D03*
G01*
X4064000Y4673600D03*
G01*
X4610100Y4584700D03*
G01*
X2413000Y3759200D03*
G01*
X1955800Y3746500D03*
G01*
X1524000Y2667000D03*
G01*
X1905000Y3390900D03*
G01*
X3073400Y5118100D03*
G01*
X2870200Y2463800D03*
G01*
X7213600Y2552700D03*
G01*
X6261100Y3492500D03*
G01*
X4711700Y4914900D03*
G01*
X5397500Y3556000D03*
G01*
X6832600Y3048000D03*
G01*
X4737100Y4559300D03*
G01*
X5295900Y3517900D03*
G01*
X1462404Y3506723D03*
G01*
X2527300Y3403600D03*
G01*
X2235200Y4965700D03*
G01*
X2328113Y5445887D03*
G01*
X1614347Y4508500D03*
G01*
X4483100Y4775200D03*
D18*
G01*
X3136900Y4546600D03*
G01*
X2451100Y4483100D03*
G01*
X2616200Y4546600D03*
D19*
G01*
X5016500Y4508500D03*
G01*
X5029200Y4635500D03*
D18*
G01*
X6438900Y4965700D03*
G01*
X6184900Y4635500D03*
D19*
G01*
X5257800Y4648200D03*
G01*
X5168900Y5041900D03*
G01*
X5829300Y4102100D03*
G01*
X5956300Y3683000D03*
G01*
X6594398Y4622800D03*
G01*
X6959600Y4851400D03*
G01*
X6438900Y5092700D03*
D52*
X968095Y4609896D02*
G01*
X898095Y4609896D01*
X968095Y5473903D02*
G01*
X898095Y5473903D01*
X1411102Y4609896D02*
G01*
X1291102Y4609896D01*
X1411102Y5473903D02*
G01*
X1291102Y5473903D01*
M02*
