M48
METRIC,LZ,000.000
;FILE_FORMAT=3:3
;TYPE=PLATED
;Layer: Drill PTH
;EasyEDA v6.4.19.4, 2021-06-11T02:13:33+02:00
;afcd8683cfac40e295d78014fa455b8c,92d7176e1a3f4c55b0c7f3235df8e186,10
;Gerber Generator version 0.2
;Holesize 1 = 0.305 mm
T01C0.305
;Holesize 2 = 0.501 mm
T02C0.501
;Holesize 3 = 0.600 mm
T03C0.600
;Holesize 4 = 0.915 mm
T04C0.915
;Holesize 5 = 2.501 mm
T05C2.501
%
G05
G90
T01
X061722Y028956
X061668Y030099
X031369Y045466
X024511Y044831
X026162Y045466
X064389Y049657
X061849Y046355
T02
X073152Y027559
X046101Y054356
X081393Y038735
X083312Y044464
X079135Y039370
X068453Y032004
X037578Y026035
X037705Y019939
X039785Y017399
X032018Y020320
X032004Y023114
X031877Y032766
X031877Y026670
X073533Y034417
X072263Y033147
X073533Y033147
X072263Y034417
X069342Y024765
X069346Y022860
X069342Y021082
X056007Y024638
X056007Y021209
X056007Y022860
X036830Y032893
X047044Y031115
X043815Y033909
X044831Y033909
X043815Y032258
X044831Y032258
X027574Y035067
X013574Y035067
X013574Y021067
X014624Y021067
X015474Y021067
X016322Y021067
X017170Y021067
X018018Y021067
X018866Y021067
X019714Y021067
X020574Y021067
X021434Y021067
X022282Y021067
X023130Y021067
X023978Y021067
X024826Y021067
X025674Y021067
X026524Y021067
X027574Y021067
X027574Y022967
X027574Y022117
X009398Y033288
X070612Y027813
X011176Y043815
X012192Y043815
X070612Y028575
X071120Y028194
X008763Y041416
X015180Y047194
X015180Y053644
X020955Y052070
X020955Y048768
X028615Y048871
X032766Y051562
X017272Y052578
X060579Y050165
X060706Y045085
X072009Y053086
X076708Y054229
X082169Y054102
X075438Y047752
X007366Y032952
X056628Y031242
X056628Y035433
X018974Y029667
X020574Y029667
X022174Y029667
X022174Y028067
X020574Y028067
X018974Y028067
X018974Y026467
X020574Y026467
X022174Y026467
X017526Y041021
X017526Y042164
X026289Y024765
X031877Y031115
X076327Y037338
X077089Y032385
X076835Y030480
X073787Y025400
X072009Y036830
X072898Y031115
X078232Y022352
X074566Y028846
X080010Y045212
X048133Y035814
X061928Y033401
X060960Y053340
X064516Y048895
X066675Y052705
X066644Y051993
X065786Y052705
X064897Y052959
X041618Y019939
X042672Y019939
X043561Y019939
X044271Y019939
X073406Y049911
X073660Y036703
X072898Y036957
X011684Y050165
X017272Y050419
X069977Y036449
X070993Y036703
X029210Y034290
X028575Y032512
X026035Y031623
X026670Y030607
X040640Y046736
X046101Y045847
X024130Y037592
X019558Y037465
X015240Y026670
X019050Y033909
X030734Y051181
X028702Y024638
X072136Y025527
X062611Y034925
X047117Y049149
X053975Y035560
X068326Y030480
X047371Y045593
X052959Y035179
X014624Y035067
X025273Y034036
X022352Y049657
X023281Y054459
X016143Y045085
X044831Y047752
X050165Y045085
X050292Y046355
X052578Y046482
X051689Y050419
X058293Y041021
X059563Y036830
X065944Y046228
X069596Y048514
X064389Y050927
T03
X009031Y046099G85X009631Y046099
X009031Y054739G85X009631Y054739
X012961Y046099G85X014061Y046099
X012961Y054739G85X014061Y054739
T04
X038862Y047879
X038862Y050419
X021463Y042291
X021463Y039751
X024003Y042291
X024003Y039751
X026543Y042291
X026543Y039751
X029083Y042291
X029083Y039751
X031623Y042291
X031623Y039751
X034163Y042291
X034163Y039751
X036703Y042291
X036703Y039751
X039243Y042291
X039243Y039751
X041783Y042291
X041783Y039751
X044323Y042291
X044323Y039751
X046863Y042291
X046863Y039751
X049403Y042291
X049403Y039751
X051943Y042291
X051943Y039751
X054483Y042291
X054483Y039751
X057023Y042291
X057023Y039751
X059563Y042291
X059563Y039751
X062103Y042291
X062103Y039751
X064643Y042291
X064643Y039751
X067183Y042291
X067183Y039751
X069723Y042291
X069723Y039751
X041021Y054483
X038481Y054483
X035941Y054483
X033401Y054483
T05
X009652Y026797
X082042Y026797
M30
