G04 Layer: BottomSilkLayer*
G04 EasyEDA v6.4.19.4, 2021-06-11T02:13:33+02:00*
G04 afcd8683cfac40e295d78014fa455b8c,92d7176e1a3f4c55b0c7f3235df8e186,10*
G04 Gerber Generator version 0.2*
G04 Scale: 100 percent, Rotated: No, Reflected: No *
G04 Dimensions in millimeters *
G04 leading zeros omitted , absolute positions ,4 integer and 5 decimal *
%FSLAX45Y45*%
%MOMM*%

%ADD10C,0.2540*%
%ADD11C,0.3000*%
%ADD54C,0.1524*%

%LPD*%
D11*
X964692Y3937000D02*
G01*
X964692Y4182363D01*
X8313674Y4059681D02*
G01*
X8068056Y4059681D01*
X8190991Y3937000D02*
G01*
X8190991Y4182363D01*
D54*
X5284238Y3581400D02*
G01*
X5175135Y3581400D01*
X5284238Y3581400D02*
G01*
X5284238Y3628158D01*
X5279044Y3643744D01*
X5273847Y3648941D01*
X5263456Y3654135D01*
X5253065Y3654135D01*
X5242674Y3648941D01*
X5237479Y3643744D01*
X5232285Y3628158D01*
X5232285Y3581400D02*
G01*
X5232285Y3628158D01*
X5227088Y3643744D01*
X5221894Y3648941D01*
X5211503Y3654135D01*
X5195915Y3654135D01*
X5185524Y3648941D01*
X5180329Y3643744D01*
X5175135Y3628158D01*
X5175135Y3581400D01*
X5263456Y3688425D02*
G01*
X5268653Y3698816D01*
X5284238Y3714404D01*
X5175135Y3714404D01*
D11*
X6878574Y2675381D02*
G01*
X6632956Y2675381D01*
X6755891Y2552700D02*
G01*
X6755891Y2798063D01*
X2412491Y2552700D02*
G01*
X2412491Y2798063D01*
D10*
X8384971Y1629714D02*
G01*
X8384971Y3729710D01*
X784961Y3729710D01*
X784961Y1629714D01*
X8384971Y1629714D01*
G75*
G01
X6926402Y2679700D02*
G03X6926402Y2679700I-170002J0D01*
G75*
G01
X2583002Y2679700D02*
G03X2583002Y2679700I-170002J0D01*
G75*
G01
X1135202Y4051300D02*
G03X1135202Y4051300I-170002J0D01*
G75*
G01
X8361502Y4051300D02*
G03X8361502Y4051300I-170002J0D01*
M02*
