G04 Layer: TopSolderMaskLayer*
G04 EasyEDA v6.4.19.4, 2021-06-11T02:13:33+02:00*
G04 afcd8683cfac40e295d78014fa455b8c,92d7176e1a3f4c55b0c7f3235df8e186,10*
G04 Gerber Generator version 0.2*
G04 Scale: 100 percent, Rotated: No, Reflected: No *
G04 Dimensions in millimeters *
G04 leading zeros omitted , absolute positions ,4 integer and 5 decimal *
%FSLAX45Y45*%
%MOMM*%

%ADD59C,0.4656*%
%ADD60C,1.3532*%
%ADD61C,0.7036*%
%ADD62C,0.5016*%
%ADD63C,0.3016*%
%ADD64C,2.2032*%
%ADD72C,1.7018*%

%LPD*%
D59*
X5336006Y4512589D02*
G01*
X5424804Y4512589D01*
X5336006Y4577587D02*
G01*
X5424804Y4577587D01*
X5336006Y4642586D02*
G01*
X5424804Y4642586D01*
X5336006Y4707610D02*
G01*
X5424804Y4707610D01*
X5090795Y4512589D02*
G01*
X5179593Y4512589D01*
X5090795Y4577587D02*
G01*
X5179593Y4577587D01*
X5090795Y4642586D02*
G01*
X5179593Y4642586D01*
X5090795Y4707610D02*
G01*
X5179593Y4707610D01*
D60*
X968095Y4609896D02*
G01*
X898095Y4609896D01*
X968095Y5473903D02*
G01*
X898095Y5473903D01*
X1411102Y4609896D02*
G01*
X1291102Y4609896D01*
X1411102Y5473903D02*
G01*
X1291102Y5473903D01*
D61*
X4227189Y3492500D02*
G01*
X4093291Y3492500D01*
X4227189Y3365500D02*
G01*
X4093291Y3365500D01*
X4227189Y3238500D02*
G01*
X4093291Y3238500D01*
X4227189Y3111500D02*
G01*
X4093291Y3111500D01*
X4771308Y3492500D02*
G01*
X4637410Y3492500D01*
X4771308Y3365500D02*
G01*
X4637410Y3365500D01*
X4771308Y3238500D02*
G01*
X4637410Y3238500D01*
X4771308Y3111500D02*
G01*
X4637410Y3111500D01*
D62*
X6664401Y4968811D02*
G01*
X6664401Y4903810D01*
X6664401Y5103812D02*
G01*
X6664401Y5038811D01*
X6594398Y5103812D02*
G01*
X6594398Y5038811D01*
D63*
X6724411Y4928793D02*
G01*
X6764411Y4928793D01*
X6724411Y4978806D02*
G01*
X6764411Y4978806D01*
X6724411Y5028793D02*
G01*
X6764411Y5028793D01*
X6724411Y5078806D02*
G01*
X6764411Y5078806D01*
X6494414Y5078806D02*
G01*
X6534414Y5078806D01*
X6494414Y5028793D02*
G01*
X6534414Y5028793D01*
X6494414Y4978806D02*
G01*
X6534414Y4978806D01*
X6494414Y4928793D02*
G01*
X6534414Y4928793D01*
D64*
G01*
X7429500Y3975100D03*
G36*
X5608827Y4667250D02*
G01*
X5608827Y4832350D01*
X5744972Y4832350D01*
X5744972Y4667250D01*
G37*
G36*
X5812027Y4667250D02*
G01*
X5812027Y4832350D01*
X5948172Y4832350D01*
X5948172Y4667250D01*
G37*
G36*
X690118Y2404618D02*
G01*
X690118Y2954781D01*
X1240281Y2954781D01*
X1240281Y2404618D01*
G37*
G36*
X7929118Y2404618D02*
G01*
X7929118Y2954781D01*
X8479281Y2954781D01*
X8479281Y2404618D01*
G37*
G36*
X3539743Y4494021D02*
G01*
X3539743Y4604004D01*
X3699763Y4604004D01*
X3699763Y4494021D01*
G37*
G36*
X2929636Y4494021D02*
G01*
X2929636Y4604004D01*
X3089909Y4604004D01*
X3089909Y4494021D01*
G37*
G36*
X3539743Y4793995D02*
G01*
X3539743Y4903978D01*
X3699763Y4903978D01*
X3699763Y4793995D01*
G37*
G36*
X2929636Y4793995D02*
G01*
X2929636Y4903978D01*
X3089656Y4903978D01*
X3089656Y4793995D01*
G37*
G36*
X5404865Y1958339D02*
G01*
X5404865Y2613660D01*
X5806186Y2613660D01*
X5806186Y1958339D01*
G37*
G36*
X6759447Y1958339D02*
G01*
X6759447Y2613660D01*
X7109713Y2613660D01*
X7109713Y1958339D01*
G37*
G36*
X6225540Y2986786D02*
G01*
X6225540Y3413252D01*
X6575806Y3413252D01*
X6575806Y2986786D01*
G37*
G36*
X3693413Y1659636D02*
G01*
X3693413Y1819910D01*
X3843781Y1819910D01*
X3843781Y1659636D01*
G37*
G36*
X3903472Y1659636D02*
G01*
X3903472Y1819910D01*
X4053840Y1819910D01*
X4053840Y1659636D01*
G37*
D72*
G01*
X3886200Y4787900D03*
G36*
X3801109Y4956810D02*
G01*
X3801109Y5126989D01*
X3971290Y5126989D01*
X3971290Y4956810D01*
G37*
G36*
X7395718Y3532631D02*
G01*
X7395718Y3606037D01*
X7433818Y3606037D01*
X7433818Y3532631D01*
G37*
G36*
X7345679Y3532631D02*
G01*
X7345679Y3606037D01*
X7383779Y3606037D01*
X7383779Y3532631D01*
G37*
G36*
X7295641Y3532631D02*
G01*
X7295641Y3606037D01*
X7333995Y3606037D01*
X7333995Y3532631D01*
G37*
G36*
X7245604Y3532631D02*
G01*
X7245604Y3606037D01*
X7283958Y3606037D01*
X7283958Y3532631D01*
G37*
G36*
X7195820Y3532631D02*
G01*
X7195820Y3606037D01*
X7233920Y3606037D01*
X7233920Y3532631D01*
G37*
G36*
X7145781Y3532631D02*
G01*
X7145781Y3606037D01*
X7183881Y3606037D01*
X7183881Y3532631D01*
G37*
G36*
X7061961Y3484118D02*
G01*
X7061961Y3522218D01*
X7135368Y3522218D01*
X7135368Y3484118D01*
G37*
G36*
X7061961Y3434079D02*
G01*
X7061961Y3472179D01*
X7135368Y3472179D01*
X7135368Y3434079D01*
G37*
G36*
X7061961Y3384042D02*
G01*
X7061961Y3422395D01*
X7135368Y3422395D01*
X7135368Y3384042D01*
G37*
G36*
X7061961Y3334004D02*
G01*
X7061961Y3372357D01*
X7135368Y3372357D01*
X7135368Y3334004D01*
G37*
G36*
X7061961Y3284220D02*
G01*
X7061961Y3322320D01*
X7135368Y3322320D01*
X7135368Y3284220D01*
G37*
G36*
X7061961Y3234181D02*
G01*
X7061961Y3272281D01*
X7135368Y3272281D01*
X7135368Y3234181D01*
G37*
G36*
X7145781Y3150362D02*
G01*
X7145781Y3223768D01*
X7183881Y3223768D01*
X7183881Y3150362D01*
G37*
G36*
X7195820Y3150362D02*
G01*
X7195820Y3223768D01*
X7233920Y3223768D01*
X7233920Y3150362D01*
G37*
G36*
X7245604Y3150362D02*
G01*
X7245604Y3223768D01*
X7283958Y3223768D01*
X7283958Y3150362D01*
G37*
G36*
X7295641Y3150362D02*
G01*
X7295641Y3223768D01*
X7333995Y3223768D01*
X7333995Y3150362D01*
G37*
G36*
X7345679Y3150362D02*
G01*
X7345679Y3223768D01*
X7383779Y3223768D01*
X7383779Y3150362D01*
G37*
G36*
X7395718Y3150362D02*
G01*
X7395718Y3223768D01*
X7433818Y3223768D01*
X7433818Y3150362D01*
G37*
G36*
X7444231Y3234181D02*
G01*
X7444231Y3272281D01*
X7517638Y3272281D01*
X7517638Y3234181D01*
G37*
G36*
X7444231Y3284220D02*
G01*
X7444231Y3322320D01*
X7517638Y3322320D01*
X7517638Y3284220D01*
G37*
G36*
X7444231Y3334004D02*
G01*
X7444231Y3372357D01*
X7517638Y3372357D01*
X7517638Y3334004D01*
G37*
G36*
X7444231Y3384042D02*
G01*
X7444231Y3422395D01*
X7517638Y3422395D01*
X7517638Y3384042D01*
G37*
G36*
X7444231Y3434079D02*
G01*
X7444231Y3472179D01*
X7517638Y3472179D01*
X7517638Y3434079D01*
G37*
G36*
X7444231Y3484118D02*
G01*
X7444231Y3522218D01*
X7517638Y3522218D01*
X7517638Y3484118D01*
G37*
G36*
X7159752Y3248152D02*
G01*
X7159752Y3508247D01*
X7419847Y3508247D01*
X7419847Y3248152D01*
G37*
G36*
X1359915Y5041645D02*
G01*
X1359915Y5091937D01*
X1625345Y5091937D01*
X1625345Y5041645D01*
G37*
G36*
X1359915Y4991607D02*
G01*
X1359915Y5042154D01*
X1625345Y5042154D01*
X1625345Y4991607D01*
G37*
G36*
X1359915Y4941823D02*
G01*
X1359915Y4992115D01*
X1625345Y4992115D01*
X1625345Y4941823D01*
G37*
G36*
X1359915Y5091684D02*
G01*
X1359915Y5141976D01*
X1625345Y5141976D01*
X1625345Y5091684D01*
G37*
G36*
X1359915Y4891786D02*
G01*
X1359915Y4942078D01*
X1625345Y4942078D01*
X1625345Y4891786D01*
G37*
G36*
X1359915Y5141721D02*
G01*
X1359915Y5192013D01*
X1625345Y5192013D01*
X1625345Y5141721D01*
G37*
G36*
X1359915Y4841747D02*
G01*
X1359915Y4892039D01*
X1625345Y4892039D01*
X1625345Y4841747D01*
G37*
G36*
X1359915Y5191760D02*
G01*
X1359915Y5242052D01*
X1625345Y5242052D01*
X1625345Y5191760D01*
G37*
G36*
X1359915Y5246623D02*
G01*
X1359915Y5327142D01*
X1625345Y5327142D01*
X1625345Y5246623D01*
G37*
G36*
X1359915Y4756657D02*
G01*
X1359915Y4836921D01*
X1625345Y4836921D01*
X1625345Y4756657D01*
G37*
G36*
X1359915Y5324347D02*
G01*
X1359915Y5404612D01*
X1625345Y5404612D01*
X1625345Y5324347D01*
G37*
G36*
X1359915Y4679187D02*
G01*
X1359915Y4759452D01*
X1625345Y4759452D01*
X1625345Y4679187D01*
G37*
G36*
X7587995Y4176268D02*
G01*
X7587995Y4256531D01*
X7650225Y4256531D01*
X7650225Y4176268D01*
G37*
G36*
X7664958Y4176268D02*
G01*
X7664958Y4256531D01*
X7780020Y4256531D01*
X7780020Y4176268D01*
G37*
G36*
X6751827Y5340350D02*
G01*
X6751827Y5505450D01*
X6887972Y5505450D01*
X6887972Y5340350D01*
G37*
G36*
X6548627Y5340350D02*
G01*
X6548627Y5505450D01*
X6684772Y5505450D01*
X6684772Y5340350D01*
G37*
G36*
X7399527Y5035550D02*
G01*
X7399527Y5200650D01*
X7535672Y5200650D01*
X7535672Y5035550D01*
G37*
G36*
X7602727Y5035550D02*
G01*
X7602727Y5200650D01*
X7738872Y5200650D01*
X7738872Y5035550D01*
G37*
G36*
X6129527Y5327650D02*
G01*
X6129527Y5492750D01*
X6265672Y5492750D01*
X6265672Y5327650D01*
G37*
G36*
X5926327Y5327650D02*
G01*
X5926327Y5492750D01*
X6062472Y5492750D01*
X6062472Y5327650D01*
G37*
G36*
X7945627Y5327650D02*
G01*
X7945627Y5492750D01*
X8081772Y5492750D01*
X8081772Y5327650D01*
G37*
G36*
X8148827Y5327650D02*
G01*
X8148827Y5492750D01*
X8284972Y5492750D01*
X8284972Y5327650D01*
G37*
G36*
X7958327Y4997450D02*
G01*
X7958327Y5162550D01*
X8094472Y5162550D01*
X8094472Y4997450D01*
G37*
G36*
X8161527Y4997450D02*
G01*
X8161527Y5162550D01*
X8297672Y5162550D01*
X8297672Y4997450D01*
G37*
G36*
X7118350Y5240528D02*
G01*
X7118350Y5376671D01*
X7283450Y5376671D01*
X7283450Y5240528D01*
G37*
G36*
X7118350Y5037328D02*
G01*
X7118350Y5173471D01*
X7283450Y5173471D01*
X7283450Y5037328D01*
G37*
G36*
X6193027Y4933950D02*
G01*
X6193027Y5099050D01*
X6329172Y5099050D01*
X6329172Y4933950D01*
G37*
G36*
X5989827Y4933950D02*
G01*
X5989827Y5099050D01*
X6125972Y5099050D01*
X6125972Y4933950D01*
G37*
G36*
X7602727Y5340350D02*
G01*
X7602727Y5505450D01*
X7738872Y5505450D01*
X7738872Y5340350D01*
G37*
G36*
X7399527Y5340350D02*
G01*
X7399527Y5505450D01*
X7535672Y5505450D01*
X7535672Y5340350D01*
G37*
G36*
X7004050Y4580128D02*
G01*
X7004050Y4716271D01*
X7169150Y4716271D01*
X7169150Y4580128D01*
G37*
G36*
X7004050Y4783328D02*
G01*
X7004050Y4919471D01*
X7169150Y4919471D01*
X7169150Y4783328D01*
G37*
G36*
X2916427Y1670050D02*
G01*
X2916427Y1835150D01*
X3052572Y1835150D01*
X3052572Y1670050D01*
G37*
G36*
X3119627Y1670050D02*
G01*
X3119627Y1835150D01*
X3255772Y1835150D01*
X3255772Y1670050D01*
G37*
G36*
X1875028Y4438650D02*
G01*
X1875028Y4603750D01*
X2011172Y4603750D01*
X2011172Y4438650D01*
G37*
G36*
X1671828Y4438650D02*
G01*
X1671828Y4603750D01*
X1807971Y4603750D01*
X1807971Y4438650D01*
G37*
G36*
X7880350Y1849628D02*
G01*
X7880350Y1985771D01*
X8045450Y1985771D01*
X8045450Y1849628D01*
G37*
G36*
X7880350Y2052828D02*
G01*
X7880350Y2188971D01*
X8045450Y2188971D01*
X8045450Y2052828D01*
G37*
G36*
X7247127Y2317750D02*
G01*
X7247127Y2482850D01*
X7383272Y2482850D01*
X7383272Y2317750D01*
G37*
G36*
X7450327Y2317750D02*
G01*
X7450327Y2482850D01*
X7586472Y2482850D01*
X7586472Y2317750D01*
G37*
G36*
X4400550Y4707128D02*
G01*
X4400550Y4843271D01*
X4565650Y4843271D01*
X4565650Y4707128D01*
G37*
G36*
X4400550Y4910328D02*
G01*
X4400550Y5046471D01*
X4565650Y5046471D01*
X4565650Y4910328D01*
G37*
G36*
X4133850Y4707128D02*
G01*
X4133850Y4843271D01*
X4298950Y4843271D01*
X4298950Y4707128D01*
G37*
G36*
X4133850Y4910328D02*
G01*
X4133850Y5046471D01*
X4298950Y5046471D01*
X4298950Y4910328D01*
G37*
G36*
X3119627Y2876550D02*
G01*
X3119627Y3041650D01*
X3255772Y3041650D01*
X3255772Y2876550D01*
G37*
G36*
X2916427Y2876550D02*
G01*
X2916427Y3041650D01*
X3052572Y3041650D01*
X3052572Y2876550D01*
G37*
G36*
X2916427Y2533650D02*
G01*
X2916427Y2698750D01*
X3052572Y2698750D01*
X3052572Y2533650D01*
G37*
G36*
X3119627Y2533650D02*
G01*
X3119627Y2698750D01*
X3255772Y2698750D01*
X3255772Y2533650D01*
G37*
G36*
X2916427Y3194050D02*
G01*
X2916427Y3359150D01*
X3052572Y3359150D01*
X3052572Y3194050D01*
G37*
G36*
X3119627Y3194050D02*
G01*
X3119627Y3359150D01*
X3255772Y3359150D01*
X3255772Y3194050D01*
G37*
G36*
X3119627Y3498850D02*
G01*
X3119627Y3663950D01*
X3255772Y3663950D01*
X3255772Y3498850D01*
G37*
G36*
X2916427Y3498850D02*
G01*
X2916427Y3663950D01*
X3052572Y3663950D01*
X3052572Y3498850D01*
G37*
G36*
X8181086Y3565397D02*
G01*
X8181086Y3688842D01*
X8328913Y3688842D01*
X8328913Y3565397D01*
G37*
G36*
X8181086Y3372357D02*
G01*
X8181086Y3495802D01*
X8328913Y3495802D01*
X8328913Y3372357D01*
G37*
G36*
X4506213Y2613660D02*
G01*
X4506213Y2973831D01*
X4866386Y2973831D01*
X4866386Y2613660D01*
G37*
G36*
X4506213Y1623568D02*
G01*
X4506213Y1983739D01*
X4866386Y1983739D01*
X4866386Y1623568D01*
G37*
G36*
X1046479Y4325365D02*
G01*
X1046479Y4440428D01*
X1303020Y4440428D01*
X1303020Y4325365D01*
G37*
G36*
X1046479Y4095242D02*
G01*
X1046479Y4210557D01*
X1303020Y4210557D01*
X1303020Y4095242D01*
G37*
G36*
X1046479Y3865371D02*
G01*
X1046479Y3980434D01*
X1303020Y3980434D01*
X1303020Y3865371D01*
G37*
G36*
X1617979Y3970781D02*
G01*
X1617979Y4335018D01*
X1874520Y4335018D01*
X1874520Y3970781D01*
G37*
G36*
X7860284Y4493260D02*
G01*
X7860284Y4549139D01*
X7954772Y4549139D01*
X7954772Y4493260D01*
G37*
G36*
X7640827Y4493260D02*
G01*
X7640827Y4549139D01*
X7735315Y4549139D01*
X7735315Y4493260D01*
G37*
G36*
X2248154Y5390895D02*
G01*
X2248154Y5500878D01*
X2408174Y5500878D01*
X2408174Y5390895D01*
G37*
G36*
X2248154Y5090921D02*
G01*
X2248154Y5200904D01*
X2408174Y5200904D01*
X2408174Y5090921D01*
G37*
G36*
X2748025Y5090921D02*
G01*
X2748025Y5200904D01*
X2908300Y5200904D01*
X2908300Y5090921D01*
G37*
G36*
X2748025Y5390895D02*
G01*
X2748025Y5500878D01*
X2908300Y5500878D01*
X2908300Y5390895D01*
G37*
G36*
X4306824Y3141979D02*
G01*
X4306824Y3462020D01*
X4557775Y3462020D01*
X4557775Y3141979D01*
G37*
G36*
X7001256Y2948431D02*
G01*
X7001256Y3099562D01*
X7146543Y3099562D01*
X7146543Y2948431D01*
G37*
G36*
X7001256Y2742437D02*
G01*
X7001256Y2893568D01*
X7146543Y2893568D01*
X7146543Y2742437D01*
G37*
G36*
X7837931Y3864355D02*
G01*
X7837931Y4009644D01*
X7989061Y4009644D01*
X7989061Y3864355D01*
G37*
G36*
X7631938Y3864355D02*
G01*
X7631938Y4009644D01*
X7783068Y4009644D01*
X7783068Y3864355D01*
G37*
G36*
X7735061Y3644392D02*
G01*
X7735061Y3734562D01*
X7835138Y3734562D01*
X7835138Y3644392D01*
G37*
G36*
X7735061Y3504437D02*
G01*
X7735061Y3594607D01*
X7835138Y3594607D01*
X7835138Y3504437D01*
G37*
G36*
X8269731Y3800855D02*
G01*
X8269731Y3946144D01*
X8420861Y3946144D01*
X8420861Y3800855D01*
G37*
G36*
X8063738Y3800855D02*
G01*
X8063738Y3946144D01*
X8214868Y3946144D01*
X8214868Y3800855D01*
G37*
G36*
X8258556Y4164837D02*
G01*
X8258556Y4315968D01*
X8403843Y4315968D01*
X8403843Y4164837D01*
G37*
G36*
X8258556Y4370831D02*
G01*
X8258556Y4521962D01*
X8403843Y4521962D01*
X8403843Y4370831D01*
G37*
G36*
X6006338Y4435855D02*
G01*
X6006338Y4581144D01*
X6157468Y4581144D01*
X6157468Y4435855D01*
G37*
G36*
X6212331Y4435855D02*
G01*
X6212331Y4581144D01*
X6363461Y4581144D01*
X6363461Y4435855D01*
G37*
G36*
X5793231Y3051555D02*
G01*
X5793231Y3196844D01*
X5944361Y3196844D01*
X5944361Y3051555D01*
G37*
G36*
X5587238Y3051555D02*
G01*
X5587238Y3196844D01*
X5738368Y3196844D01*
X5738368Y3051555D01*
G37*
G36*
X5793231Y3470655D02*
G01*
X5793231Y3615944D01*
X5944361Y3615944D01*
X5944361Y3470655D01*
G37*
G36*
X5587238Y3470655D02*
G01*
X5587238Y3615944D01*
X5738368Y3615944D01*
X5738368Y3470655D01*
G37*
G36*
X3888231Y2530855D02*
G01*
X3888231Y2676144D01*
X4039361Y2676144D01*
X4039361Y2530855D01*
G37*
G36*
X3682238Y2530855D02*
G01*
X3682238Y2676144D01*
X3833368Y2676144D01*
X3833368Y2530855D01*
G37*
G36*
X7263638Y4702555D02*
G01*
X7263638Y4847844D01*
X7414768Y4847844D01*
X7414768Y4702555D01*
G37*
G36*
X7469631Y4702555D02*
G01*
X7469631Y4847844D01*
X7620761Y4847844D01*
X7620761Y4702555D01*
G37*
G36*
X4956556Y3098037D02*
G01*
X4956556Y3249168D01*
X5101843Y3249168D01*
X5101843Y3098037D01*
G37*
G36*
X4956556Y3304031D02*
G01*
X4956556Y3455162D01*
X5101843Y3455162D01*
X5101843Y3304031D01*
G37*
G36*
X3900931Y1921255D02*
G01*
X3900931Y2066544D01*
X4052061Y2066544D01*
X4052061Y1921255D01*
G37*
G36*
X3694938Y1921255D02*
G01*
X3694938Y2066544D01*
X3846068Y2066544D01*
X3846068Y1921255D01*
G37*
G36*
X803655Y4066031D02*
G01*
X803655Y4217162D01*
X948944Y4217162D01*
X948944Y4066031D01*
G37*
G36*
X803655Y3860037D02*
G01*
X803655Y4011168D01*
X948944Y4011168D01*
X948944Y3860037D01*
G37*
G36*
X3113531Y1959355D02*
G01*
X3113531Y2104644D01*
X3264661Y2104644D01*
X3264661Y1959355D01*
G37*
G36*
X2907538Y1959355D02*
G01*
X2907538Y2104644D01*
X3058668Y2104644D01*
X3058668Y1959355D01*
G37*
G36*
X3113531Y2238755D02*
G01*
X3113531Y2384044D01*
X3264661Y2384044D01*
X3264661Y2238755D01*
G37*
G36*
X2907538Y2238755D02*
G01*
X2907538Y2384044D01*
X3058668Y2384044D01*
X3058668Y2238755D01*
G37*
G36*
X867155Y3253231D02*
G01*
X867155Y3404362D01*
X1012444Y3404362D01*
X1012444Y3253231D01*
G37*
G36*
X867155Y3047237D02*
G01*
X867155Y3198368D01*
X1012444Y3198368D01*
X1012444Y3047237D01*
G37*
G36*
X6569202Y4878831D02*
G01*
X6569202Y4993894D01*
X6619493Y4993894D01*
X6619493Y4878831D01*
G37*
G36*
X4328413Y5355336D02*
G01*
X4328413Y5515610D01*
X4478781Y5515610D01*
X4478781Y5355336D01*
G37*
G36*
X4538472Y5355336D02*
G01*
X4538472Y5515610D01*
X4688840Y5515610D01*
X4688840Y5355336D01*
G37*
G36*
X2707131Y2776473D02*
G01*
X2707131Y2836926D01*
X2807461Y2836926D01*
X2807461Y2776473D01*
G37*
G36*
X2707131Y2862579D02*
G01*
X2707131Y2922778D01*
X2807461Y2922778D01*
X2807461Y2862579D01*
G37*
G36*
X2707131Y2947415D02*
G01*
X2707131Y3007613D01*
X2807461Y3007613D01*
X2807461Y2947415D01*
G37*
G36*
X2707131Y3032252D02*
G01*
X2707131Y3092450D01*
X2807461Y3092450D01*
X2807461Y3032252D01*
G37*
G36*
X2707131Y3116834D02*
G01*
X2707131Y3177286D01*
X2807461Y3177286D01*
X2807461Y3116834D01*
G37*
G36*
X2707131Y3201670D02*
G01*
X2707131Y3262121D01*
X2807461Y3262121D01*
X2807461Y3201670D01*
G37*
G36*
X2707131Y3286505D02*
G01*
X2707131Y3346957D01*
X2807461Y3346957D01*
X2807461Y3286505D01*
G37*
G36*
X2707131Y3371595D02*
G01*
X2707131Y3431794D01*
X2807461Y3431794D01*
X2807461Y3371595D01*
G37*
G36*
X2707131Y2690621D02*
G01*
X2707131Y2750820D01*
X2807461Y2750820D01*
X2807461Y2690621D01*
G37*
G36*
X2707131Y2605786D02*
G01*
X2707131Y2665984D01*
X2807461Y2665984D01*
X2807461Y2605786D01*
G37*
G36*
X2707131Y2520950D02*
G01*
X2707131Y2581147D01*
X2807461Y2581147D01*
X2807461Y2520950D01*
G37*
G36*
X2707131Y2436113D02*
G01*
X2707131Y2496565D01*
X2807461Y2496565D01*
X2807461Y2436113D01*
G37*
G36*
X2707131Y2351278D02*
G01*
X2707131Y2411729D01*
X2807461Y2411729D01*
X2807461Y2351278D01*
G37*
G36*
X2707131Y2266442D02*
G01*
X2707131Y2326894D01*
X2807461Y2326894D01*
X2807461Y2266442D01*
G37*
G36*
X2707131Y2181605D02*
G01*
X2707131Y2241804D01*
X2807461Y2241804D01*
X2807461Y2181605D01*
G37*
G36*
X2707131Y2056637D02*
G01*
X2707131Y2156968D01*
X2807461Y2156968D01*
X2807461Y2056637D01*
G37*
G36*
X1987295Y2736595D02*
G01*
X1987295Y2876804D01*
X2127504Y2876804D01*
X2127504Y2736595D01*
G37*
G36*
X1827276Y2736595D02*
G01*
X1827276Y2876804D01*
X1967484Y2876804D01*
X1967484Y2736595D01*
G37*
G36*
X2147315Y2736595D02*
G01*
X2147315Y2876804D01*
X2287524Y2876804D01*
X2287524Y2736595D01*
G37*
G36*
X2147315Y2896615D02*
G01*
X2147315Y3036823D01*
X2287524Y3036823D01*
X2287524Y2896615D01*
G37*
G36*
X1827276Y2896615D02*
G01*
X1827276Y3036823D01*
X1967484Y3036823D01*
X1967484Y2896615D01*
G37*
G36*
X1987295Y2896615D02*
G01*
X1987295Y3036823D01*
X2127504Y3036823D01*
X2127504Y2896615D01*
G37*
G36*
X2147315Y2576576D02*
G01*
X2147315Y2716784D01*
X2287524Y2716784D01*
X2287524Y2642615D01*
X2221484Y2576576D01*
G37*
G36*
X1827276Y2576576D02*
G01*
X1827276Y2716784D01*
X1967484Y2716784D01*
X1967484Y2576576D01*
G37*
G36*
X1987295Y2576576D02*
G01*
X1987295Y2716784D01*
X2127504Y2716784D01*
X2127504Y2576576D01*
G37*
G36*
X1307337Y3456431D02*
G01*
X1307337Y3556762D01*
X1407668Y3556762D01*
X1407668Y3456431D01*
G37*
G36*
X2622295Y3456431D02*
G01*
X2622295Y3556762D01*
X2682493Y3556762D01*
X2682493Y3456431D01*
G37*
G36*
X2537206Y3456431D02*
G01*
X2537206Y3556762D01*
X2597658Y3556762D01*
X2597658Y3456431D01*
G37*
G36*
X2452370Y3456431D02*
G01*
X2452370Y3556762D01*
X2512822Y3556762D01*
X2512822Y3456431D01*
G37*
G36*
X2367788Y3456431D02*
G01*
X2367788Y3556762D01*
X2427986Y3556762D01*
X2427986Y3456431D01*
G37*
G36*
X2282952Y3456431D02*
G01*
X2282952Y3556762D01*
X2343150Y3556762D01*
X2343150Y3456431D01*
G37*
G36*
X2198115Y3456431D02*
G01*
X2198115Y3556762D01*
X2258313Y3556762D01*
X2258313Y3456431D01*
G37*
G36*
X2113279Y3456431D02*
G01*
X2113279Y3556762D01*
X2173477Y3556762D01*
X2173477Y3456431D01*
G37*
G36*
X1432305Y3456431D02*
G01*
X1432305Y3556762D01*
X1492504Y3556762D01*
X1492504Y3456431D01*
G37*
G36*
X1517395Y3456431D02*
G01*
X1517395Y3556762D01*
X1577594Y3556762D01*
X1577594Y3456431D01*
G37*
G36*
X1601978Y3456431D02*
G01*
X1601978Y3556762D01*
X1662429Y3556762D01*
X1662429Y3456431D01*
G37*
G36*
X1686813Y3456431D02*
G01*
X1686813Y3556762D01*
X1747265Y3556762D01*
X1747265Y3456431D01*
G37*
G36*
X1771650Y3456431D02*
G01*
X1771650Y3556762D01*
X1832102Y3556762D01*
X1832102Y3456431D01*
G37*
G36*
X1856486Y3456431D02*
G01*
X1856486Y3556762D01*
X1916684Y3556762D01*
X1916684Y3456431D01*
G37*
G36*
X1941322Y3456431D02*
G01*
X1941322Y3556762D01*
X2001520Y3556762D01*
X2001520Y3456431D01*
G37*
G36*
X2027174Y3456431D02*
G01*
X2027174Y3556762D01*
X2087625Y3556762D01*
X2087625Y3456431D01*
G37*
G36*
X1307337Y2056637D02*
G01*
X1307337Y2156968D01*
X1407668Y2156968D01*
X1407668Y2056637D01*
G37*
G36*
X1307337Y2181605D02*
G01*
X1307337Y2241804D01*
X1407668Y2241804D01*
X1407668Y2181605D01*
G37*
G36*
X1307337Y2266442D02*
G01*
X1307337Y2326894D01*
X1407668Y2326894D01*
X1407668Y2266442D01*
G37*
G36*
X1307337Y2351278D02*
G01*
X1307337Y2411729D01*
X1407668Y2411729D01*
X1407668Y2351278D01*
G37*
G36*
X1307337Y2436113D02*
G01*
X1307337Y2496565D01*
X1407668Y2496565D01*
X1407668Y2436113D01*
G37*
G36*
X1307337Y2520950D02*
G01*
X1307337Y2581147D01*
X1407668Y2581147D01*
X1407668Y2520950D01*
G37*
G36*
X1307337Y2605786D02*
G01*
X1307337Y2665984D01*
X1407668Y2665984D01*
X1407668Y2605786D01*
G37*
G36*
X1307337Y2690621D02*
G01*
X1307337Y2750820D01*
X1407668Y2750820D01*
X1407668Y2690621D01*
G37*
G36*
X1307337Y3371595D02*
G01*
X1307337Y3431794D01*
X1407668Y3431794D01*
X1407668Y3371595D01*
G37*
G36*
X1307337Y3286505D02*
G01*
X1307337Y3346957D01*
X1407668Y3346957D01*
X1407668Y3286505D01*
G37*
G36*
X1307337Y3201670D02*
G01*
X1307337Y3262121D01*
X1407668Y3262121D01*
X1407668Y3201670D01*
G37*
G36*
X1307337Y3116834D02*
G01*
X1307337Y3177286D01*
X1407668Y3177286D01*
X1407668Y3116834D01*
G37*
G36*
X1307337Y3032252D02*
G01*
X1307337Y3092450D01*
X1407668Y3092450D01*
X1407668Y3032252D01*
G37*
G36*
X1307337Y2947415D02*
G01*
X1307337Y3007613D01*
X1407668Y3007613D01*
X1407668Y2947415D01*
G37*
G36*
X1307337Y2862579D02*
G01*
X1307337Y2922778D01*
X1407668Y2922778D01*
X1407668Y2862579D01*
G37*
G36*
X1307337Y2776473D02*
G01*
X1307337Y2836926D01*
X1407668Y2836926D01*
X1407668Y2776473D01*
G37*
G36*
X2622295Y2056637D02*
G01*
X2622295Y2156968D01*
X2682493Y2156968D01*
X2682493Y2056637D01*
G37*
G36*
X2537206Y2056637D02*
G01*
X2537206Y2156968D01*
X2597658Y2156968D01*
X2597658Y2056637D01*
G37*
G36*
X2452370Y2056637D02*
G01*
X2452370Y2156968D01*
X2512822Y2156968D01*
X2512822Y2056637D01*
G37*
G36*
X2367788Y2056637D02*
G01*
X2367788Y2156968D01*
X2427986Y2156968D01*
X2427986Y2056637D01*
G37*
G36*
X2282952Y2056637D02*
G01*
X2282952Y2156968D01*
X2343150Y2156968D01*
X2343150Y2056637D01*
G37*
G36*
X2198115Y2056637D02*
G01*
X2198115Y2156968D01*
X2258313Y2156968D01*
X2258313Y2056637D01*
G37*
G36*
X2113279Y2056637D02*
G01*
X2113279Y2156968D01*
X2173477Y2156968D01*
X2173477Y2056637D01*
G37*
G36*
X1432305Y2056637D02*
G01*
X1432305Y2156968D01*
X1492504Y2156968D01*
X1492504Y2056637D01*
G37*
G36*
X1517395Y2056637D02*
G01*
X1517395Y2156968D01*
X1577594Y2156968D01*
X1577594Y2056637D01*
G37*
G36*
X1601978Y2056637D02*
G01*
X1601978Y2156968D01*
X1662429Y2156968D01*
X1662429Y2056637D01*
G37*
G36*
X1686813Y2056637D02*
G01*
X1686813Y2156968D01*
X1747265Y2156968D01*
X1747265Y2056637D01*
G37*
G36*
X1771650Y2056637D02*
G01*
X1771650Y2156968D01*
X1832102Y2156968D01*
X1832102Y2056637D01*
G37*
G36*
X1856486Y2056637D02*
G01*
X1856486Y2156968D01*
X1916684Y2156968D01*
X1916684Y2056637D01*
G37*
G36*
X1941322Y2056637D02*
G01*
X1941322Y2156968D01*
X2001520Y2156968D01*
X2001520Y2056637D01*
G37*
G36*
X2027174Y2056637D02*
G01*
X2027174Y2156968D01*
X2087625Y2156968D01*
X2087625Y2056637D01*
G37*
G36*
X2707131Y3456431D02*
G01*
X2707131Y3556762D01*
X2807461Y3556762D01*
X2807461Y3456431D01*
G37*
G01*
X2146300Y4229100D03*
G01*
X2146300Y3975100D03*
G01*
X2400300Y4229100D03*
G01*
X2400300Y3975100D03*
G01*
X2654300Y4229100D03*
G01*
X2654300Y3975100D03*
G01*
X2908300Y4229100D03*
G01*
X2908300Y3975100D03*
G01*
X3162300Y4229100D03*
G01*
X3162300Y3975100D03*
G01*
X3416300Y4229100D03*
G01*
X3416300Y3975100D03*
G01*
X3670300Y4229100D03*
G01*
X3670300Y3975100D03*
G01*
X3924300Y4229100D03*
G01*
X3924300Y3975100D03*
G01*
X4178300Y4229100D03*
G01*
X4178300Y3975100D03*
G01*
X4432300Y4229100D03*
G01*
X4432300Y3975100D03*
G01*
X4686300Y4229100D03*
G01*
X4686300Y3975100D03*
G01*
X4940300Y4229100D03*
G01*
X4940300Y3975100D03*
G01*
X5194300Y4229100D03*
G01*
X5194300Y3975100D03*
G01*
X5448300Y4229100D03*
G01*
X5448300Y3975100D03*
G01*
X5702300Y4229100D03*
G01*
X5702300Y3975100D03*
G01*
X5956300Y4229100D03*
G01*
X5956300Y3975100D03*
G01*
X6210300Y4229100D03*
G01*
X6210300Y3975100D03*
G01*
X6464300Y4229100D03*
G01*
X6464300Y3975100D03*
G01*
X6718300Y4229100D03*
G01*
X6718300Y3975100D03*
G36*
X6887209Y4144010D02*
G01*
X6887209Y4314189D01*
X7057390Y4314189D01*
X7057390Y4144010D01*
G37*
G01*
X6972300Y3975100D03*
G01*
X4102100Y5448300D03*
G01*
X3848100Y5448300D03*
G01*
X3594100Y5448300D03*
G36*
X3255009Y5363210D02*
G01*
X3255009Y5533389D01*
X3425190Y5533389D01*
X3425190Y5363210D01*
G37*
G36*
X2027427Y5124450D02*
G01*
X2027427Y5289550D01*
X2163572Y5289550D01*
X2163572Y5124450D01*
G37*
G36*
X1824228Y5124450D02*
G01*
X1824228Y5289550D01*
X1960372Y5289550D01*
X1960372Y5124450D01*
G37*
G36*
X2027427Y4794250D02*
G01*
X2027427Y4959350D01*
X2163572Y4959350D01*
X2163572Y4794250D01*
G37*
G36*
X1824228Y4794250D02*
G01*
X1824228Y4959350D01*
X1960372Y4959350D01*
X1960372Y4794250D01*
G37*
G36*
X3691127Y2838450D02*
G01*
X3691127Y3003550D01*
X3827272Y3003550D01*
X3827272Y2838450D01*
G37*
G36*
X3894327Y2838450D02*
G01*
X3894327Y3003550D01*
X4030472Y3003550D01*
X4030472Y2838450D01*
G37*
G36*
X3818127Y3181350D02*
G01*
X3818127Y3346450D01*
X3954272Y3346450D01*
X3954272Y3181350D01*
G37*
G36*
X3614927Y3181350D02*
G01*
X3614927Y3346450D01*
X3751072Y3346450D01*
X3751072Y3181350D01*
G37*
G36*
X3894327Y2203450D02*
G01*
X3894327Y2368550D01*
X4030472Y2368550D01*
X4030472Y2203450D01*
G37*
G36*
X3691127Y2203450D02*
G01*
X3691127Y2368550D01*
X3827272Y2368550D01*
X3827272Y2203450D01*
G37*
G36*
X3818127Y3486150D02*
G01*
X3818127Y3651250D01*
X3954272Y3651250D01*
X3954272Y3486150D01*
G37*
G36*
X3614927Y3486150D02*
G01*
X3614927Y3651250D01*
X3751072Y3651250D01*
X3751072Y3486150D01*
G37*
G36*
X6762750Y3132328D02*
G01*
X6762750Y3268471D01*
X6927850Y3268471D01*
X6927850Y3132328D01*
G37*
G36*
X6762750Y3335528D02*
G01*
X6762750Y3471671D01*
X6927850Y3471671D01*
X6927850Y3335528D01*
G37*
G36*
X7766050Y3157728D02*
G01*
X7766050Y3293871D01*
X7931150Y3293871D01*
X7931150Y3157728D01*
G37*
G36*
X7766050Y2954528D02*
G01*
X7766050Y3090671D01*
X7931150Y3090671D01*
X7931150Y2954528D01*
G37*
G36*
X7450327Y2673350D02*
G01*
X7450327Y2838450D01*
X7586472Y2838450D01*
X7586472Y2673350D01*
G37*
G36*
X7247127Y2673350D02*
G01*
X7247127Y2838450D01*
X7383272Y2838450D01*
X7383272Y2673350D01*
G37*
G36*
X4823713Y5355336D02*
G01*
X4823713Y5515610D01*
X4974081Y5515610D01*
X4974081Y5355336D01*
G37*
G36*
X5033772Y5355336D02*
G01*
X5033772Y5515610D01*
X5184140Y5515610D01*
X5184140Y5355336D01*
G37*
M02*
